<?xml version="1.0" encoding="utf-8"?>
<!-- Generator: Adobe Illustrator 19.1.0, SVG Export Plug-In . SVG Version: 6.00 Build 0)  -->
<svg version="1.1" id="Layer_1" xmlns="http://www.w3.org/2000/svg" xmlns:xlink="http://www.w3.org/1999/xlink" x="0px" y="0px"
	 viewBox="0 0 280 211.8" style="enable-background:new 0 0 280 211.8;" xml:space="preserve">
<style type="text/css">
	.st0{fill:url(#SVGID_1_);}
	.st1{fill:url(#SVGID_2_);}
	.st2{fill:url(#SVGID_3_);}
	.st3{fill:none;}
	.st4{fill:url(#SVGID_4_);}
	.st5{fill:url(#SVGID_5_);}
	.st6{fill:url(#SVGID_6_);}
	.st7{fill:url(#SVGID_7_);}
	.st8{fill:url(#SVGID_8_);}
	.st9{fill:url(#SVGID_9_);}
	.st10{fill:url(#SVGID_10_);}
	.st11{fill:url(#SVGID_11_);}
	.st12{fill:url(#SVGID_12_);}
	.st13{fill:url(#SVGID_13_);}
	.st14{fill:url(#SVGID_14_);}
	.st15{fill:url(#SVGID_15_);}
	.st16{fill:url(#SVGID_16_);}
	.st17{fill:url(#SVGID_17_);}
	.st18{fill:url(#SVGID_18_);}
	.st19{fill:url(#SVGID_19_);}
	.st20{fill:url(#SVGID_20_);}
	.st21{fill:url(#SVGID_21_);}
	.st22{fill:url(#SVGID_22_);}
	.st23{fill:url(#SVGID_23_);}
	.st24{fill:url(#SVGID_24_);}
	.st25{fill:url(#SVGID_25_);}
	.st26{fill:url(#SVGID_26_);}
	.st27{fill:url(#SVGID_27_);}
	.st28{fill:url(#SVGID_28_);}
	.st29{fill:url(#SVGID_29_);}
	.st30{fill:url(#SVGID_30_);}
</style>
<g>
	<g>
		<g>
			
				<linearGradient id="SVGID_1_" gradientUnits="userSpaceOnUse" x1="-718.4265" y1="211.3861" x2="-460.789" y2="-11.1827" gradientTransform="matrix(-1 0 0 -1 -433.4619 211.83)">
				<stop  offset="0" style="stop-color:#DC1845"/>
				<stop  offset="1" style="stop-color:#F72261"/>
			</linearGradient>
			<path class="st0" d="M162,84.4h54.9c0.7,0,1.4-0.6,1.4-1.4c0-0.7-0.6-1.4-1.4-1.4H162c-0.7,0-1.4,0.6-1.4,1.4
				C160.6,83.8,161.3,84.4,162,84.4z"/>
			
				<linearGradient id="SVGID_2_" gradientUnits="userSpaceOnUse" x1="-723.2873" y1="205.916" x2="-465.6012" y2="-16.6949" gradientTransform="matrix(-1 0 0 -1 -433.4619 211.83)">
				<stop  offset="0" style="stop-color:#DC1845"/>
				<stop  offset="1" style="stop-color:#F72261"/>
			</linearGradient>
			<path class="st1" d="M130,93.3h120.6c0.7,0,1.4-0.6,1.4-1.4c0-0.8-0.6-1.4-1.4-1.4H130c-0.7,0-1.4,0.6-1.4,1.4
				C128.6,92.7,129.2,93.3,130,93.3z"/>
			
				<linearGradient id="SVGID_3_" gradientUnits="userSpaceOnUse" x1="-730.272" y1="197.9664" x2="-472.5894" y2="-24.6416" gradientTransform="matrix(-1 0 0 -1 -433.4619 211.83)">
				<stop  offset="0" style="stop-color:#DC1845"/>
				<stop  offset="1" style="stop-color:#F72261"/>
			</linearGradient>
			<path class="st2" d="M138.8,103.5h111.9c0.7,0,1.4-0.6,1.4-1.4c0-0.8-0.6-1.4-1.4-1.4H138.8c-0.7,0-1.4,0.6-1.4,1.4
				C137.4,102.9,138,103.5,138.8,103.5z"/>
			<g>
				<line class="st3" x1="250.7" y1="111.2" x2="138.8" y2="111.2"/>
				
					<linearGradient id="SVGID_4_" gradientUnits="userSpaceOnUse" x1="-734.7892" y1="192.8594" x2="-477.1059" y2="-29.749" gradientTransform="matrix(-1 0 0 -1 -433.4619 211.83)">
					<stop  offset="0" style="stop-color:#DC1845"/>
					<stop  offset="1" style="stop-color:#F72261"/>
				</linearGradient>
				<path class="st4" d="M138.8,112.5h111.9c0.7,0,1.4-0.6,1.4-1.4c0-0.7-0.6-1.4-1.4-1.4H138.8c-0.7,0-1.4,0.6-1.4,1.4
					C137.4,111.9,138,112.5,138.8,112.5z"/>
			</g>
			
				<linearGradient id="SVGID_5_" gradientUnits="userSpaceOnUse" x1="-773.8113" y1="201.1086" x2="-429.3553" y2="-96.4614" gradientTransform="matrix(-1 0 0 -1 -433.4619 211.83)">
				<stop  offset="0" style="stop-color:#DC1845"/>
				<stop  offset="1" style="stop-color:#F72261"/>
			</linearGradient>
			<path class="st5" d="M175.5,122.1h75.2c0.7,0,1.4-0.6,1.4-1.4c0-0.7-0.6-1.4-1.4-1.4h-75.2c-0.7,0-1.4,0.6-1.4,1.4
				C174.2,121.5,174.8,122.1,175.5,122.1z"/>
			
				<linearGradient id="SVGID_6_" gradientUnits="userSpaceOnUse" x1="-782.6492" y1="197.5029" x2="-433.3653" y2="-104.2378" gradientTransform="matrix(-1 0 0 -1 -433.4619 211.83)">
				<stop  offset="0" style="stop-color:#DC1845"/>
				<stop  offset="1" style="stop-color:#F72261"/>
			</linearGradient>
			<path class="st6" d="M178.8,131.9h71.9c0.7,0,1.4-0.6,1.4-1.4s-0.6-1.4-1.4-1.4h-71.9c-0.7,0-1.4,0.6-1.4,1.4
				S177.9,131.9,178.8,131.9z"/>
			
				<linearGradient id="SVGID_7_" gradientUnits="userSpaceOnUse" x1="-789.368" y1="193.4681" x2="-440.0145" y2="-108.3326" gradientTransform="matrix(-1 0 0 -1 -433.4619 211.83)">
				<stop  offset="0" style="stop-color:#DC1845"/>
				<stop  offset="1" style="stop-color:#F72261"/>
			</linearGradient>
			<path class="st7" d="M178.8,141.7h71.9c0.7,0,1.4-0.6,1.4-1.4c0-0.7-0.6-1.4-1.4-1.4h-71.9c-0.7,0-1.4,0.6-1.4,1.4
				C177.3,141.2,177.9,141.7,178.8,141.7z"/>
			
				<linearGradient id="SVGID_8_" gradientUnits="userSpaceOnUse" x1="-795.8947" y1="189.5045" x2="-446.5413" y2="-112.2964" gradientTransform="matrix(-1 0 0 -1 -433.4619 211.83)">
				<stop  offset="0" style="stop-color:#DC1845"/>
				<stop  offset="1" style="stop-color:#F72261"/>
			</linearGradient>
			<path class="st8" d="M178.8,151.4h71.9c0.7,0,1.4-0.6,1.4-1.4c0-0.7-0.6-1.4-1.4-1.4h-71.9c-0.7,0-1.4,0.6-1.4,1.4
				C177.3,150.8,177.9,151.4,178.8,151.4z"/>
			
				<linearGradient id="SVGID_9_" gradientUnits="userSpaceOnUse" x1="-799.8412" y1="138.1053" x2="-542.2788" y2="-84.3987" gradientTransform="matrix(-1 0 0 -1 -433.4619 211.83)">
				<stop  offset="0" style="stop-color:#DC1845"/>
				<stop  offset="1" style="stop-color:#F72261"/>
			</linearGradient>
			<path class="st9" d="M221,187.9h29.7c0.7,0,1.4-0.6,1.4-1.4c0-0.7-0.6-1.4-1.4-1.4H221c-0.7,0-1.4,0.6-1.4,1.4
				C219.6,187.3,220.2,187.9,221,187.9z"/>
			
				<linearGradient id="SVGID_10_" gradientUnits="userSpaceOnUse" x1="-694.3227" y1="212.3862" x2="-455.7668" y2="6.3014" gradientTransform="matrix(-1 0 0 -1 -433.4619 211.83)">
				<stop  offset="0" style="stop-color:#DC1845"/>
				<stop  offset="1" style="stop-color:#F72261"/>
			</linearGradient>
			<path class="st10" d="M16.1,199.7h28.8c0.7,0,1.3-0.5,1.3-1.2c0-0.6-0.6-1.2-1.3-1.2H16.1c-0.7,0-1.3,0.5-1.3,1.2
				S15.4,199.7,16.1,199.7z"/>
			
				<linearGradient id="SVGID_11_" gradientUnits="userSpaceOnUse" x1="-691.3516" y1="215.3899" x2="-452.7957" y2="9.3051" gradientTransform="matrix(-1 0 0 -1 -433.4619 211.83)">
				<stop  offset="0" style="stop-color:#DC1845"/>
				<stop  offset="1" style="stop-color:#F72261"/>
			</linearGradient>
			<path class="st11" d="M16.1,194.1h28.8c0.7,0,1.3-0.5,1.3-1.2c0-0.6-0.6-1.2-1.3-1.2H16.1c-0.7,0-1.3,0.5-1.3,1.2
				C14.8,193.6,15.4,194.1,16.1,194.1z"/>
			<g>
				
					<linearGradient id="SVGID_12_" gradientUnits="userSpaceOnUse" x1="-726.4557" y1="194.2449" x2="-474.2949" y2="-23.5928" gradientTransform="matrix(-1 0 0 -1 -433.4619 211.83)">
					<stop  offset="0" style="stop-color:#DC1845"/>
					<stop  offset="1" style="stop-color:#F72261"/>
				</linearGradient>
				<path class="st12" d="M118,0h145.4c9.1,0,16.6,5.5,16.6,12.2v187.4c0,6.7-7.5,12.2-16.6,12.2H184c-1.3,0-2.3-1-2.3-2l0,0
					c0-1.2,1.1-2,2.3-2h79.4c6,0,10.8-3.6,10.8-8V12.2c0-4.4-4.9-8-10.8-8H118c-6,0-10.8,3.6-10.8,8v25.1c0,1.2-1.1,2-2.3,2h-1.1
					c-1.3,0-2.3-1-2.3-2V12.2C101.4,5.5,108.9,0,118,0z"/>
			</g>
			
				<linearGradient id="SVGID_13_" gradientUnits="userSpaceOnUse" x1="-618.2558" y1="289.3794" x2="-396.4449" y2="97.7606" gradientTransform="matrix(-1 0 0 -1 -433.4619 211.83)">
				<stop  offset="0" style="stop-color:#DC1845"/>
				<stop  offset="1" style="stop-color:#F72261"/>
			</linearGradient>
			<path class="st13" d="M43.4,34.2V11.5c0-6.2,5.1-11.2,11.3-11.2h27.8c6.2,0,11.3,5,11.3,11.2v22.7c0,6.2-5.1,11.2-11.3,11.2H54.8
				C48.5,45.4,43.4,40.4,43.4,34.2z M54.8,3.4c-4.5,0-8.1,3.6-8.1,8v22.7c0,4.4,3.6,8,8.1,8h27.8c4.5,0,8.1-3.6,8.1-8V11.5
				c0-4.4-3.6-8-8.1-8C82.5,3.4,54.8,3.4,54.8,3.4z"/>
			
				<linearGradient id="SVGID_14_" gradientUnits="userSpaceOnUse" x1="-697.6758" y1="198.7587" x2="-463.9984" y2="-3.1113" gradientTransform="matrix(-1 0 0 -1 -433.4619 211.83)">
				<stop  offset="0" style="stop-color:#DC1845"/>
				<stop  offset="1" style="stop-color:#F72261"/>
			</linearGradient>
			<path class="st14" d="M0.6,200.6v-66.7c0-6.2,5.5-11.2,12.2-11.2h146c6.7,0,12.2,5.1,12.2,11.2v66.7c0,6.2-5.5,11.2-12.2,11.2
				h-146C6,211.8,0.6,206.8,0.6,200.6z M12.8,125.8c-4.8,0-8.7,3.6-8.7,8v66.7c0,4.4,3.9,8,8.7,8h146c4.8,0,8.7-3.6,8.7-8v-66.7
				c0-4.4-3.9-8-8.7-8H12.8z"/>
			<g>
				
					<linearGradient id="SVGID_15_" gradientUnits="userSpaceOnUse" x1="-707.1691" y1="215.8314" x2="-451.0343" y2="-5.4393" gradientTransform="matrix(-1 0 0 -1 -433.4619 211.83)">
					<stop  offset="0" style="stop-color:#DC1845"/>
					<stop  offset="1" style="stop-color:#F72261"/>
				</linearGradient>
				<path class="st15" d="M171.5,67.4c-0.5-1.1-0.2-2.4,0.6-3.2l42.4-41.8c0.8-0.8,2.2-1.1,3.2-0.6c1.1,0.5,1.8,1.5,1.8,2.7v41.8
					c0,1.7-1.3,2.8-2.9,2.8h-42.4C173.1,69.1,172,68.4,171.5,67.4z M216.6,24.2l-42.4,41.8c0,0-0.1,0.1,0,0.1c0,0.1,0.1,0.1,0.1,0.1
					h42.4c0.1,0,0.1-0.1,0.1-0.1V24.3c0,0,0-0.1-0.1-0.1C216.7,24.2,216.7,24.2,216.6,24.2C216.7,24.2,216.6,24.2,216.6,24.2z"/>
				
					<linearGradient id="SVGID_16_" gradientUnits="userSpaceOnUse" x1="-681.4001" y1="245.5403" x2="-425.2653" y2="24.2696" gradientTransform="matrix(-1 0 0 -1 -433.4619 211.83)">
					<stop  offset="0" style="stop-color:#DC1845"/>
					<stop  offset="1" style="stop-color:#F72261"/>
				</linearGradient>
				<path class="st16" d="M163.6,61.8c-1.1-0.5-1.8-1.5-1.8-2.7V17.2c0-1.7,1.3-2.8,2.9-2.8h42.4c1.2,0,2.3,0.7,2.8,1.8
					c0.5,1.1,0.2,2.4-0.6,3.2l-42.4,41.8c-0.6,0.6-1.3,0.8-2,0.8C164.3,62,163.9,61.9,163.6,61.8z M164.6,17.1
					c-0.1,0-0.1,0.1-0.1,0.1v41.8c0,0,0,0.1,0.1,0.1c0.1,0,0.1,0,0.1,0l42.4-41.8c0,0,0.1-0.1,0-0.1c0-0.1-0.1-0.1-0.1-0.1H164.6z"
					/>
			</g>
			
				<linearGradient id="SVGID_17_" gradientUnits="userSpaceOnUse" x1="-724.2281" y1="167.2396" x2="-492.9421" y2="-32.5646" gradientTransform="matrix(-1 0 0 -1 -433.4619 211.83)">
				<stop  offset="0" style="stop-color:#DC1845"/>
				<stop  offset="1" style="stop-color:#F72261"/>
			</linearGradient>
			<path class="st17" d="M128,195.8c-0.7-0.2-1-0.8-1-1.3v-19.7c0-0.8,0.8-1.5,1.7-1.5H151c0.7,0,1.3,0.4,1.6,0.9
				c0.2,0.6,0.1,1.2-0.3,1.7l-22.3,19.7c-0.3,0.3-0.8,0.4-1.1,0.4S128.2,195.9,128,195.8z M128.8,174.8v19.5l22-19.5H128.8z"/>
			
				<linearGradient id="SVGID_18_" gradientUnits="userSpaceOnUse" x1="-737.339" y1="152.3198" x2="-506.1" y2="-47.444" gradientTransform="matrix(-1 0 0 -1 -433.4619 211.83)">
				<stop  offset="0" style="stop-color:#DC1845"/>
				<stop  offset="1" style="stop-color:#F72261"/>
			</linearGradient>
			<path class="st18" d="M131.4,198.3c-0.2-0.6-0.1-1.2,0.3-1.7l22.3-19.7c0.4-0.4,1.2-0.5,1.9-0.3c0.7,0.2,1,0.8,1,1.3v19.7
				c0,0.8-0.8,1.5-1.7,1.5H133C132.2,199.3,131.7,198.9,131.4,198.3z M155.2,178.2l-22,19.5h22V178.2z"/>
			
				<linearGradient id="SVGID_19_" gradientUnits="userSpaceOnUse" x1="-613.0456" y1="295.2667" x2="-391.3544" y2="103.7514" gradientTransform="matrix(-1 0 0 -1 -433.4619 211.83)">
				<stop  offset="0" style="stop-color:#DC1845"/>
				<stop  offset="1" style="stop-color:#F72261"/>
			</linearGradient>
			<path class="st19" d="M57.9,32c-0.5-0.2-0.9-0.7-0.9-1.3V11.9c0-0.8,0.6-1.4,1.5-1.4h19c0.6,0,1.1,0.3,1.4,0.9
				c0.2,0.5,0.1,1.2-0.3,1.6l-19,18.7c-0.3,0.3-0.6,0.4-1,0.4C58.2,32.1,58,32.1,57.9,32z M58.5,12v18.4L77.1,12H58.5z"/>
			
				<linearGradient id="SVGID_20_" gradientUnits="userSpaceOnUse" x1="-624.3586" y1="282.2281" x2="-402.6611" y2="90.7073" gradientTransform="matrix(-1 0 0 -1 -433.4619 211.83)">
				<stop  offset="0" style="stop-color:#DC1845"/>
				<stop  offset="1" style="stop-color:#F72261"/>
			</linearGradient>
			<path class="st20" d="M60.7,34.4c-0.2-0.5-0.1-1.2,0.3-1.6L80,14c0.4-0.4,1-0.5,1.7-0.3c0.5,0.2,0.9,0.7,0.9,1.3v18.8
				c0,0.8-0.6,1.4-1.5,1.4H62C61.4,35.3,60.9,34.9,60.7,34.4z M81,15.3L62.4,33.7H81V15.3z"/>
			
				<linearGradient id="SVGID_21_" gradientUnits="userSpaceOnUse" x1="-640.1474" y1="300.9361" x2="-382.6019" y2="78.4465" gradientTransform="matrix(-1 0 0 -1 -433.4619 211.83)">
				<stop  offset="0" style="stop-color:#DC1845"/>
				<stop  offset="1" style="stop-color:#F72261"/>
			</linearGradient>
			<path class="st21" d="M11.8,69.3h26.4c0.7,0,1.4-0.6,1.4-1.4c0-0.8-0.6-1.4-1.4-1.4H11.8c-0.7,0-1.4,0.6-1.4,1.4
				C10.4,68.7,11.1,69.3,11.8,69.3z"/>
			
				<linearGradient id="SVGID_22_" gradientUnits="userSpaceOnUse" x1="-654.8423" y1="284.2128" x2="-397.3854" y2="61.7999" gradientTransform="matrix(-1 0 0 -1 -433.4619 211.83)">
				<stop  offset="0" style="stop-color:#DC1845"/>
				<stop  offset="1" style="stop-color:#F72261"/>
			</linearGradient>
			<path class="st22" d="M12.2,102.6h16.7c0.7,0,1.4-0.6,1.4-1.4c0-0.8-0.6-1.4-1.4-1.4H12.2c-0.7,0-1.4,0.6-1.4,1.4
				C10.7,102,11.4,102.6,12.2,102.6z"/>
			
				<linearGradient id="SVGID_23_" gradientUnits="userSpaceOnUse" x1="-649.2881" y1="290.5997" x2="-391.6647" y2="68.0431" gradientTransform="matrix(-1 0 0 -1 -433.4619 211.83)">
				<stop  offset="0" style="stop-color:#DC1845"/>
				<stop  offset="1" style="stop-color:#F72261"/>
			</linearGradient>
			<path class="st23" d="M11.2,79h47.3c0.7,0,1.4-0.6,1.4-1.4c0-0.7-0.6-1.4-1.4-1.4H11.2c-0.7,0-1.4,0.6-1.4,1.4
				C9.8,78.4,10.5,79,11.2,79z"/>
			
				<linearGradient id="SVGID_24_" gradientUnits="userSpaceOnUse" x1="-652.4362" y1="287.0367" x2="-394.8142" y2="64.4811" gradientTransform="matrix(-1 0 0 -1 -433.4619 211.83)">
				<stop  offset="0" style="stop-color:#DC1845"/>
				<stop  offset="1" style="stop-color:#F72261"/>
			</linearGradient>
			<path class="st24" d="M11.2,85.3h47.3c0.7,0,1.4-0.6,1.4-1.4c0-0.8-0.6-1.4-1.4-1.4H11.2c-0.7,0-1.4,0.6-1.4,1.4
				C9.8,84.7,10.5,85.3,11.2,85.3z"/>
			
				<linearGradient id="SVGID_25_" gradientUnits="userSpaceOnUse" x1="-653.5074" y1="285.8385" x2="-395.9075" y2="63.3021" gradientTransform="matrix(-1 0 0 -1 -433.4619 211.83)">
				<stop  offset="0" style="stop-color:#DC1845"/>
				<stop  offset="1" style="stop-color:#F72261"/>
			</linearGradient>
			<path class="st25" d="M11.2,91.1H50c0.7,0,1.4-0.6,1.4-1.4c0-0.8-0.6-1.4-1.4-1.4H11.2c-0.7,0-1.4,0.6-1.4,1.4
				C9.8,90.5,10.5,91.1,11.2,91.1z"/>
			
				<linearGradient id="SVGID_26_" gradientUnits="userSpaceOnUse" x1="-663.5176" y1="273.0161" x2="-406.8092" y2="51.2498" gradientTransform="matrix(-1 0 0 -1 -433.4619 211.83)">
				<stop  offset="0" style="stop-color:#DC1845"/>
				<stop  offset="1" style="stop-color:#F72261"/>
			</linearGradient>
			<path class="st26" d="M0.5,103.4V64.6c0-7.1,5.9-12.9,13.1-12.9h96.6c7.2,0,13.1,5.8,13.1,12.9v38.9c0,7.1-5.9,12.9-13.1,12.9
				H13.6C6.4,116.3,0.5,110.6,0.5,103.4z M13.6,55.4c-5.2,0-9.4,4.1-9.4,9.2v38.9c0,5.1,4.2,9.2,9.4,9.2h96.6c5.2,0,9.4-4.1,9.4-9.2
				V64.6c0-5.1-4.2-9.2-9.4-9.2H13.6z"/>
			<g>
				
					<linearGradient id="SVGID_27_" gradientUnits="userSpaceOnUse" x1="-666.4214" y1="269.0533" x2="-410.2878" y2="47.7838" gradientTransform="matrix(-1 0 0 -1 -433.4619 211.83)">
					<stop  offset="0" style="stop-color:#DC1845"/>
					<stop  offset="1" style="stop-color:#F72261"/>
				</linearGradient>
				<path class="st27" d="M71.9,97.2c-0.7-0.4-1.2-1.1-1.2-1.8V67.1c0-1.1,0.8-1.9,1.9-1.9h28.7c0.8,0,1.6,0.5,1.8,1.2
					c0.4,0.7,0.1,1.5-0.5,2.1L73.9,96.9c-0.4,0.4-0.8,0.6-1.4,0.6C72.4,97.4,72.1,97.4,71.9,97.2z M72.6,67C72.5,67,72.5,67,72.6,67
					l-0.1,28.5c0,0,0,0.1,0.1,0.1s0.1,0,0.1,0l28.6-28.3c0,0,0,0,0-0.1c0-0.1-0.1-0.1-0.1-0.1H72.6z"/>
				
					<linearGradient id="SVGID_28_" gradientUnits="userSpaceOnUse" x1="-683.4228" y1="249.4426" x2="-427.294" y2="28.1771" gradientTransform="matrix(-1 0 0 -1 -433.4619 211.83)">
					<stop  offset="0" style="stop-color:#DC1845"/>
					<stop  offset="1" style="stop-color:#F72261"/>
				</linearGradient>
				<path class="st28" d="M76.3,100.9c-0.4-0.7-0.1-1.5,0.5-2.1l28.6-28.2c0.6-0.6,1.4-0.7,2.2-0.5c0.7,0.4,1.2,1.1,1.2,1.8v28.3
					c0,1.1-0.8,1.9-1.9,1.9H78.1C77.3,102.2,76.6,101.7,76.3,100.9z M106.7,71.9L78,100.2c0,0,0,0,0,0.1c0,0.1,0.1,0.1,0.1,0.1h28.7
					c0,0,0.1,0,0.1-0.1V71.9C106.8,71.9,106.8,71.9,106.7,71.9C106.8,71.9,106.8,71.9,106.7,71.9L106.7,71.9z"/>
			</g>
			<g>
				
					<linearGradient id="SVGID_29_" gradientUnits="userSpaceOnUse" x1="-705.2911" y1="190.52" x2="-471.2371" y2="-11.6755" gradientTransform="matrix(-1 0 0 -1 -433.4619 211.83)">
					<stop  offset="0" style="stop-color:#DC1845"/>
					<stop  offset="1" style="stop-color:#F72261"/>
				</linearGradient>
				<path class="st29" d="M85.6,169l73.8-32.2c1.1-0.5,1.6-1.7,1-2.6l0,0c-0.6-0.9-1.9-1.3-2.9-0.8l-73.9,32.2
					c-1.1,0.5-1.6,1.7-1,2.6l0,0C83.1,169.1,84.4,169.5,85.6,169z"/>
			</g>
			<g>
				
					<linearGradient id="SVGID_30_" gradientUnits="userSpaceOnUse" x1="-685.3774" y1="237.5337" x2="-435.7153" y2="21.8548" gradientTransform="matrix(-1 0 0 -1 -433.4619 211.83)">
					<stop  offset="0" style="stop-color:#DC1845"/>
					<stop  offset="1" style="stop-color:#F72261"/>
				</linearGradient>
				<path class="st30" d="M83,169L9.2,136.8c-1.1-0.5-1.6-1.7-1-2.6l0,0c0.6-0.9,1.9-1.3,2.9-0.8L85,165.6c1.1,0.5,1.6,1.7,1,2.6
					l0,0C85.4,169.1,84.1,169.5,83,169z"/>
			</g>
		</g>
	</g>
</g>
</svg>
