<?xml version="1.0" encoding="utf-8"?>
<!-- Generator: Adobe Illustrator 19.1.0, SVG Export Plug-In . SVG Version: 6.00 Build 0)  -->
<svg version="1.1" id="Layer_1" xmlns="http://www.w3.org/2000/svg" xmlns:xlink="http://www.w3.org/1999/xlink" x="0px" y="0px"
	 viewBox="0 0 280 221.6" style="enable-background:new 0 0 280 221.6;" xml:space="preserve">
<style type="text/css">
	.st0{fill:url(#SVGID_1_);}
	.st1{fill:url(#SVGID_2_);}
	.st2{fill:url(#SVGID_3_);}
	.st3{fill:url(#SVGID_4_);}
	.st4{fill:url(#SVGID_5_);}
	.st5{fill:url(#SVGID_6_);}
	.st6{fill:url(#SVGID_7_);}
	.st7{fill:url(#SVGID_8_);}
	.st8{fill:url(#SVGID_9_);}
	.st9{fill:url(#SVGID_10_);}
	.st10{fill:url(#SVGID_11_);}
	.st11{fill:url(#SVGID_12_);}
	.st12{fill:url(#SVGID_13_);}
	.st13{fill:url(#SVGID_14_);}
	.st14{fill:url(#SVGID_15_);}
	.st15{fill:url(#SVGID_16_);}
</style>
<g>
	<g>
		<g>
			
				<linearGradient id="SVGID_1_" gradientUnits="userSpaceOnUse" x1="273.0717" y1="24.7795" x2="-4.7909" y2="245.4665" gradientTransform="matrix(1 0 0 -1 0 222.11)">
				<stop  offset="0" style="stop-color:#FAD10A"/>
				<stop  offset="1" style="stop-color:#FCE600"/>
			</linearGradient>
			<path class="st0" d="M177.6,90.7c-1,1-1.9,2.7-2.9,2.7c-23.8,0.1-47.8,0.1-71.9,0.1c-0.1-1.5-0.1-2.8-0.2-4.2
				c24.9,0,49.5,0,74.1,0C177,89.8,177.3,90.2,177.6,90.7z"/>
			
				<linearGradient id="SVGID_2_" gradientUnits="userSpaceOnUse" x1="246.0082" y1="-9.2957" x2="-31.8544" y2="211.3914" gradientTransform="matrix(1 0 0 -1 0 222.11)">
				<stop  offset="0" style="stop-color:#FAD10A"/>
				<stop  offset="1" style="stop-color:#FCE600"/>
			</linearGradient>
			<path class="st1" d="M65.5,108.2c18.4,0,36.5,0,55,0c0,1.4,0,2.6,0,4.1c-10.7,0-21.3,0-31.7,0c-6.8,0-13.8-0.1-20.6,0.1
				C65,112.4,64.7,111,65.5,108.2z"/>
			
				<linearGradient id="SVGID_3_" gradientUnits="userSpaceOnUse" x1="264.0038" y1="13.3622" x2="-13.8588" y2="234.0493" gradientTransform="matrix(1 0 0 -1 0 222.11)">
				<stop  offset="0" style="stop-color:#FAD10A"/>
				<stop  offset="1" style="stop-color:#FCE600"/>
			</linearGradient>
			<path class="st2" d="M87.6,51.7c1.2,3.2,0.2,4.9-2.7,6.2c-4.9,2.2-9.6,4.8-15.4,7.6c5.6,2.8,10.3,5.3,15.2,7.6
				c2.7,1.2,4.1,2.7,2.8,6.2c-7.2-3.6-14.3-7.1-21.4-10.8c-2.1-1.2-1.9-5,0.2-6.2C73.5,58.7,80.6,55.3,87.6,51.7z"/>
			
				<linearGradient id="SVGID_4_" gradientUnits="userSpaceOnUse" x1="283.8669" y1="38.3715" x2="6.0042" y2="259.0586" gradientTransform="matrix(1 0 0 -1 0 222.11)">
				<stop  offset="0" style="stop-color:#FAD10A"/>
				<stop  offset="1" style="stop-color:#FCE600"/>
			</linearGradient>
			<path class="st3" d="M131.3,51.8c6.9,3.4,13.8,6.8,20.6,10.4c2.7,1.4,2.6,5.3-0.1,6.7c-6.8,3.5-13.8,6.9-20.7,10.4
				c-1.3-3.2-0.2-4.8,2.6-6.1c4.9-2.2,9.6-4.7,14.5-7.2c-5.1-5.9-15.1-4.8-18-12.8C130.6,52.7,130.9,52.3,131.3,51.8z"/>
			
				<linearGradient id="SVGID_5_" gradientUnits="userSpaceOnUse" x1="269.267" y1="19.9891" x2="-8.5956" y2="240.6761" gradientTransform="matrix(1 0 0 -1 0 222.11)">
				<stop  offset="0" style="stop-color:#FAD10A"/>
				<stop  offset="1" style="stop-color:#FCE600"/>
			</linearGradient>
			<path class="st4" d="M176.8,112.1c-15.4,0-30.6,0-45.8,0c0-1.3,0-2.5,0-4.1c6.8,0,13.6,0,20.2,0c7.6,0,15.2,0.1,22.9,0
				C176.9,107.9,177.6,109,176.8,112.1z"/>
			
				<linearGradient id="SVGID_6_" gradientUnits="userSpaceOnUse" x1="249.9189" y1="-4.3716" x2="-27.9437" y2="216.3154" gradientTransform="matrix(1 0 0 -1 0 222.11)">
				<stop  offset="0" style="stop-color:#FAD10A"/>
				<stop  offset="1" style="stop-color:#FCE600"/>
			</linearGradient>
			<path class="st5" d="M93.1,90.4c-1,1.1-1.9,2.9-2.9,2.9c-7.6,0.3-15.2,0.2-22.8,0.1c-0.9,0-1.6-1.5-2.4-2.2
				c0.7-0.6,1.5-1.9,2.2-1.9c8.3-0.1,16.6-0.1,24.9-0.1C92.4,89.6,92.8,90,93.1,90.4z"/>
			
				<linearGradient id="SVGID_7_" gradientUnits="userSpaceOnUse" x1="296.717" y1="54.5508" x2="18.8544" y2="275.2379" gradientTransform="matrix(1 0 0 -1 0 222.11)">
				<stop  offset="0" style="stop-color:#FAD10A"/>
				<stop  offset="1" style="stop-color:#FCE600"/>
			</linearGradient>
			<path class="st6" d="M214.4,89.3c0.9,2.6,0.6,4.2-2.5,4.2c-8,0-16.1,0-24.6,0c-0.1-1.4-0.2-2.6-0.4-4.1
				C196.3,89.3,205.4,89.3,214.4,89.3z"/>
			
				<linearGradient id="SVGID_8_" gradientUnits="userSpaceOnUse" x1="274.9699" y1="27.1696" x2="-2.8927" y2="247.8566" gradientTransform="matrix(1 0 0 -1 0 222.11)">
				<stop  offset="0" style="stop-color:#FAD10A"/>
				<stop  offset="1" style="stop-color:#FCE600"/>
			</linearGradient>
			<path class="st7" d="M124.9,63.6c1,2.6,0.6,4.1-2.5,4c-7.2-0.1-14.3-0.1-21.6,0c-3,0-3.4-1.3-2.7-4.1
				C107.2,63.6,116.1,63.6,124.9,63.6z"/>
			<g>
				<g>
					
						<linearGradient id="SVGID_9_" gradientUnits="userSpaceOnUse" x1="266.4641" y1="16.46" x2="-11.3985" y2="237.1471" gradientTransform="matrix(1 0 0 -1 0 222.11)">
						<stop  offset="0" style="stop-color:#FAD10A"/>
						<stop  offset="1" style="stop-color:#FCE600"/>
					</linearGradient>
					<path class="st8" d="M0,159c0,6.2,5.8,11.3,12.7,11.3h151.9v-3.8H12.8c-4.7-0.1-8.4-3.4-8.4-7.5V11.3C4.4,7.3,8.1,4,12.7,4
						h204.1c4.6,0,8.3,3.3,8.3,7.4v95.4l4.4-0.2V11.3c0-6.2-5.8-11.3-12.7-11.3h-204C5.8,0,0,5.1,0,11.3"/>
				</g>
				<g>
					
						<linearGradient id="SVGID_10_" gradientUnits="userSpaceOnUse" x1="293.1018" y1="49.999" x2="15.2392" y2="270.6861" gradientTransform="matrix(1 0 0 -1 0 222.11)">
						<stop  offset="0" style="stop-color:#FAD10A"/>
						<stop  offset="1" style="stop-color:#FCE600"/>
					</linearGradient>
					<rect x="2.2" y="28.6" class="st9" width="225.3" height="3.8"/>
				</g>
				<g>
					
						<linearGradient id="SVGID_11_" gradientUnits="userSpaceOnUse" x1="233.1628" y1="-25.469" x2="-44.6999" y2="195.2181" gradientTransform="matrix(1 0 0 -1 0 222.11)">
						<stop  offset="0" style="stop-color:#FAD10A"/>
						<stop  offset="1" style="stop-color:#FCE600"/>
					</linearGradient>
					<rect x="44.5" y="30.6" class="st10" width="4.4" height="137.8"/>
				</g>
			</g>
			
				<linearGradient id="SVGID_12_" gradientUnits="userSpaceOnUse" x1="269.2193" y1="19.929" x2="-8.6433" y2="240.6161" gradientTransform="matrix(1 0 0 -1 0 222.11)">
				<stop  offset="0" style="stop-color:#FAD10A"/>
				<stop  offset="1" style="stop-color:#FCE600"/>
			</linearGradient>
			<path class="st11" d="M226.6,148.6c10.5,0,18.8,9.1,18.8,19.8c0,10.7-8.3,19.8-18.8,19.8c-10.4,0-18.8-9.1-18.8-19.8
				C207.8,157.6,216.2,148.6,226.6,148.6z M226.6,184.4c8.1,0,14.9-7.2,14.9-15.9s-6.8-16-14.9-16c-8.1,0-14.9,7.2-14.9,16
				C211.7,177.2,218.5,184.4,226.6,184.4z"/>
			
				<linearGradient id="SVGID_13_" gradientUnits="userSpaceOnUse" x1="269.2104" y1="19.9178" x2="-8.6522" y2="240.6049" gradientTransform="matrix(1 0 0 -1 0 222.11)">
				<stop  offset="0" style="stop-color:#FAD10A"/>
				<stop  offset="1" style="stop-color:#FCE600"/>
			</linearGradient>
			<path class="st12" d="M226.6,118.7c2.8,0,5.7,0.3,8.4,0.7v7.6v2.8l2.7,0.7c2.7,0.9,5.2,1.8,7.7,3.2l2.5,1.3l1.9-1.9l5.3-5.3
				c4.6,3.2,8.8,7.4,12,12l-5.3,5.3l-1.9,1.9l1.3,2.5c1.3,2.5,2.5,5,3.2,7.7l0.7,2.7h2.8h7.6c0.4,2.8,0.7,5.7,0.7,8.4
				c0,2.8-0.3,5.7-0.7,8.4h-7.5H265l-0.7,2.7c-0.9,2.7-1.8,5.2-3.2,7.7l-1.3,2.5l1.9,1.9l5.3,5.3c-3.2,4.6-7.4,8.8-12,12l-5.3-5.3
				l-1.9-1.9l-2.5,1.3c-2.5,1.3-5,2.5-7.7,3.2l-2.7,0.7v2.8v7.6c-2.8,0.4-5.7,0.7-8.4,0.7c-2.8,0-5.7-0.3-8.4-0.7v-7.6v-2.8
				l-2.7-0.7c-2.7-0.9-5.2-1.8-7.7-3.2l-2.5-1.3l-1.9,1.9l-5.3,5.3c-4.6-3.2-8.8-7.4-12-12l5.3-5.3l1.9-1.9l-1.3-2.5
				c-1.3-2.5-2.5-5-3.2-7.7l-0.7-2.7h-2.8h-7.6c-0.6-2.7-1-5.6-1-8.3c0-2.8,0.3-5.7,0.7-8.4h7.6h2.8l0.7-2.7
				c0.9-2.7,1.8-5.2,3.2-7.7l1.3-2.5l-1.9-1.9l-5.3-5.3c3.2-4.6,7.4-8.8,12-12l5.3,5.3l1.9,1.9l2.5-1.3c2.5-1.3,5-2.5,7.7-3.2
				l2.7-0.7v-2.8v-7.6C220.9,118.9,223.8,118.7,226.6,118.7 M226.6,115c-4.2,0-8.2,0.4-12.2,1.4V127c-3,0.9-5.8,2-8.4,3.5l-7.5-7.5
				c-6.9,4.4-12.9,10.3-17.2,17.2l7.5,7.5c-1.5,2.7-2.6,5.5-3.5,8.4h-10.6c-1,3.8-1.4,8-1.4,12.2c0,4.2,0.4,8.2,1.4,12.2h10.7
				c0.9,3,2,5.8,3.5,8.4l-7.5,7.5c4.4,6.9,10.3,12.9,17.2,17.2l7.5-7.5c2.7,1.5,5.5,2.6,8.4,3.5v10.6c3.8,1,8,1.4,12.2,1.4
				c4.2,0,8.2-0.4,12.2-1.4v-10.6c3-0.9,5.8-2,8.4-3.5l7.5,7.5c6.9-4.4,12.9-10.3,17.2-17.2l-7.5-7.5c1.5-2.7,2.6-5.5,3.5-8.4h10.6
				c1-3.8,1.4-8,1.4-12.2c0-4.2-0.4-8.2-1.4-12.2h-10.8c-0.9-3-2-5.8-3.5-8.4l7.5-7.5c-4.4-6.9-10.3-12.9-17.2-17.2l-7.5,7.5
				c-2.7-1.5-5.5-2.6-8.4-3.5v-10.6C234.8,115.4,230.7,115,226.6,115L226.6,115z"/>
			
				<linearGradient id="SVGID_14_" gradientUnits="userSpaceOnUse" x1="337.2804" y1="105.6234" x2="59.4178" y2="326.3104" gradientTransform="matrix(1 0 0 -1 0 222.11)">
				<stop  offset="0" style="stop-color:#FAD10A"/>
				<stop  offset="1" style="stop-color:#FCE600"/>
			</linearGradient>
			<path class="st13" d="M211.1,24.7c-4.7,0-8.4-3.7-8.4-8.4s3.7-8.4,8.4-8.4s8.4,3.7,8.4,8.4S215.8,24.7,211.1,24.7z M211.1,10.5
				c-3.2,0-5.8,2.6-5.8,5.8s2.6,5.8,5.8,5.8c3.2,0,5.8-2.6,5.8-5.8S214.3,10.5,211.1,10.5z"/>
			
				<linearGradient id="SVGID_15_" gradientUnits="userSpaceOnUse" x1="328.9301" y1="95.1097" x2="51.0675" y2="315.7968" gradientTransform="matrix(1 0 0 -1 0 222.11)">
				<stop  offset="0" style="stop-color:#FAD10A"/>
				<stop  offset="1" style="stop-color:#FCE600"/>
			</linearGradient>
			<path class="st14" d="M189.5,24.7c-4.7,0-8.4-3.7-8.4-8.4s3.7-8.4,8.4-8.4s8.4,3.7,8.4,8.4S194.2,24.7,189.5,24.7z M189.5,10.5
				c-3.2,0-5.8,2.6-5.8,5.8s2.6,5.8,5.8,5.8s5.8-2.6,5.8-5.8S192.7,10.5,189.5,10.5z"/>
			
				<linearGradient id="SVGID_16_" gradientUnits="userSpaceOnUse" x1="320.7039" y1="84.7522" x2="42.8412" y2="305.4393" gradientTransform="matrix(1 0 0 -1 0 222.11)">
				<stop  offset="0" style="stop-color:#FAD10A"/>
				<stop  offset="1" style="stop-color:#FCE600"/>
			</linearGradient>
			<path class="st15" d="M168.2,24.7c-4.7,0-8.4-3.7-8.4-8.4s3.7-8.4,8.4-8.4c4.7,0,8.4,3.7,8.4,8.4S172.8,24.7,168.2,24.7z
				 M168.2,10.5c-3.2,0-5.8,2.6-5.8,5.8s2.6,5.8,5.8,5.8c3.2,0,5.8-2.6,5.8-5.8S171.4,10.5,168.2,10.5z"/>
		</g>
	</g>
</g>
</svg>
