<?xml version="1.0" encoding="utf-8"?>
<!-- Generator: Adobe Illustrator 19.1.0, SVG Export Plug-In . SVG Version: 6.00 Build 0)  -->
<svg version="1.1" id="Layer_1" xmlns="http://www.w3.org/2000/svg" xmlns:xlink="http://www.w3.org/1999/xlink" x="0px" y="0px"
	 viewBox="0 0 280 260" style="enable-background:new 0 0 280 260;" xml:space="preserve">
<style type="text/css">
	.st0{fill:url(#SVGID_1_);}
	.st1{fill:url(#SVGID_2_);}
	.st2{fill:url(#SVGID_3_);}
	.st3{fill:url(#SVGID_4_);}
	.st4{fill:url(#SVGID_5_);}
	.st5{fill:url(#SVGID_6_);}
	.st6{fill:url(#SVGID_7_);}
	.st7{fill:url(#SVGID_8_);}
	.st8{fill:url(#SVGID_9_);}
	.st9{fill:url(#SVGID_10_);}
	.st10{fill:url(#SVGID_11_);}
	.st11{fill:url(#SVGID_12_);}
	.st12{fill:url(#SVGID_13_);}
	.st13{fill:url(#SVGID_14_);}
	.st14{fill:url(#SVGID_15_);}
	.st15{fill:url(#SVGID_16_);}
</style>
<g>
	
		<image style="overflow:visible;opacity:0.75;" width="281" height="226" xlink:href="9FEFDACD46BBACF6.png"  transform="matrix(1 0 0 1 1.5458 26.8395)">
	</image>
	<g>
		<g>
			<linearGradient id="SVGID_1_" gradientUnits="userSpaceOnUse" x1="264.5183" y1="219.0423" x2="4.5184" y2="12.5423">
				<stop  offset="0" style="stop-color:#FAD100"/>
				<stop  offset="1" style="stop-color:#FDE600"/>
			</linearGradient>
			<path class="st0" d="M175.2,119.3c-0.9,0.9-1.8,2.5-2.7,2.5c-22.3,0.1-44.7,0.1-67.3,0.1c-0.1-1.4-0.1-2.6-0.2-3.9
				c23.3,0,46.3,0,69.3,0C174.6,118.4,174.9,118.8,175.2,119.3z"/>
			<linearGradient id="SVGID_2_" gradientUnits="userSpaceOnUse" x1="239.166" y1="250.963" x2="-20.834" y2="44.463">
				<stop  offset="0" style="stop-color:#FAD100"/>
				<stop  offset="1" style="stop-color:#FDE600"/>
			</linearGradient>
			<path class="st1" d="M70.3,135.6c17.2,0,34.2,0,51.5,0c0,1.3,0,2.4,0,3.8c-10,0-19.9,0-29.7,0c-6.4,0-12.9-0.1-19.3,0.1
				C69.8,139.6,69.5,138.3,70.3,135.6z"/>
			<linearGradient id="SVGID_3_" gradientUnits="userSpaceOnUse" x1="256.0707" y1="229.6786" x2="-3.9293" y2="23.1786">
				<stop  offset="0" style="stop-color:#FAD100"/>
				<stop  offset="1" style="stop-color:#FDE600"/>
			</linearGradient>
			<path class="st2" d="M91,82.8c1.1,3,0.2,4.6-2.5,5.8c-4.6,2.1-9,4.5-14.4,7.1c5.2,2.6,9.6,5,14.2,7.1c2.5,1.1,3.8,2.5,2.6,5.8
				c-6.7-3.4-13.4-6.6-20-10.1c-2-1.1-1.8-4.7,0.2-5.8C77.8,89.3,84.4,86.1,91,82.8z"/>
			<linearGradient id="SVGID_4_" gradientUnits="userSpaceOnUse" x1="274.6419" y1="206.2959" x2="14.6419" y2="-0.2041">
				<stop  offset="0" style="stop-color:#FAD100"/>
				<stop  offset="1" style="stop-color:#FDE600"/>
			</linearGradient>
			<path class="st3" d="M131.9,82.9c6.5,3.2,12.9,6.4,19.3,9.7c2.5,1.3,2.4,5-0.1,6.3c-6.4,3.3-12.9,6.5-19.4,9.7
				c-1.2-3-0.2-4.5,2.4-5.7c4.6-2.1,9-4.4,13.6-6.7c-4.8-5.5-14.1-4.5-16.8-12C131.2,83.7,131.5,83.3,131.9,82.9z"/>
			<linearGradient id="SVGID_5_" gradientUnits="userSpaceOnUse" x1="260.9556" y1="223.5281" x2="0.9556" y2="17.0281">
				<stop  offset="0" style="stop-color:#FAD100"/>
				<stop  offset="1" style="stop-color:#FDE600"/>
			</linearGradient>
			<path class="st4" d="M174.4,139.3c-14.4,0-28.6,0-42.9,0c0-1.2,0-2.3,0-3.8c6.4,0,12.7,0,18.9,0c7.1,0,14.2,0.1,21.4,0
				C174.5,135.4,175.2,136.4,174.4,139.3z"/>
			<linearGradient id="SVGID_6_" gradientUnits="userSpaceOnUse" x1="242.8404" y1="246.3365" x2="-17.1596" y2="39.8365">
				<stop  offset="0" style="stop-color:#FAD100"/>
				<stop  offset="1" style="stop-color:#FDE600"/>
			</linearGradient>
			<path class="st5" d="M96.1,119c-0.9,1-1.8,2.7-2.7,2.7c-7.1,0.3-14.2,0.2-21.3,0.1c-0.8,0-1.5-1.4-2.2-2.1
				c0.7-0.6,1.4-1.8,2.1-1.8c7.8-0.1,15.5-0.1,23.3-0.1C95.5,118.2,95.8,118.6,96.1,119z"/>
			<linearGradient id="SVGID_7_" gradientUnits="userSpaceOnUse" x1="286.656" y1="191.1692" x2="26.656" y2="-15.3308">
				<stop  offset="0" style="stop-color:#FAD100"/>
				<stop  offset="1" style="stop-color:#FDE600"/>
			</linearGradient>
			<path class="st6" d="M209.6,118c0.8,2.4,0.6,3.9-2.3,3.9c-7.5,0-15.1,0-23,0c-0.1-1.3-0.2-2.4-0.4-3.8
				C192.7,118,201.2,118,209.6,118z"/>
			<linearGradient id="SVGID_8_" gradientUnits="userSpaceOnUse" x1="266.3211" y1="216.7724" x2="6.3211" y2="10.2724">
				<stop  offset="0" style="stop-color:#FAD100"/>
				<stop  offset="1" style="stop-color:#FDE600"/>
			</linearGradient>
			<path class="st7" d="M125.9,93.9c0.9,2.4,0.6,3.8-2.3,3.7c-6.7-0.1-13.4-0.1-20.2,0c-2.8,0-3.2-1.2-2.5-3.8
				C109.3,93.9,117.6,93.9,125.9,93.9z"/>
			<g>
				<g>
					<linearGradient id="SVGID_9_" gradientUnits="userSpaceOnUse" x1="258.3624" y1="226.7931" x2="-1.6376" y2="20.2931">
						<stop  offset="0" style="stop-color:#FAD100"/>
						<stop  offset="1" style="stop-color:#FDE600"/>
					</linearGradient>
					<path class="st8" d="M13.1,183.2V45c0-3.8,3.5-6.9,7.8-6.9h191c4.3,0,7.8,3.1,7.8,6.9v89.3l4.1-0.2V45
						c0-5.8-5.4-10.6-11.9-10.6H21C14.4,34.4,9,39.2,9,45v138.2c0,5.8,5.4,10.6,11.9,10.6h142.1v-3.6H21
						C16.6,190.1,13.1,187,13.1,183.2z"/>
				</g>
				<g>
					<linearGradient id="SVGID_10_" gradientUnits="userSpaceOnUse" x1="283.254" y1="195.4526" x2="23.254" y2="-11.0474">
						<stop  offset="0" style="stop-color:#FAD100"/>
						<stop  offset="1" style="stop-color:#FDE600"/>
					</linearGradient>
					<rect x="11.1" y="61.2" class="st9" width="210.8" height="3.6"/>
				</g>
				<g>
					<linearGradient id="SVGID_11_" gradientUnits="userSpaceOnUse" x1="227.1696" y1="266.0673" x2="-32.8304" y2="59.5673">
						<stop  offset="0" style="stop-color:#FAD100"/>
						<stop  offset="1" style="stop-color:#FDE600"/>
					</linearGradient>
					<rect x="50.6" y="63" class="st10" width="4.1" height="128.9"/>
				</g>
			</g>
			<linearGradient id="SVGID_12_" gradientUnits="userSpaceOnUse" x1="260.8824" y1="223.6202" x2="0.8824" y2="17.1202">
				<stop  offset="0" style="stop-color:#FAD100"/>
				<stop  offset="1" style="stop-color:#FDE600"/>
			</linearGradient>
			<path class="st11" d="M221,173.4c9.8,0,17.6,8.5,17.6,18.5s-7.8,18.5-17.6,18.5c-9.7,0-17.6-8.5-17.6-18.5S211.3,173.4,221,173.4
				z M221,206.9c7.6,0,13.9-6.7,13.9-14.9c0-8.2-6.4-15-13.9-15c-7.6,0-13.9,6.7-13.9,15C207.1,200.2,213.5,206.9,221,206.9z"/>
			<linearGradient id="SVGID_13_" gradientUnits="userSpaceOnUse" x1="260.8859" y1="223.6158" x2="0.8859" y2="17.1158">
				<stop  offset="0" style="stop-color:#FAD100"/>
				<stop  offset="1" style="stop-color:#FDE600"/>
			</linearGradient>
			<path class="st12" d="M221,145.5c2.6,0,5.3,0.3,7.9,0.7v7.1v2.6l2.5,0.7c2.5,0.8,4.9,1.7,7.2,3l2.3,1.2l1.8-1.8l5-5
				c4.3,3,8.2,6.9,11.2,11.2l-5,5l-1.8,1.8l1.2,2.3c1.2,2.3,2.3,4.7,3,7.2l0.7,2.5h2.6h7.1c0.4,2.6,0.7,5.3,0.7,7.9
				s-0.3,5.3-0.7,7.9h-7H257l-0.7,2.5c-0.8,2.5-1.7,4.9-3,7.2l-1.2,2.3l1.8,1.8l5,5c-3,4.3-6.9,8.2-11.2,11.2l-5-5l-1.8-1.8
				l-2.3,1.2c-2.3,1.2-4.7,2.3-7.2,3l-2.5,0.7v2.6v7.1c-2.6,0.4-5.3,0.7-7.9,0.7c-2.6,0-5.3-0.3-7.9-0.7v-7.1v-2.6l-2.5-0.7
				c-2.5-0.8-4.9-1.7-7.2-3l-2.3-1.2l-1.8,1.8l-5,5c-4.3-3-8.2-6.9-11.2-11.2l5-5l1.8-1.8l-1.2-2.3c-1.2-2.3-2.3-4.7-3-7.2l-0.7-2.5
				h-2.6h-7.1c-0.6-2.5-0.9-5.2-0.9-7.8c0-2.6,0.3-5.3,0.7-7.9h7.1h2.6l0.7-2.5c0.8-2.5,1.7-4.9,3-7.2l1.2-2.3l-1.8-1.8l-5-5
				c3-4.3,6.9-8.2,11.2-11.2l5,5l1.8,1.8l2.3-1.2c2.3-1.2,4.7-2.3,7.2-3l2.5-0.7v-2.6v-7.1C215.7,145.7,218.4,145.5,221,145.5
				 M221,142c-3.9,0-7.7,0.4-11.4,1.3v9.9c-2.8,0.8-5.4,1.9-7.9,3.3l-7-7c-6.5,4.1-12.1,9.6-16.1,16.1l7,7c-1.4,2.5-2.4,5.1-3.3,7.9
				h-9.9c-0.9,3.6-1.3,7.5-1.3,11.4c0,3.9,0.4,7.7,1.3,11.4h10c0.8,2.8,1.9,5.4,3.3,7.9l-7,7c4.1,6.5,9.6,12.1,16.1,16.1l7-7
				c2.5,1.4,5.1,2.4,7.9,3.3v9.9c3.6,0.9,7.5,1.3,11.4,1.3s7.7-0.4,11.4-1.3v-9.9c2.8-0.8,5.4-1.9,7.9-3.3l7,7
				c6.5-4.1,12.1-9.6,16.1-16.1l-7-7c1.4-2.5,2.4-5.1,3.3-7.9h9.9c0.9-3.6,1.3-7.5,1.3-11.4c0-3.9-0.4-7.7-1.3-11.4h-10.1
				c-0.8-2.8-1.9-5.4-3.3-7.9l7-7c-4.1-6.5-9.6-12.1-16.1-16.1l-7,7c-2.5-1.4-5.1-2.4-7.9-3.3v-9.9C228.7,142.4,224.9,142,221,142
				L221,142z"/>
			<linearGradient id="SVGID_14_" gradientUnits="userSpaceOnUse" x1="324.6113" y1="143.3805" x2="64.6113" y2="-63.1195">
				<stop  offset="0" style="stop-color:#FAD100"/>
				<stop  offset="1" style="stop-color:#FDE600"/>
			</linearGradient>
			<path class="st13" d="M206.5,57.5c-4.4,0-7.9-3.5-7.9-7.9s3.5-7.9,7.9-7.9c4.4,0,7.9,3.5,7.9,7.9S210.9,57.5,206.5,57.5z
				 M206.5,44.2c-3,0-5.4,2.4-5.4,5.4s2.4,5.4,5.4,5.4s5.4-2.4,5.4-5.4S209.5,44.2,206.5,44.2z"/>
			<linearGradient id="SVGID_15_" gradientUnits="userSpaceOnUse" x1="316.8066" y1="153.2072" x2="56.8066" y2="-53.2928">
				<stop  offset="0" style="stop-color:#FAD100"/>
				<stop  offset="1" style="stop-color:#FDE600"/>
			</linearGradient>
			<path class="st14" d="M186.3,57.5c-4.4,0-7.9-3.5-7.9-7.9s3.5-7.9,7.9-7.9s7.9,3.5,7.9,7.9S190.7,57.5,186.3,57.5z M186.3,44.2
				c-3,0-5.4,2.4-5.4,5.4s2.4,5.4,5.4,5.4s5.4-2.4,5.4-5.4S189.3,44.2,186.3,44.2z"/>
			<linearGradient id="SVGID_16_" gradientUnits="userSpaceOnUse" x1="309.0842" y1="162.9303" x2="49.0842" y2="-43.5697">
				<stop  offset="0" style="stop-color:#FAD100"/>
				<stop  offset="1" style="stop-color:#FDE600"/>
			</linearGradient>
			<path class="st15" d="M166.4,57.5c-4.4,0-7.9-3.5-7.9-7.9s3.5-7.9,7.9-7.9c4.4,0,7.9,3.5,7.9,7.9S170.7,57.5,166.4,57.5z
				 M166.4,44.2c-3,0-5.4,2.4-5.4,5.4s2.4,5.4,5.4,5.4s5.4-2.4,5.4-5.4S169.4,44.2,166.4,44.2z"/>
		</g>
	</g>
</g>
</svg>
