<?xml version="1.0" encoding="utf-8"?>
<!-- Generator: Adobe Illustrator 19.1.0, SVG Export Plug-In . SVG Version: 6.00 Build 0)  -->
<svg version="1.1" id="Layer_1" xmlns="http://www.w3.org/2000/svg" xmlns:xlink="http://www.w3.org/1999/xlink" x="0px" y="0px"
	 viewBox="0 0 280 260" style="enable-background:new 0 0 280 260;" xml:space="preserve">
<style type="text/css">
	.st0{fill:url(#SVGID_1_);}
	.st1{fill:url(#SVGID_2_);}
	.st2{fill:url(#SVGID_3_);}
	.st3{fill:url(#SVGID_4_);}
	.st4{fill:url(#SVGID_5_);}
	.st5{fill:url(#SVGID_6_);}
	.st6{fill:url(#SVGID_7_);}
	.st7{fill:url(#SVGID_8_);}
	.st8{fill:url(#SVGID_9_);}
	.st9{fill:url(#SVGID_10_);}
	.st10{fill:url(#SVGID_11_);}
	.st11{fill:url(#SVGID_12_);}
	.st12{fill:url(#SVGID_13_);}
	.st13{fill:url(#SVGID_14_);}
	.st14{fill:url(#SVGID_15_);}
	.st15{fill:url(#SVGID_16_);}
	.st16{fill:url(#SVGID_17_);}
	.st17{fill:url(#SVGID_18_);}
	.st18{fill:url(#SVGID_19_);}
	.st19{fill:url(#SVGID_20_);}
	.st20{fill:url(#SVGID_21_);}
	.st21{fill:url(#SVGID_22_);}
	.st22{fill:url(#SVGID_23_);}
</style>
<g>
	
		<image style="overflow:visible;opacity:0.75;" width="272" height="210" xlink:href="A10B4811A3789E35.png"  transform="matrix(1 0 0 1 6 27)">
	</image>
	<g>
		<g>
			<linearGradient id="SVGID_1_" gradientUnits="userSpaceOnUse" x1="-21.1028" y1="162.9812" x2="241.9061" y2="-29.1109">
				<stop  offset="0" style="stop-color:#0091E7"/>
				<stop  offset="1" style="stop-color:#09B7E4"/>
			</linearGradient>
			<path class="st0" d="M82.2,106.8H33.3c-0.8,0-1.4-0.6-1.4-1.4c0-0.8,0.6-1.4,1.4-1.4h48.9c0.8,0,1.4,0.6,1.4,1.4
				C83.6,106.2,83,106.8,82.2,106.8z"/>
			<linearGradient id="SVGID_2_" gradientUnits="userSpaceOnUse" x1="46.6614" y1="255.7627" x2="309.6703" y2="63.6706">
				<stop  offset="0" style="stop-color:#0091E7"/>
				<stop  offset="1" style="stop-color:#09B7E4"/>
			</linearGradient>
			<path class="st1" d="M215.3,142.9h-24.5c-0.8,0-1.4-0.6-1.4-1.4c0-0.8,0.6-1.4,1.4-1.4h24.5c0.8,0,1.4,0.6,1.4,1.4
				C216.7,142.3,216.1,142.9,215.3,142.9z"/>
			<linearGradient id="SVGID_3_" gradientUnits="userSpaceOnUse" x1="11.6919" y1="207.8831" x2="274.7008" y2="15.791">
				<stop  offset="0" style="stop-color:#0091E7"/>
				<stop  offset="1" style="stop-color:#09B7E4"/>
			</linearGradient>
			<path class="st2" d="M82.2,175.6H33.3c-0.8,0-1.4-0.6-1.4-1.4c0-0.8,0.6-1.4,1.4-1.4h48.9c0.8,0,1.4,0.6,1.4,1.4
				C83.6,175,83,175.6,82.2,175.6z"/>
			<linearGradient id="SVGID_4_" gradientUnits="userSpaceOnUse" x1="30.2004" y1="233.2246" x2="293.2093" y2="41.1325">
				<stop  offset="0" style="stop-color:#0091E7"/>
				<stop  offset="1" style="stop-color:#09B7E4"/>
			</linearGradient>
			<path class="st3" d="M212.5,131.4h-18.9c-2.3,0-4.2-1.9-4.2-4.2V86.8c0-2.3,1.9-4.2,4.2-4.2h18.9c2.3,0,4.2,1.9,4.2,4.2v40.4
				C216.7,129.5,214.8,131.4,212.5,131.4z M193.6,85.4c-0.8,0-1.4,0.6-1.4,1.4v40.4c0,0.8,0.6,1.4,1.4,1.4h18.9
				c0.8,0,1.4-0.6,1.4-1.4V86.8c0-0.8-0.6-1.4-1.4-1.4H193.6z"/>
			<linearGradient id="SVGID_5_" gradientUnits="userSpaceOnUse" x1="14.359" y1="211.5348" x2="277.3679" y2="19.4427">
				<stop  offset="0" style="stop-color:#0091E7"/>
				<stop  offset="1" style="stop-color:#09B7E4"/>
			</linearGradient>
			<path class="st4" d="M120.3,142.9h-20.1c-0.8,0-1.4-0.6-1.4-1.4c0-0.8,0.6-1.4,1.4-1.4h20.1c0.8,0,1.4,0.6,1.4,1.4
				C121.7,142.3,121,142.9,120.3,142.9z"/>
			<linearGradient id="SVGID_6_" gradientUnits="userSpaceOnUse" x1="50.2802" y1="260.7175" x2="313.2891" y2="68.6254">
				<stop  offset="0" style="stop-color:#0091E7"/>
				<stop  offset="1" style="stop-color:#09B7E4"/>
			</linearGradient>
			<path class="st5" d="M215.3,150.5h-24.5c-0.8,0-1.4-0.6-1.4-1.4c0-0.8,0.6-1.4,1.4-1.4h24.5c0.8,0,1.4,0.6,1.4,1.4
				C216.7,149.9,216.1,150.5,215.3,150.5z"/>
			<linearGradient id="SVGID_7_" gradientUnits="userSpaceOnUse" x1="15.3102" y1="212.8373" x2="278.3192" y2="20.7452">
				<stop  offset="0" style="stop-color:#0091E7"/>
				<stop  offset="1" style="stop-color:#09B7E4"/>
			</linearGradient>
			<path class="st6" d="M82.2,183.2H33.3c-0.8,0-1.4-0.6-1.4-1.4s0.6-1.4,1.4-1.4h48.9c0.8,0,1.4,0.6,1.4,1.4S83,183.2,82.2,183.2z"
				/>
			<linearGradient id="SVGID_8_" gradientUnits="userSpaceOnUse" x1="17.9778" y1="216.4896" x2="280.9867" y2="24.3975">
				<stop  offset="0" style="stop-color:#0091E7"/>
				<stop  offset="1" style="stop-color:#09B7E4"/>
			</linearGradient>
			<path class="st7" d="M120.3,150.5h-20.1c-0.8,0-1.4-0.6-1.4-1.4c0-0.8,0.6-1.4,1.4-1.4h20.1c0.8,0,1.4,0.6,1.4,1.4
				C121.7,149.9,121,150.5,120.3,150.5z"/>
			<linearGradient id="SVGID_9_" gradientUnits="userSpaceOnUse" x1="-24.5332" y1="158.2844" x2="238.4757" y2="-33.8077">
				<stop  offset="0" style="stop-color:#0091E7"/>
				<stop  offset="1" style="stop-color:#09B7E4"/>
			</linearGradient>
			<path class="st8" d="M70,99.6H45.5c-0.8,0-1.4-0.6-1.4-1.4c0-0.8,0.6-1.4,1.4-1.4H70c0.8,0,1.4,0.6,1.4,1.4
				C71.4,99,70.7,99.6,70,99.6z"/>
			<g>
				<linearGradient id="SVGID_10_" gradientUnits="userSpaceOnUse" x1="-2.5746" y1="188.3497" x2="260.4344" y2="-3.7424">
					<stop  offset="0" style="stop-color:#0091E7"/>
					<stop  offset="1" style="stop-color:#09B7E4"/>
				</linearGradient>
				<path class="st9" d="M100.2,128.7h17.5c0.7,0,1.3-0.6,1.3-1.3V86.6c0-0.7-0.6-1.3-1.3-1.3H98.7v-2.6h18.9c2.1,0,3.9,1.7,3.9,3.9
					v40.8c0,2.1-1.7,3.9-3.9,3.9h-17.5C100.2,130.4,100.2,129.5,100.2,128.7z"/>
			</g>
			<linearGradient id="SVGID_11_" gradientUnits="userSpaceOnUse" x1="-4.7694" y1="185.3446" x2="258.2395" y2="-6.7475">
				<stop  offset="0" style="stop-color:#0091E7"/>
				<stop  offset="1" style="stop-color:#09B7E4"/>
			</linearGradient>
			<path class="st10" d="M79.4,164.1H36c-2.3,0-4.2-1.9-4.2-4.2v-40.4c0-2.3,1.9-4.2,4.2-4.2h43.4c2.3,0,4.2,1.9,4.2,4.2v40.4
				C83.6,162.2,81.7,164.1,79.4,164.1z M36,118.1c-0.8,0-1.4,0.6-1.4,1.4v40.4c0,0.8,0.6,1.4,1.4,1.4h43.4c0.8,0,1.4-0.6,1.4-1.4
				v-40.4c0-0.8-0.6-1.4-1.4-1.4H36z"/>
			<linearGradient id="SVGID_12_" gradientUnits="userSpaceOnUse" x1="-3.2474" y1="187.4286" x2="259.7616" y2="-4.6635">
				<stop  offset="0" style="stop-color:#0091E7"/>
				<stop  offset="1" style="stop-color:#09B7E4"/>
			</linearGradient>
			<path class="st11" d="M178.8,73.7h-48.9c-0.8,0-1.4-0.6-1.4-1.4c0-0.8,0.6-1.4,1.4-1.4h48.9c0.8,0,1.4,0.6,1.4,1.4
				C180.2,73.1,179.6,73.7,178.8,73.7z"/>
			<linearGradient id="SVGID_13_" gradientUnits="userSpaceOnUse" x1="29.5473" y1="232.3304" x2="292.5562" y2="40.2384">
				<stop  offset="0" style="stop-color:#0091E7"/>
				<stop  offset="1" style="stop-color:#09B7E4"/>
			</linearGradient>
			<path class="st12" d="M178.8,142.6h-48.9c-0.8,0-1.4-0.6-1.4-1.4c0-0.8,0.6-1.4,1.4-1.4h48.9c0.8,0,1.4,0.6,1.4,1.4
				C180.2,141.9,179.6,142.6,178.8,142.6z"/>
			<linearGradient id="SVGID_14_" gradientUnits="userSpaceOnUse" x1="33.1657" y1="237.2847" x2="296.1746" y2="45.1926">
				<stop  offset="0" style="stop-color:#0091E7"/>
				<stop  offset="1" style="stop-color:#09B7E4"/>
			</linearGradient>
			<path class="st13" d="M178.8,150.1h-48.9c-0.8,0-1.4-0.6-1.4-1.4c0-0.8,0.6-1.4,1.4-1.4h48.9c0.8,0,1.4,0.6,1.4,1.4
				C180.2,149.5,179.6,150.1,178.8,150.1z"/>
			<linearGradient id="SVGID_15_" gradientUnits="userSpaceOnUse" x1="-6.6777" y1="182.7318" x2="256.3312" y2="-9.3603">
				<stop  offset="0" style="stop-color:#0091E7"/>
				<stop  offset="1" style="stop-color:#09B7E4"/>
			</linearGradient>
			<path class="st14" d="M166.6,66.5h-24.5c-0.8,0-1.4-0.6-1.4-1.4c0-0.8,0.6-1.4,1.4-1.4h24.5c0.8,0,1.4,0.6,1.4,1.4
				C168,65.9,167.4,66.5,166.6,66.5z"/>
			<linearGradient id="SVGID_16_" gradientUnits="userSpaceOnUse" x1="13.0861" y1="209.792" x2="276.095" y2="17.6999">
				<stop  offset="0" style="stop-color:#0091E7"/>
				<stop  offset="1" style="stop-color:#09B7E4"/>
			</linearGradient>
			<path class="st15" d="M176.1,131h-43.4c-2.3,0-4.2-1.9-4.2-4.2V86.4c0-2.3,1.9-4.2,4.2-4.2h43.4c2.3,0,4.2,1.9,4.2,4.2v40.4
				C180.2,129.1,178.4,131,176.1,131z M132.7,85c-0.8,0-1.4,0.6-1.4,1.4v40.4c0,0.8,0.6,1.4,1.4,1.4h43.4c0.8,0,1.4-0.6,1.4-1.4
				V86.4c0-0.8-0.6-1.4-1.4-1.4H132.7z"/>
			<g>
				<linearGradient id="SVGID_17_" gradientUnits="userSpaceOnUse" x1="18.7646" y1="217.5669" x2="281.7735" y2="25.4748">
					<stop  offset="0" style="stop-color:#0091E7"/>
					<stop  offset="1" style="stop-color:#09B7E4"/>
				</linearGradient>
				<path class="st16" d="M253.8,38.8H53.3c-4.5,0-8.2,3.7-8.2,8.2v22.9h-4.3V47c0-6.9,5.6-12.5,12.5-12.5h200.5
					c6.9,0,12.5,5.6,12.5,12.5v144.3c0,6.9-5.6,12.5-12.5,12.5h-153l0.3-4.3h152.7c4.5,0,8.2-3.7,8.2-8.2V47
					C262,42.5,258.3,38.8,253.8,38.8z"/>
			</g>
			<g>
				<linearGradient id="SVGID_18_" gradientUnits="userSpaceOnUse" x1="14.9217" y1="212.3053" x2="277.9306" y2="20.2132">
					<stop  offset="0" style="stop-color:#0091E7"/>
					<stop  offset="1" style="stop-color:#09B7E4"/>
				</linearGradient>
				<path class="st17" d="M55.7,57.3v12.2h-3.9V57.3c0-7,5.1-12.8,11.3-12.8H244c6.2,0,11.3,5.7,11.3,12.8v113.3
					c0,1.2-0.9,2.2-1.9,2.2h0c-1.1,0-1.9-1-1.9-2.2V57.3c0-4.6-3.3-8.4-7.4-8.4H63.1C59,48.9,55.7,52.7,55.7,57.3z"/>
			</g>
			<g>
				<linearGradient id="SVGID_19_" gradientUnits="userSpaceOnUse" x1="64.6781" y1="280.4308" x2="327.687" y2="88.3388">
					<stop  offset="0" style="stop-color:#0091E7"/>
					<stop  offset="1" style="stop-color:#09B7E4"/>
				</linearGradient>
				<path class="st18" d="M125.4,207.7L125.4,207.7c1.3,0,2.1,1.4,1.4,2.5l-2.5,4.4c-1,1.8-0.6,3.3,0,4.3c1.2,2,3.9,3.4,6.8,3.4h44
					c2.9,0,5.5-1.2,6.7-3.2c0.6-0.9,1.1-2.4,0.2-4.1l-2.3-4.8c-0.5-1.1,0.3-2.4,1.5-2.4h0c0.6,0,1.2,0.4,1.5,0.9l2.3,4.8
					c1.2,2.4,1,5.1-0.4,7.3c-1.8,2.9-5.5,4.8-9.5,4.8h-44c-4.2,0-7.9-1.9-9.7-5c-1.4-2.4-1.4-5.2,0-7.6l2.5-4.4
					C124.3,208,124.8,207.7,125.4,207.7z"/>
			</g>
			<g>
				<linearGradient id="SVGID_20_" gradientUnits="userSpaceOnUse" x1="53.8792" y1="265.6452" x2="316.8882" y2="73.5531">
					<stop  offset="0" style="stop-color:#0091E7"/>
					<stop  offset="1" style="stop-color:#09B7E4"/>
				</linearGradient>
				<path class="st19" d="M111.7,171c0-1.2,1-2.2,2.2-2.2h139c1.3,0,2.4,1,2.4,2.2c0,1.2-1.1,2.2-2.4,2.2h-139
					C112.7,173.2,111.7,172.2,111.7,171L111.7,171z"/>
			</g>
			<linearGradient id="SVGID_21_" gradientUnits="userSpaceOnUse" x1="51.0024" y1="261.7064" x2="314.0114" y2="69.6143">
				<stop  offset="0" style="stop-color:#0091E7"/>
				<stop  offset="1" style="stop-color:#09B7E4"/>
			</linearGradient>
			<path class="st20" d="M153.5,197.1c-5.7,0-10.3-4.6-10.3-10.3c0-5.7,4.6-10.3,10.3-10.3s10.3,4.6,10.3,10.3
				C163.8,192.5,159.2,197.1,153.5,197.1z M153.5,179.3c-4.1,0-7.5,3.4-7.5,7.5c0,4.1,3.4,7.5,7.5,7.5s7.5-3.4,7.5-7.5
				C161,182.7,157.7,179.3,153.5,179.3z"/>
			<linearGradient id="SVGID_22_" gradientUnits="userSpaceOnUse" x1="27.9429" y1="230.1337" x2="290.9518" y2="38.0416">
				<stop  offset="0" style="stop-color:#0091E7"/>
				<stop  offset="1" style="stop-color:#09B7E4"/>
			</linearGradient>
			<path class="st21" d="M57.7,216c-4.2,0-7.6-3.4-7.6-7.6s3.4-7.6,7.6-7.6s7.6,3.4,7.6,7.6S61.9,216,57.7,216z M57.7,202.6
				c-3.2,0-5.8,2.6-5.8,5.8c0,3.2,2.6,5.8,5.8,5.8c3.2,0,5.8-2.6,5.8-5.8C63.5,205.2,60.9,202.6,57.7,202.6z"/>
			<linearGradient id="SVGID_23_" gradientUnits="userSpaceOnUse" x1="-0.2376" y1="191.5494" x2="262.7713" y2="-0.5427">
				<stop  offset="0" style="stop-color:#0091E7"/>
				<stop  offset="1" style="stop-color:#09B7E4"/>
			</linearGradient>
			<path class="st22" d="M13.7,149.4c0-20.2,0-40.4,0-60.6c0-8.4,6-14.6,14.4-14.7c19.6-0.1,39.3-0.1,58.9,0
				c8.7,0,14.7,6.1,14.7,14.8c-0.1,40.3-0.2,80.5-0.3,120.8c0,8.9-5.6,14.4-14.4,14.4c-19.5,0.1-39.1,0.1-58.6,0
				c-8.8,0-14.4-5.7-14.4-14.5c0-20.1,0-40.1,0-60.2C13.9,149.4,13.8,149.4,13.7,149.4z M97.5,192.1c0.1-1.3,0.2-2.4,0.2-3.6
				c0-32.3,0-64.7,0.1-97c0-2.6-0.6-3.6-3.4-3.6c-24.5,0.1-49,0.1-73.6,0c-2.2,0-3.1,0.5-3.1,2.9c0.1,33.2,0.1,66.4,0.1,99.6
				c0,0.4,0.1,0.8,0.2,1.6C44.6,192.1,70.9,192.1,97.5,192.1z M17.8,212.2c0.5,5.7,4.5,8.5,11.1,8.5c15.2,0,30.4,0,45.6,0
				c4.2,0,8.5,0.1,12.7,0c7.1-0.2,10.7-3.9,10.8-11c0.1-4.4,0-8.8,0-13.5c-26.9,0-53.4,0-80.3,0C17.7,201.6,17.3,206.9,17.8,212.2z
				 M91.2,78.2c-1.2-0.4-2.6-0.6-3.8-0.6c-19.7,0-39.4-0.1-59.2,0c-5.4,0-8.5,2.2-9.7,6.6c26.2,0,52.3,0,78.6,0
				C96.4,80.8,94.1,79.1,91.2,78.2z"/>
		</g>
	</g>
</g>
</svg>
