<?xml version="1.0" encoding="utf-8"?>
<!-- Generator: Adobe Illustrator 19.1.0, SVG Export Plug-In . SVG Version: 6.00 Build 0)  -->
<svg version="1.1" id="Layer_1" xmlns="http://www.w3.org/2000/svg" xmlns:xlink="http://www.w3.org/1999/xlink" x="0px" y="0px"
	 viewBox="0 0 280 211.8" style="enable-background:new 0 0 280 211.8;" xml:space="preserve">
<style type="text/css">
	.st0{fill:url(#SVGID_1_);}
	.st1{fill:url(#SVGID_2_);}
	.st2{fill:url(#SVGID_3_);}
	.st3{fill:url(#SVGID_4_);}
	.st4{fill:url(#SVGID_5_);}
	.st5{fill:url(#SVGID_6_);}
	.st6{fill:url(#SVGID_7_);}
	.st7{fill:url(#SVGID_8_);}
	.st8{fill:url(#SVGID_9_);}
	.st9{fill:url(#SVGID_10_);}
	.st10{fill:url(#SVGID_11_);}
	.st11{fill:url(#SVGID_12_);}
	.st12{fill:url(#SVGID_13_);}
	.st13{fill:url(#SVGID_14_);}
	.st14{fill:url(#SVGID_15_);}
	.st15{fill:url(#SVGID_16_);}
	.st16{fill:url(#SVGID_17_);}
	.st17{fill:url(#SVGID_18_);}
	.st18{fill:url(#SVGID_19_);}
	.st19{fill:url(#SVGID_20_);}
	.st20{fill:url(#SVGID_21_);}
	.st21{fill:url(#SVGID_22_);}
	.st22{fill:url(#SVGID_23_);}
</style>
<g>
	<g>
		<g>
			
				<linearGradient id="SVGID_1_" gradientUnits="userSpaceOnUse" x1="-38.5727" y1="70.975" x2="252.9653" y2="283.9037" gradientTransform="matrix(1 0 0 -1 0 213.4)">
				<stop  offset="0" style="stop-color:#0091E7"/>
				<stop  offset="1" style="stop-color:#09B7E4"/>
			</linearGradient>
			<path class="st0" d="M75.9,80.1H21.7c-0.9,0-1.6-0.7-1.6-1.6s0.7-1.6,1.6-1.6h54.2c0.9,0,1.6,0.7,1.6,1.6
				C77.5,79.5,76.8,80.1,75.9,80.1z"/>
			
				<linearGradient id="SVGID_2_" gradientUnits="userSpaceOnUse" x1="36.5145" y1="-31.833" x2="328.0525" y2="181.0957" gradientTransform="matrix(1 0 0 -1 0 213.4)">
				<stop  offset="0" style="stop-color:#0091E7"/>
				<stop  offset="1" style="stop-color:#09B7E4"/>
			</linearGradient>
			<path class="st1" d="M223.5,120.2h-27.2c-0.9,0-1.6-0.7-1.6-1.6c0-0.9,0.7-1.6,1.6-1.6h27.2c0.9,0,1.6,0.7,1.6,1.6
				C225,119.5,224.4,120.2,223.5,120.2z"/>
			
				<linearGradient id="SVGID_3_" gradientUnits="userSpaceOnUse" x1="-2.2491" y1="21.2415" x2="289.2889" y2="234.1702" gradientTransform="matrix(1 0 0 -1 0 213.4)">
				<stop  offset="0" style="stop-color:#0091E7"/>
				<stop  offset="1" style="stop-color:#09B7E4"/>
			</linearGradient>
			<path class="st2" d="M75.9,156.4H21.7c-0.9,0-1.6-0.7-1.6-1.6c0-0.9,0.7-1.6,1.6-1.6h54.2c0.9,0,1.6,0.7,1.6,1.6
				S76.8,156.4,75.9,156.4z"/>
			
				<linearGradient id="SVGID_4_" gradientUnits="userSpaceOnUse" x1="18.3" y1="-6.894" x2="309.8379" y2="206.0347" gradientTransform="matrix(1 0 0 -1 0 213.4)">
				<stop  offset="0" style="stop-color:#0091E7"/>
				<stop  offset="1" style="stop-color:#09B7E4"/>
			</linearGradient>
			<path class="st3" d="M220.4,107.4h-21c-2.5,0-4.7-2.1-4.7-4.7V58c0-2.5,2.1-4.7,4.7-4.7h21c2.5,0,4.7,2.1,4.7,4.7v44.8
				C225,105.3,222.9,107.4,220.4,107.4z M199.4,56.4c-0.9,0-1.6,0.7-1.6,1.6v44.8c0,0.9,0.7,1.6,1.6,1.6h21c0.9,0,1.6-0.7,1.6-1.6
				V58c0-0.9-0.7-1.6-1.6-1.6H199.4z"/>
			
				<linearGradient id="SVGID_5_" gradientUnits="userSpaceOnUse" x1="0.7225" y1="17.1729" x2="292.2604" y2="230.1016" gradientTransform="matrix(1 0 0 -1 0 213.4)">
				<stop  offset="0" style="stop-color:#0091E7"/>
				<stop  offset="1" style="stop-color:#09B7E4"/>
			</linearGradient>
			<path class="st4" d="M118.2,120.2H95.9c-0.9,0-1.6-0.7-1.6-1.6c0-0.9,0.7-1.6,1.6-1.6h22.3c0.9,0,1.6,0.7,1.6,1.6
				C119.7,119.5,118.9,120.2,118.2,120.2z"/>
			
				<linearGradient id="SVGID_6_" gradientUnits="userSpaceOnUse" x1="40.527" y1="-37.3269" x2="332.065" y2="175.6019" gradientTransform="matrix(1 0 0 -1 0 213.4)">
				<stop  offset="0" style="stop-color:#0091E7"/>
				<stop  offset="1" style="stop-color:#09B7E4"/>
			</linearGradient>
			<path class="st5" d="M223.5,128.6h-27.2c-0.9,0-1.6-0.7-1.6-1.6c0-0.9,0.7-1.6,1.6-1.6h27.2c0.9,0,1.6,0.7,1.6,1.6
				S224.4,128.6,223.5,128.6z"/>
			
				<linearGradient id="SVGID_7_" gradientUnits="userSpaceOnUse" x1="1.7633" y1="15.7476" x2="293.3014" y2="228.6763" gradientTransform="matrix(1 0 0 -1 0 213.4)">
				<stop  offset="0" style="stop-color:#0091E7"/>
				<stop  offset="1" style="stop-color:#09B7E4"/>
			</linearGradient>
			<path class="st6" d="M75.9,164.8H21.7c-0.9,0-1.6-0.7-1.6-1.6s0.7-1.6,1.6-1.6h54.2c0.9,0,1.6,0.7,1.6,1.6S76.8,164.8,75.9,164.8
				z"/>
			
				<linearGradient id="SVGID_8_" gradientUnits="userSpaceOnUse" x1="4.7349" y1="11.679" x2="296.2729" y2="224.6078" gradientTransform="matrix(1 0 0 -1 0 213.4)">
				<stop  offset="0" style="stop-color:#0091E7"/>
				<stop  offset="1" style="stop-color:#09B7E4"/>
			</linearGradient>
			<path class="st7" d="M118.2,128.6H95.9c-0.9,0-1.6-0.7-1.6-1.6c0-0.9,0.7-1.6,1.6-1.6h22.3c0.9,0,1.6,0.7,1.6,1.6
				C119.7,127.9,118.9,128.6,118.2,128.6z"/>
			
				<linearGradient id="SVGID_9_" gradientUnits="userSpaceOnUse" x1="-42.3822" y1="76.1909" x2="249.1557" y2="289.1197" gradientTransform="matrix(1 0 0 -1 0 213.4)">
				<stop  offset="0" style="stop-color:#0091E7"/>
				<stop  offset="1" style="stop-color:#09B7E4"/>
			</linearGradient>
			<path class="st8" d="M62.4,72.2H35.2c-0.9,0-1.6-0.7-1.6-1.6s0.7-1.6,1.6-1.6h27.2c0.9,0,1.6,0.7,1.6,1.6S63.2,72.2,62.4,72.2z"
				/>
			<g>
				
					<linearGradient id="SVGID_10_" gradientUnits="userSpaceOnUse" x1="-18.0484" y1="42.8735" x2="273.4897" y2="255.8022" gradientTransform="matrix(1 0 0 -1 0 213.4)">
					<stop  offset="0" style="stop-color:#0091E7"/>
					<stop  offset="1" style="stop-color:#09B7E4"/>
				</linearGradient>
				<path class="st9" d="M95.9,104.4h19.4c0.8,0,1.4-0.7,1.4-1.4V57.8c0-0.8-0.7-1.4-1.4-1.4H94.2v-2.9h21c2.3,0,4.3,1.9,4.3,4.3
					V103c0,2.3-1.9,4.3-4.3,4.3H95.8C95.9,106.3,95.9,105.3,95.9,104.4z"/>
			</g>
			
				<linearGradient id="SVGID_11_" gradientUnits="userSpaceOnUse" x1="-20.483" y1="46.2069" x2="271.055" y2="259.1356" gradientTransform="matrix(1 0 0 -1 0 213.4)">
				<stop  offset="0" style="stop-color:#0091E7"/>
				<stop  offset="1" style="stop-color:#09B7E4"/>
			</linearGradient>
			<path class="st10" d="M72.8,143.7H24.7c-2.5,0-4.7-2.1-4.7-4.7V94.2c0-2.5,2.1-4.7,4.7-4.7h48.1c2.5,0,4.7,2.1,4.7,4.7V139
				C77.5,141.6,75.4,143.7,72.8,143.7z M24.7,92.7c-0.9,0-1.6,0.7-1.6,1.6V139c0,0.9,0.7,1.6,1.6,1.6h48.1c0.9,0,1.6-0.7,1.6-1.6
				V94.2c0-0.9-0.7-1.6-1.6-1.6C72.8,92.7,24.7,92.7,24.7,92.7z"/>
			
				<linearGradient id="SVGID_12_" gradientUnits="userSpaceOnUse" x1="-18.7991" y1="43.9012" x2="272.739" y2="256.8299" gradientTransform="matrix(1 0 0 -1 0 213.4)">
				<stop  offset="0" style="stop-color:#0091E7"/>
				<stop  offset="1" style="stop-color:#09B7E4"/>
			</linearGradient>
			<path class="st11" d="M183,43.5h-54.2c-0.9,0-1.6-0.7-1.6-1.6s0.7-1.6,1.6-1.6H183c0.9,0,1.6,0.7,1.6,1.6
				C184.6,42.8,183.9,43.5,183,43.5z"/>
			
				<linearGradient id="SVGID_13_" gradientUnits="userSpaceOnUse" x1="17.5699" y1="-5.8944" x2="309.1079" y2="207.0342" gradientTransform="matrix(1 0 0 -1 0 213.4)">
				<stop  offset="0" style="stop-color:#0091E7"/>
				<stop  offset="1" style="stop-color:#09B7E4"/>
			</linearGradient>
			<path class="st12" d="M183,119.8h-54.2c-0.9,0-1.6-0.7-1.6-1.6c0-0.9,0.7-1.6,1.6-1.6H183c0.9,0,1.6,0.7,1.6,1.6
				C184.6,119,183.9,119.8,183,119.8z"/>
			
				<linearGradient id="SVGID_14_" gradientUnits="userSpaceOnUse" x1="21.537" y1="-11.3262" x2="313.075" y2="201.6026" gradientTransform="matrix(1 0 0 -1 0 213.4)">
				<stop  offset="0" style="stop-color:#0091E7"/>
				<stop  offset="1" style="stop-color:#09B7E4"/>
			</linearGradient>
			<path class="st13" d="M183,128.1h-54.2c-0.9,0-1.6-0.7-1.6-1.6c0-0.9,0.7-1.6,1.6-1.6H183c0.9,0,1.6,0.7,1.6,1.6
				C184.6,127.5,183.9,128.1,183,128.1z"/>
			
				<linearGradient id="SVGID_15_" gradientUnits="userSpaceOnUse" x1="-22.6003" y1="49.1059" x2="268.9377" y2="262.0346" gradientTransform="matrix(1 0 0 -1 0 213.4)">
				<stop  offset="0" style="stop-color:#0091E7"/>
				<stop  offset="1" style="stop-color:#09B7E4"/>
			</linearGradient>
			<path class="st14" d="M169.5,35.5h-27.2c-0.9,0-1.6-0.7-1.6-1.6c0-0.9,0.7-1.6,1.6-1.6h27.2c0.9,0,1.6,0.7,1.6,1.6
				C171,34.8,170.4,35.5,169.5,35.5z"/>
			
				<linearGradient id="SVGID_16_" gradientUnits="userSpaceOnUse" x1="-0.6762" y1="19.0878" x2="290.8618" y2="232.0165" gradientTransform="matrix(1 0 0 -1 0 213.4)">
				<stop  offset="0" style="stop-color:#0091E7"/>
				<stop  offset="1" style="stop-color:#09B7E4"/>
			</linearGradient>
			<path class="st15" d="M180,107h-48.1c-2.5,0-4.7-2.1-4.7-4.7V57.5c0-2.5,2.1-4.7,4.7-4.7H180c2.5,0,4.7,2.1,4.7,4.7v44.8
				C184.6,104.9,182.6,107,180,107z M131.9,56c-0.9,0-1.6,0.7-1.6,1.6v44.8c0,0.9,0.7,1.6,1.6,1.6H180c0.9,0,1.6-0.7,1.6-1.6V57.5
				c0-0.9-0.7-1.6-1.6-1.6H131.9z"/>
			<g>
				
					<linearGradient id="SVGID_17_" gradientUnits="userSpaceOnUse" x1="5.6274" y1="10.4571" x2="297.1654" y2="223.3858" gradientTransform="matrix(1 0 0 -1 0 213.4)">
					<stop  offset="0" style="stop-color:#0091E7"/>
					<stop  offset="1" style="stop-color:#09B7E4"/>
				</linearGradient>
				<path class="st16" d="M266.1,4.8H43.9c-5,0-9.1,4.1-9.1,9.1v25.4H30V13.9C30,6.2,36.2,0,43.9,0h222.2c7.6,0,13.9,6.2,13.9,13.9
					v160c0,7.6-6.2,13.9-13.9,13.9H96.5l0.3-4.8h169.3c5,0,9.1-4.1,9.1-9.1v-160C275.2,8.9,271.1,4.8,266.1,4.8z"/>
			</g>
			<g>
				
					<linearGradient id="SVGID_18_" gradientUnits="userSpaceOnUse" x1="1.363" y1="16.2958" x2="292.901" y2="229.2245" gradientTransform="matrix(1 0 0 -1 0 213.4)">
					<stop  offset="0" style="stop-color:#0091E7"/>
					<stop  offset="1" style="stop-color:#09B7E4"/>
				</linearGradient>
				<path class="st17" d="M46.6,25.3v13.5h-4.3V25.3c0-7.8,5.7-14.2,12.5-14.2h200.5c6.9,0,12.5,6.3,12.5,14.2v125.6
					c0,1.3-1,2.4-2.1,2.4l0,0c-1.2,0-2.1-1.1-2.1-2.4V25.3c0-5.1-3.7-9.3-8.2-9.3H54.8C50.2,16,46.6,20.2,46.6,25.3z"/>
			</g>
			<g>
				
					<linearGradient id="SVGID_19_" gradientUnits="userSpaceOnUse" x1="56.5045" y1="-59.2028" x2="348.0425" y2="153.7257" gradientTransform="matrix(1 0 0 -1 0 213.4)">
					<stop  offset="0" style="stop-color:#0091E7"/>
					<stop  offset="1" style="stop-color:#09B7E4"/>
				</linearGradient>
				<path class="st18" d="M123.8,192L123.8,192c1.4,0,2.3,1.6,1.6,2.8l-2.8,4.9c-1.1,2-0.7,3.7,0,4.8c1.3,2.2,4.3,3.8,7.5,3.8h48.8
					c3.2,0,6.1-1.3,7.4-3.5c0.7-1,1.2-2.7,0.2-4.5l-2.5-5.3c-0.6-1.2,0.3-2.7,1.7-2.7l0,0c0.7,0,1.3,0.4,1.7,1l2.5,5.3
					c1.3,2.7,1.1,5.7-0.4,8.1c-2,3.2-6.1,5.3-10.5,5.3h-48.8c-4.7,0-8.8-2.1-10.8-5.5c-1.6-2.7-1.6-5.8,0-8.4l2.8-4.9
					C122.6,192.3,123.2,192,123.8,192z"/>
			</g>
			<g>
				
					<linearGradient id="SVGID_20_" gradientUnits="userSpaceOnUse" x1="44.5346" y1="-42.814" x2="336.0727" y2="170.1147" gradientTransform="matrix(1 0 0 -1 0 213.4)">
					<stop  offset="0" style="stop-color:#0091E7"/>
					<stop  offset="1" style="stop-color:#09B7E4"/>
				</linearGradient>
				<path class="st19" d="M108.6,151.3c0-1.3,1.1-2.4,2.4-2.4h154.1c1.4,0,2.7,1.1,2.7,2.4c0,1.3-1.2,2.4-2.7,2.4H111.1
					C109.7,153.7,108.6,152.6,108.6,151.3L108.6,151.3z"/>
			</g>
			
				<linearGradient id="SVGID_21_" gradientUnits="userSpaceOnUse" x1="41.3244" y1="-38.4187" x2="332.8625" y2="174.51" gradientTransform="matrix(1 0 0 -1 0 213.4)">
				<stop  offset="0" style="stop-color:#0091E7"/>
				<stop  offset="1" style="stop-color:#09B7E4"/>
			</linearGradient>
			<path class="st20" d="M155,180.2c-6.3,0-11.4-5.1-11.4-11.4s5.1-11.4,11.4-11.4s11.4,5.1,11.4,11.4S161.3,180.2,155,180.2z
				 M155,160.5c-4.5,0-8.3,3.8-8.3,8.3s3.8,8.3,8.3,8.3s8.3-3.8,8.3-8.3S159.6,160.5,155,160.5z"/>
			
				<linearGradient id="SVGID_22_" gradientUnits="userSpaceOnUse" x1="15.7877" y1="-3.4543" x2="307.3257" y2="209.4744" gradientTransform="matrix(1 0 0 -1 0 213.4)">
				<stop  offset="0" style="stop-color:#0091E7"/>
				<stop  offset="1" style="stop-color:#09B7E4"/>
			</linearGradient>
			<path class="st21" d="M48.8,201.2c-4.7,0-8.4-3.8-8.4-8.4s3.8-8.4,8.4-8.4s8.4,3.8,8.4,8.4S53.4,201.2,48.8,201.2z M48.8,186.3
				c-3.5,0-6.4,2.9-6.4,6.4c0,3.5,2.9,6.4,6.4,6.4c3.5,0,6.4-2.9,6.4-6.4S52.3,186.3,48.8,186.3z"/>
			
				<linearGradient id="SVGID_23_" gradientUnits="userSpaceOnUse" x1="-15.4662" y1="39.3382" x2="276.0717" y2="252.2668" gradientTransform="matrix(1 0 0 -1 0 213.4)">
				<stop  offset="0" style="stop-color:#0091E7"/>
				<stop  offset="1" style="stop-color:#09B7E4"/>
			</linearGradient>
			<path class="st22" d="M0,127.4C0,105,0,82.6,0,60.2C0,50.9,6.7,44,16,43.9c21.7-0.1,43.6-0.1,65.3,0c9.6,0,16.3,6.8,16.3,16.4
				c-0.1,44.7-0.2,89.2-0.3,133.9c0,9.9-6.2,16-16,16c-21.6,0.1-43.3,0.1-65,0c-9.8,0-16-6.3-16-16.1c0-22.3,0-44.4,0-66.7
				C0.2,127.4,0.1,127.4,0,127.4z M92.9,174.7c0.1-1.4,0.2-2.7,0.2-4c0-35.8,0-71.7,0.1-107.5c0-2.9-0.7-4-3.8-4
				c-27.2,0.1-54.3,0.1-81.6,0c-2.4,0-3.4,0.6-3.4,3.2C4.5,99.2,4.5,136,4.5,172.8c0,0.4,0.1,0.9,0.2,1.8
				C34.3,174.7,63.4,174.7,92.9,174.7z M4.5,197c0.6,6.3,5,9.4,12.3,9.4c16.8,0,33.7,0,50.5,0c4.7,0,9.4,0.1,14.1,0
				c7.9-0.2,11.9-4.3,12-12.2c0.1-4.9,0-9.8,0-15c-29.8,0-59.2,0-89,0C4.4,185.2,4,191.1,4.5,197z M85.9,48.4
				c-1.3-0.4-2.9-0.7-4.2-0.7c-21.8,0-43.7-0.1-65.6,0c-6,0-9.4,2.4-10.8,7.3c29,0,58,0,87.1,0C91.7,51.3,89.1,49.4,85.9,48.4z"/>
		</g>
	</g>
</g>
</svg>
