<?xml version="1.0" encoding="utf-8"?>
<!-- Generator: Adobe Illustrator 19.1.0, SVG Export Plug-In . SVG Version: 6.00 Build 0)  -->
<svg version="1.1" id="Layer_1" xmlns="http://www.w3.org/2000/svg" xmlns:xlink="http://www.w3.org/1999/xlink" x="0px" y="0px"
	 viewBox="0 0 280 260" style="enable-background:new 0 0 280 260;" xml:space="preserve">
<style type="text/css">
	.st0{fill:url(#SVGID_1_);}
	.st1{fill:url(#SVGID_2_);}
	.st2{fill:url(#SVGID_3_);}
	.st3{fill:url(#SVGID_4_);}
	.st4{fill:url(#SVGID_5_);}
	.st5{fill:url(#SVGID_6_);}
	.st6{fill:url(#SVGID_7_);}
	.st7{fill:url(#SVGID_8_);}
	.st8{fill:url(#SVGID_9_);}
	.st9{fill:url(#SVGID_10_);}
	.st10{fill:url(#SVGID_11_);}
	.st11{fill:url(#SVGID_12_);}
	.st12{fill:url(#SVGID_13_);}
	.st13{fill:url(#SVGID_14_);}
	.st14{fill:url(#SVGID_15_);}
	.st15{fill:url(#SVGID_16_);}
	.st16{fill:url(#SVGID_17_);}
	.st17{fill:url(#SVGID_18_);}
	.st18{fill:url(#SVGID_19_);}
	.st19{fill:url(#SVGID_20_);}
	.st20{fill:url(#SVGID_21_);}
	.st21{fill:url(#SVGID_22_);}
	.st22{fill:url(#SVGID_23_);}
</style>
<g>
	
		<image style="overflow:visible;opacity:0.75;" width="242" height="210" xlink:href="31A9493D662EE2BC.png"  transform="matrix(1 0 0 1 21 27)">
	</image>
	<g>
		<g>
			<g>
				<linearGradient id="SVGID_1_" gradientUnits="userSpaceOnUse" x1="247.0841" y1="38.5106" x2="-45.721" y2="257.8029">
					<stop  offset="0" style="stop-color:#B0F416"/>
					<stop  offset="1" style="stop-color:#25EF25"/>
				</linearGradient>
				<path class="st0" d="M239.2,202.5H40.8c-6.8,0-12.4-5.6-12.4-12.4V47.3c0-6.8,5.6-12.4,12.4-12.4h198.4
					c6.8,0,12.4,5.6,12.4,12.4v142.8C251.6,196.9,246,202.5,239.2,202.5z M40.8,39.2c-4.5,0-8.1,3.6-8.1,8.1v142.8
					c0,4.5,3.6,8.1,8.1,8.1h198.4c4.5,0,8.1-3.6,8.1-8.1V47.3c0-4.5-3.6-8.1-8.1-8.1H40.8z"/>
			</g>
			<g>
				<linearGradient id="SVGID_2_" gradientUnits="userSpaceOnUse" x1="247.0841" y1="38.5106" x2="-45.721" y2="257.8029">
					<stop  offset="0" style="stop-color:#B0F416"/>
					<stop  offset="1" style="stop-color:#25EF25"/>
				</linearGradient>
				<path class="st1" d="M239.2,202.5H40.8c-6.8,0-12.4-5.6-12.4-12.4V47.3c0-6.8,5.6-12.4,12.4-12.4h198.4
					c6.8,0,12.4,5.6,12.4,12.4v142.8C251.6,196.9,246,202.5,239.2,202.5z M40.8,39.2c-4.5,0-8.1,3.6-8.1,8.1v142.8
					c0,4.5,3.6,8.1,8.1,8.1h198.4c4.5,0,8.1-3.6,8.1-8.1V47.3c0-4.5-3.6-8.1-8.1-8.1H40.8z"/>
			</g>
			<g>
				<linearGradient id="SVGID_3_" gradientUnits="userSpaceOnUse" x1="243.2149" y1="33.3442" x2="-49.5902" y2="252.6366">
					<stop  offset="0" style="stop-color:#B0F416"/>
					<stop  offset="1" style="stop-color:#25EF25"/>
				</linearGradient>
				<path class="st2" d="M229.5,44.9h-179c-6.2,0-11.2,5-11.2,11.1v98c0,1.1,0.9,1.9,1.9,1.9h0c1.1,0,1.9-0.9,1.9-1.9v-98
					c0-4,3.3-7.2,7.3-7.2h179c4,0,7.3,3.2,7.3,7.2v113.9c0,1.1,1,2,2.1,1.9l0,0c1-0.1,1.7-0.9,1.7-1.9V55.9
					C240.7,49.8,235.7,44.9,229.5,44.9z"/>
			</g>
			<g>
				<linearGradient id="SVGID_4_" gradientUnits="userSpaceOnUse" x1="274.6559" y1="75.3251" x2="-18.1492" y2="294.6174">
					<stop  offset="0" style="stop-color:#B0F416"/>
					<stop  offset="1" style="stop-color:#25EF25"/>
				</linearGradient>
				<path class="st3" d="M238.5,167.9l-180.6,0c-1.2,0-2.1,1-2.1,2.1v0c0,1.2,1,2.1,2.1,2.1h180.6c1.5,0,2.6-1.5,1.9-3
					C240.2,168.3,239.4,167.9,238.5,167.9z"/>
			</g>
			<g>
				<linearGradient id="SVGID_5_" gradientUnits="userSpaceOnUse" x1="247.7403" y1="39.3867" x2="-45.0648" y2="258.679">
					<stop  offset="0" style="stop-color:#B0F416"/>
					<stop  offset="1" style="stop-color:#25EF25"/>
				</linearGradient>
				<path class="st4" d="M229.7,121.5H50.3c-0.8,0-1.4-0.6-1.4-1.4c0-0.8,0.6-1.4,1.4-1.4h179.4c0.8,0,1.4,0.6,1.4,1.4
					C231.1,120.9,230.5,121.5,229.7,121.5z"/>
				<linearGradient id="SVGID_6_" gradientUnits="userSpaceOnUse" x1="218.8479" y1="0.8088" x2="-73.9572" y2="220.1011">
					<stop  offset="0" style="stop-color:#B0F416"/>
					<stop  offset="1" style="stop-color:#25EF25"/>
				</linearGradient>
				<path class="st5" d="M63.1,121.5c-0.8,0-1.4-0.6-1.4-1.4v-5.3c0-0.8,0.6-1.4,1.4-1.4s1.4,0.6,1.4,1.4v5.3
					C64.5,120.9,63.9,121.5,63.1,121.5z"/>
				<linearGradient id="SVGID_7_" gradientUnits="userSpaceOnUse" x1="274.1577" y1="74.66" x2="-18.6474" y2="293.9523">
					<stop  offset="0" style="stop-color:#B0F416"/>
					<stop  offset="1" style="stop-color:#25EF25"/>
				</linearGradient>
				<path class="st6" d="M217.1,121.5c-0.8,0-1.4-0.6-1.4-1.4v-5.3c0-0.8,0.6-1.4,1.4-1.4s1.4,0.6,1.4,1.4v5.3
					C218.5,120.9,217.8,121.5,217.1,121.5z"/>
				<linearGradient id="SVGID_8_" gradientUnits="userSpaceOnUse" x1="264.9521" y1="62.3684" x2="-27.8529" y2="281.6608">
					<stop  offset="0" style="stop-color:#B0F416"/>
					<stop  offset="1" style="stop-color:#25EF25"/>
				</linearGradient>
				<path class="st7" d="M191.4,121.5c-0.8,0-1.4-0.6-1.4-1.4v-5.3c0-0.8,0.6-1.4,1.4-1.4s1.4,0.6,1.4,1.4v5.3
					C192.9,120.9,192.2,121.5,191.4,121.5z"/>
				<linearGradient id="SVGID_9_" gradientUnits="userSpaceOnUse" x1="255.6954" y1="50.0086" x2="-37.1097" y2="269.3009">
					<stop  offset="0" style="stop-color:#B0F416"/>
					<stop  offset="1" style="stop-color:#25EF25"/>
				</linearGradient>
				<path class="st8" d="M165.7,121.5c-0.8,0-1.4-0.6-1.4-1.4v-5.3c0-0.8,0.6-1.4,1.4-1.4s1.4,0.6,1.4,1.4v5.3
					C167.1,120.9,166.5,121.5,165.7,121.5z"/>
				<linearGradient id="SVGID_10_" gradientUnits="userSpaceOnUse" x1="246.5028" y1="37.7344" x2="-46.3023" y2="257.0267">
					<stop  offset="0" style="stop-color:#B0F416"/>
					<stop  offset="1" style="stop-color:#25EF25"/>
				</linearGradient>
				<path class="st9" d="M140.1,121.5c-0.8,0-1.4-0.6-1.4-1.4v-5.3c0-0.8,0.6-1.4,1.4-1.4s1.4,0.6,1.4,1.4v5.3
					C141.5,120.9,140.9,121.5,140.1,121.5z"/>
				<linearGradient id="SVGID_11_" gradientUnits="userSpaceOnUse" x1="237.2844" y1="25.4258" x2="-55.5207" y2="244.7181">
					<stop  offset="0" style="stop-color:#B0F416"/>
					<stop  offset="1" style="stop-color:#25EF25"/>
				</linearGradient>
				<path class="st10" d="M114.5,121.5c-0.8,0-1.4-0.6-1.4-1.4v-5.3c0-0.8,0.6-1.4,1.4-1.4c0.8,0,1.4,0.6,1.4,1.4v5.3
					C115.9,120.9,115.2,121.5,114.5,121.5z"/>
				<linearGradient id="SVGID_12_" gradientUnits="userSpaceOnUse" x1="228.0661" y1="13.1172" x2="-64.739" y2="232.4095">
					<stop  offset="0" style="stop-color:#B0F416"/>
					<stop  offset="1" style="stop-color:#25EF25"/>
				</linearGradient>
				<path class="st11" d="M88.8,121.5c-0.8,0-1.4-0.6-1.4-1.4v-5.3c0-0.8,0.6-1.4,1.4-1.4s1.4,0.6,1.4,1.4v5.3
					C90.2,120.9,89.6,121.5,88.8,121.5z"/>
			</g>
			<linearGradient id="SVGID_13_" gradientUnits="userSpaceOnUse" x1="212.5197" y1="-7.6407" x2="-80.2854" y2="211.6516">
				<stop  offset="0" style="stop-color:#B0F416"/>
				<stop  offset="1" style="stop-color:#25EF25"/>
			</linearGradient>
			<path class="st12" d="M81.5,107.4H69.8c-2.3,0-4.2-1.9-4.2-4.2V86.5c0-2.3,1.9-4.2,4.2-4.2h11.8c2.3,0,4.2,1.9,4.2,4.2v16.7
				C85.7,105.5,83.9,107.4,81.5,107.4z M69.8,85.1c-0.8,0-1.4,0.6-1.4,1.4v16.7c0,0.8,0.6,1.4,1.4,1.4h11.8c0.8,0,1.4-0.6,1.4-1.4
				V86.5c0-0.8-0.6-1.4-1.4-1.4H69.8z"/>
			<linearGradient id="SVGID_14_" gradientUnits="userSpaceOnUse" x1="215.9406" y1="-3.0731" x2="-76.8645" y2="216.2192">
				<stop  offset="0" style="stop-color:#B0F416"/>
				<stop  offset="1" style="stop-color:#25EF25"/>
			</linearGradient>
			<path class="st13" d="M108.1,107.4H96.3c-2.3,0-4.2-1.9-4.2-4.2V61.1c0-2.3,1.9-4.2,4.2-4.2h11.8c2.3,0,4.2,1.9,4.2,4.2v42.2
				C112.3,105.5,110.4,107.4,108.1,107.4z M96.3,59.7c-0.8,0-1.4,0.6-1.4,1.4v42.2c0,0.8,0.6,1.4,1.4,1.4h11.8
				c0.8,0,1.4-0.6,1.4-1.4V61.1c0-0.8-0.6-1.4-1.4-1.4H96.3z"/>
			<linearGradient id="SVGID_15_" gradientUnits="userSpaceOnUse" x1="243.1347" y1="33.2371" x2="-49.6704" y2="252.5295">
				<stop  offset="0" style="stop-color:#B0F416"/>
				<stop  offset="1" style="stop-color:#25EF25"/>
			</linearGradient>
			<path class="st14" d="M183.7,107.4h-11.8c-2.3,0-4.2-1.9-4.2-4.2V61.1c0-2.3,1.9-4.2,4.2-4.2h11.8c2.3,0,4.2,1.9,4.2,4.2v42.2
				C187.9,105.5,186,107.4,183.7,107.4z M171.9,59.7c-0.8,0-1.4,0.6-1.4,1.4v42.2c0,0.8,0.6,1.4,1.4,1.4h11.8c0.8,0,1.4-0.6,1.4-1.4
				V61.1c0-0.8-0.6-1.4-1.4-1.4H171.9z"/>
			<linearGradient id="SVGID_16_" gradientUnits="userSpaceOnUse" x1="228.1941" y1="13.2881" x2="-64.611" y2="232.5804">
				<stop  offset="0" style="stop-color:#B0F416"/>
				<stop  offset="1" style="stop-color:#25EF25"/>
			</linearGradient>
			<path class="st15" d="M134.1,107.4h-11.8c-2.3,0-4.2-1.9-4.2-4.2V73.1c0-2.3,1.9-4.2,4.2-4.2h11.8c2.3,0,4.2,1.9,4.2,4.2v30.2
				C138.3,105.5,136.5,107.4,134.1,107.4z M122.4,71.7c-0.8,0-1.4,0.6-1.4,1.4v30.2c0,0.8,0.6,1.4,1.4,1.4h11.8
				c0.8,0,1.4-0.6,1.4-1.4V73.1c0-0.8-0.6-1.4-1.4-1.4H122.4z"/>
			<linearGradient id="SVGID_17_" gradientUnits="userSpaceOnUse" x1="255.5418" y1="49.8035" x2="-37.2633" y2="269.0958">
				<stop  offset="0" style="stop-color:#B0F416"/>
				<stop  offset="1" style="stop-color:#25EF25"/>
			</linearGradient>
			<path class="st16" d="M210.2,107.4h-11.8c-2.3,0-4.2-1.9-4.2-4.2V73.1c0-2.3,1.9-4.2,4.2-4.2h11.8c2.3,0,4.2,1.9,4.2,4.2v30.2
				C214.4,105.5,212.6,107.4,210.2,107.4z M198.5,71.7c-0.8,0-1.4,0.6-1.4,1.4v30.2c0,0.8,0.6,1.4,1.4,1.4h11.8
				c0.8,0,1.4-0.6,1.4-1.4V73.1c0-0.8-0.6-1.4-1.4-1.4H198.5z"/>
			<linearGradient id="SVGID_18_" gradientUnits="userSpaceOnUse" x1="242.6994" y1="32.656" x2="-50.1057" y2="251.9483">
				<stop  offset="0" style="stop-color:#B0F416"/>
				<stop  offset="1" style="stop-color:#25EF25"/>
			</linearGradient>
			<path class="st17" d="M158.1,107.4h-11.8c-2.3,0-4.2-1.9-4.2-4.2v-5.6c0-2.3,1.9-4.2,4.2-4.2h11.8c2.3,0,4.2,1.9,4.2,4.2v5.6
				C162.3,105.5,160.4,107.4,158.1,107.4z M146.3,96.3c-0.8,0-1.4,0.6-1.4,1.4v5.6c0,0.8,0.6,1.4,1.4,1.4h11.8
				c0.8,0,1.4-0.6,1.4-1.4v-5.6c0-0.8-0.6-1.4-1.4-1.4H146.3z"/>
			<linearGradient id="SVGID_19_" gradientUnits="userSpaceOnUse" x1="279.2154" y1="81.4131" x2="-13.5897" y2="300.7054">
				<stop  offset="0" style="stop-color:#B0F416"/>
				<stop  offset="1" style="stop-color:#25EF25"/>
			</linearGradient>
			<path class="st18" d="M140,195.9c-5.6,0-10.2-4.6-10.2-10.2s4.6-10.2,10.2-10.2s10.2,4.6,10.2,10.2S145.6,195.9,140,195.9z
				 M140,178.3c-4.1,0-7.4,3.3-7.4,7.4s3.3,7.4,7.4,7.4s7.4-3.3,7.4-7.4S144.1,178.3,140,178.3z"/>
			<g>
				<linearGradient id="SVGID_20_" gradientUnits="userSpaceOnUse" x1="254.6993" y1="48.6786" x2="-38.1058" y2="267.9709">
					<stop  offset="0" style="stop-color:#B0F416"/>
					<stop  offset="1" style="stop-color:#25EF25"/>
				</linearGradient>
				<path class="st19" d="M114.1,153.6c0.5-0.6,1.5-0.7,2.1-0.2c1.3,1.1,3.5,2.3,5.6,2.3c1.5,0,2.8-0.4,3.7-1.1
					c0.9-0.6,1.3-1.4,1.3-2.1c0-0.4-0.1-0.6-0.3-0.9c-0.2-0.3-0.4-0.6-0.9-0.9c-0.9-0.6-2.3-1.1-4-1.4h-0.1
					c-1.4-0.3-2.7-0.6-3.8-1.1c-1.1-0.5-2.1-1.3-2.7-2.3c-0.4-0.7-0.7-1.5-0.7-2.4c0-1.8,1-3.3,2.3-4.3c1.4-1,3.2-1.6,5.1-1.6
					c2.8,0,4.9,1.4,6.4,2.3c0.7,0.5,0.9,1.4,0.4,2.1c-0.4,0.7-1.4,0.9-2.1,0.4c-1.5-1-2.9-1.9-4.7-1.9c-1.3,0-2.5,0.4-3.3,1
					c-0.8,0.6-1.1,1.2-1.1,1.8c0,0.4,0.1,0.6,0.2,0.8c0.1,0.2,0.4,0.5,0.8,0.8c0.8,0.5,2.1,1,3.7,1.3h0.1c1.5,0.3,2.9,0.7,4.1,1.2
					c1.2,0.6,2.3,1.4,2.9,2.4c0.4,0.7,0.7,1.6,0.7,2.5c0,1.9-1.1,3.5-2.5,4.6c-1.4,1.1-3.3,1.7-5.4,1.7c-3.2,0-5.8-1.6-7.5-2.9
					C113.7,155.2,113.6,154.2,114.1,153.6z"/>
				<linearGradient id="SVGID_21_" gradientUnits="userSpaceOnUse" x1="261.6073" y1="57.9024" x2="-31.1978" y2="277.1947">
					<stop  offset="0" style="stop-color:#B0F416"/>
					<stop  offset="1" style="stop-color:#25EF25"/>
				</linearGradient>
				<path class="st20" d="M134.4,157.1v-17.3c0-0.9,0.7-1.6,1.6-1.6h0c0,0,0,0,0.1,0h9.5c0.9,0,1.6,0.7,1.6,1.6
					c0,0.9-0.8,1.6-1.6,1.6h-8v5.4h6.8c0.9,0,1.6,0.8,1.6,1.6c0,0.9-0.7,1.6-1.6,1.6h-6.8v5.4h8c0.9,0,1.6,0.7,1.6,1.6
					c0,0.9-0.8,1.6-1.6,1.6h-9.5c-0.1,0-0.1,0-0.1,0l0,0C135.1,158.7,134.4,158,134.4,157.1z"/>
				<linearGradient id="SVGID_22_" gradientUnits="userSpaceOnUse" x1="268.7005" y1="67.3734" x2="-24.1046" y2="286.6657">
					<stop  offset="0" style="stop-color:#B0F416"/>
					<stop  offset="1" style="stop-color:#25EF25"/>
				</linearGradient>
				<path class="st21" d="M168,140.7c1.8,1.9,3,4.5,3,7.4c0,2.9-1.1,5.5-3,7.4c-1.7,1.9-4.3,3.1-7,3.1c-2.8,0-5.4-1.2-7.2-3.1
					c-1.8-1.9-2.9-4.5-2.9-7.4c0-2.9,1.1-5.5,2.9-7.4c1.8-1.9,4.4-3.1,7.2-3.1C163.7,137.5,166.3,138.7,168,140.7z M167.6,148.1
					c0-2-0.8-3.8-2-5.1c-1.2-1.3-2.9-2.1-4.6-2.1c-1.9,0-3.5,0.8-4.8,2.1c-1.2,1.3-2,3.1-2,5.1c0,2,0.8,3.8,2,5.1
					c1.2,1.3,2.9,2.1,4.8,2.1c1.8,0,3.4-0.8,4.6-2.1C166.8,152,167.6,150.1,167.6,148.1z"/>
			</g>
			<g>
				<linearGradient id="SVGID_23_" gradientUnits="userSpaceOnUse" x1="293.4538" y1="100.4246" x2="0.6487" y2="319.7169">
					<stop  offset="0" style="stop-color:#B0F416"/>
					<stop  offset="1" style="stop-color:#25EF25"/>
				</linearGradient>
				<path class="st22" d="M167.4,207.5L167.4,207.5c-1.3,0-2,1.4-1.4,2.4l2.5,4.4c1,1.8,0.6,3.3,0,4.2c-1.2,2-3.8,3.3-6.7,3.3h-43.6
					c-2.9,0-5.4-1.2-6.6-3.2c-0.6-0.9-1.1-2.4-0.2-4.1l2.3-4.7c0.5-1.1-0.3-2.3-1.5-2.3h0c-0.6,0-1.2,0.4-1.5,0.9l-2.3,4.7
					c-1.2,2.4-1,5,0.4,7.3c1.8,2.9,5.4,4.7,9.4,4.7h43.6c4.1,0,7.8-1.9,9.6-5c1.4-2.4,1.4-5.1,0-7.5l-2.5-4.4
					C168.6,207.8,168,207.5,167.4,207.5z"/>
			</g>
		</g>
	</g>
</g>
</svg>
