<?xml version="1.0" encoding="utf-8"?>
<!-- Generator: Adobe Illustrator 19.1.0, SVG Export Plug-In . SVG Version: 6.00 Build 0)  -->
<svg version="1.1" id="Layer_1" xmlns="http://www.w3.org/2000/svg" xmlns:xlink="http://www.w3.org/1999/xlink" x="0px" y="0px"
	 viewBox="0 0 280 211.8" style="enable-background:new 0 0 280 211.8;" xml:space="preserve">
<style type="text/css">
	.st0{fill:url(#SVGID_1_);}
	.st1{fill:url(#SVGID_2_);}
	.st2{fill:url(#SVGID_3_);}
	.st3{fill:url(#SVGID_4_);}
	.st4{fill:url(#SVGID_5_);}
	.st5{fill:url(#SVGID_6_);}
	.st6{fill:url(#SVGID_7_);}
	.st7{fill:url(#SVGID_8_);}
	.st8{fill:url(#SVGID_9_);}
	.st9{fill:url(#SVGID_10_);}
	.st10{fill:url(#SVGID_11_);}
	.st11{fill:url(#SVGID_12_);}
	.st12{fill:url(#SVGID_13_);}
	.st13{fill:url(#SVGID_14_);}
	.st14{fill:url(#SVGID_15_);}
	.st15{fill:url(#SVGID_16_);}
	.st16{fill:url(#SVGID_17_);}
	.st17{fill:url(#SVGID_18_);}
	.st18{fill:url(#SVGID_19_);}
	.st19{fill:url(#SVGID_20_);}
	.st20{fill:url(#SVGID_21_);}
	.st21{fill:url(#SVGID_22_);}
	.st22{fill:url(#SVGID_23_);}
</style>
<g>
	<g>
		<g>
			<g>
				
					<linearGradient id="SVGID_1_" gradientUnits="userSpaceOnUse" x1="243.4246" y1="-22.1257" x2="-82.4712" y2="221.9494" gradientTransform="matrix(1 0 0 1 0 26.28)">
					<stop  offset="0" style="stop-color:#B0F416"/>
					<stop  offset="1" style="stop-color:#25EF25"/>
				</linearGradient>
				<path class="st0" d="M234.7,186.6H13.8c-7.5,0-13.8-6.2-13.8-13.8V14C0,6.4,6.2,0.2,13.8,0.2h220.9c7.5,0,13.8,6.2,13.8,13.7
					v158.8C248.5,180.4,242.3,186.6,234.7,186.6z M13.8,5c-5.1,0-9.1,4-9.1,9v158.8c0,5,4,9,9.1,9h220.9c5,0,9.1-4,9.1-9V14
					c0-5-4-9-9.1-9C234.7,5,13.8,5,13.8,5z"/>
			</g>
			<g>
				
					<linearGradient id="SVGID_2_" gradientUnits="userSpaceOnUse" x1="243.4246" y1="-22.1257" x2="-82.4712" y2="221.9494" gradientTransform="matrix(1 0 0 1 0 26.28)">
					<stop  offset="0" style="stop-color:#B0F416"/>
					<stop  offset="1" style="stop-color:#25EF25"/>
				</linearGradient>
				<path class="st1" d="M234.7,186.6H13.8c-7.5,0-13.8-6.2-13.8-13.8V14C0,6.4,6.2,0.2,13.8,0.2h220.9c7.5,0,13.8,6.2,13.8,13.7
					v158.8C248.5,180.4,242.3,186.6,234.7,186.6z M13.8,5c-5.1,0-9.1,4-9.1,9v158.8c0,5,4,9,9.1,9h220.9c5,0,9.1-4,9.1-9V14
					c0-5-4-9-9.1-9C234.7,5,13.8,5,13.8,5z"/>
			</g>
			<g>
				
					<linearGradient id="SVGID_3_" gradientUnits="userSpaceOnUse" x1="239.1285" y1="-27.8646" x2="-86.786" y2="216.2246" gradientTransform="matrix(1 0 0 1 0 26.28)">
					<stop  offset="0" style="stop-color:#B0F416"/>
					<stop  offset="1" style="stop-color:#25EF25"/>
				</linearGradient>
				<path class="st2" d="M223.9,11.3H24.6c-6.9,0-12.5,5.6-12.5,12.3v109c0,1.2,1,2.1,2.1,2.1l0,0c1.2,0,2.1-1,2.1-2.1V23.7
					c0-4.4,3.6-8,8.2-8h199.3c4.4,0,8.2,3.5,8.2,8v126.7c0,1.2,1.2,2.2,2.3,2.1l0,0c1.2-0.1,1.9-1,1.9-2.1V23.6
					C236.3,16.8,230.8,11.3,223.9,11.3z"/>
			</g>
			<g>
				
					<linearGradient id="SVGID_4_" gradientUnits="userSpaceOnUse" x1="274.1386" y1="18.7619" x2="-51.8535" y2="262.9091" gradientTransform="matrix(1 0 0 1 0 26.28)">
					<stop  offset="0" style="stop-color:#B0F416"/>
					<stop  offset="1" style="stop-color:#25EF25"/>
				</linearGradient>
				<path class="st3" d="M233.9,148.1H32.8c-1.3,0-2.3,1.2-2.3,2.3l0,0c0,1.3,1.2,2.3,2.3,2.3h201.1c1.7,0,2.9-1.7,2.1-3.4
					C235.8,148.6,234.9,148.1,233.9,148.1z"/>
			</g>
			<g>
				
					<linearGradient id="SVGID_5_" gradientUnits="userSpaceOnUse" x1="244.1933" y1="-21.1749" x2="-81.7997" y2="222.973" gradientTransform="matrix(1 0 0 1 0 26.28)">
					<stop  offset="0" style="stop-color:#B0F416"/>
					<stop  offset="1" style="stop-color:#25EF25"/>
				</linearGradient>
				<path class="st4" d="M224.1,96.5H24.4c-0.9,0-1.6-0.7-1.6-1.6s0.7-1.6,1.6-1.6h199.8c0.9,0,1.6,0.7,1.6,1.6
					C225.7,95.9,225,96.5,224.1,96.5z"/>
				
					<linearGradient id="SVGID_6_" gradientUnits="userSpaceOnUse" x1="211.9073" y1="-64.0653" x2="-113.8914" y2="179.9371" gradientTransform="matrix(1 0 0 1 0 26.28)">
					<stop  offset="0" style="stop-color:#B0F416"/>
					<stop  offset="1" style="stop-color:#25EF25"/>
				</linearGradient>
				<path class="st5" d="M38.6,96.5c-0.9,0-1.6-0.7-1.6-1.6v-5.9c0-0.9,0.7-1.6,1.6-1.6s1.6,0.7,1.6,1.6v5.9
					C40.2,95.9,39.5,96.5,38.6,96.5z"/>
				
					<linearGradient id="SVGID_7_" gradientUnits="userSpaceOnUse" x1="273.5821" y1="18.1467" x2="-52.2167" y2="262.149" gradientTransform="matrix(1 0 0 1 0 26.28)">
					<stop  offset="0" style="stop-color:#B0F416"/>
					<stop  offset="1" style="stop-color:#25EF25"/>
				</linearGradient>
				<path class="st6" d="M210.1,96.5c-0.9,0-1.6-0.7-1.6-1.6v-5.9c0-0.9,0.7-1.6,1.6-1.6s1.6,0.7,1.6,1.6v5.9
					C211.7,95.9,210.9,96.5,210.1,96.5z"/>
				
					<linearGradient id="SVGID_8_" gradientUnits="userSpaceOnUse" x1="263.3135" y1="4.4588" x2="-62.485" y2="248.4613" gradientTransform="matrix(1 0 0 1 0 26.28)">
					<stop  offset="0" style="stop-color:#B0F416"/>
					<stop  offset="1" style="stop-color:#25EF25"/>
				</linearGradient>
				<path class="st7" d="M181.5,96.5c-0.9,0-1.6-0.7-1.6-1.6v-5.9c0-0.9,0.7-1.6,1.6-1.6c0.9,0,1.6,0.7,1.6,1.6v5.9
					C183.2,95.9,182.4,96.5,181.5,96.5z"/>
				
					<linearGradient id="SVGID_9_" gradientUnits="userSpaceOnUse" x1="252.9963" y1="-9.2939" x2="-72.8024" y2="234.7084" gradientTransform="matrix(1 0 0 1 0 26.28)">
					<stop  offset="0" style="stop-color:#B0F416"/>
					<stop  offset="1" style="stop-color:#25EF25"/>
				</linearGradient>
				<path class="st8" d="M152.8,96.5c-0.9,0-1.6-0.7-1.6-1.6v-5.9c0-0.9,0.7-1.6,1.6-1.6s1.6,0.7,1.6,1.6v5.9
					C154.4,95.9,153.7,96.5,152.8,96.5z"/>
				
					<linearGradient id="SVGID_10_" gradientUnits="userSpaceOnUse" x1="242.748" y1="-22.9548" x2="-83.0507" y2="221.0475" gradientTransform="matrix(1 0 0 1 0 26.28)">
					<stop  offset="0" style="stop-color:#B0F416"/>
					<stop  offset="1" style="stop-color:#25EF25"/>
				</linearGradient>
				<path class="st9" d="M124.3,96.5c-0.9,0-1.6-0.7-1.6-1.6v-5.9c0-0.9,0.7-1.6,1.6-1.6c0.9,0,1.6,0.7,1.6,1.6v5.9
					C125.9,95.9,125.2,96.5,124.3,96.5z"/>
				
					<linearGradient id="SVGID_11_" gradientUnits="userSpaceOnUse" x1="232.493" y1="-36.6247" x2="-93.3057" y2="207.3777" gradientTransform="matrix(1 0 0 1 0 26.28)">
					<stop  offset="0" style="stop-color:#B0F416"/>
					<stop  offset="1" style="stop-color:#25EF25"/>
				</linearGradient>
				<path class="st10" d="M95.8,96.5c-0.9,0-1.6-0.7-1.6-1.6v-5.9c0-0.9,0.7-1.6,1.6-1.6c0.9,0,1.6,0.7,1.6,1.6v5.9
					C97.4,95.9,96.6,96.5,95.8,96.5z"/>
				
					<linearGradient id="SVGID_12_" gradientUnits="userSpaceOnUse" x1="222.2146" y1="-50.3257" x2="-103.5841" y2="193.6766" gradientTransform="matrix(1 0 0 1 0 26.28)">
					<stop  offset="0" style="stop-color:#B0F416"/>
					<stop  offset="1" style="stop-color:#25EF25"/>
				</linearGradient>
				<path class="st11" d="M67.3,96.5c-0.9,0-1.6-0.7-1.6-1.6v-5.9c0-0.9,0.7-1.6,1.6-1.6c0.9,0,1.6,0.7,1.6,1.6v5.9
					C68.8,95.9,68.2,96.5,67.3,96.5z"/>
			</g>
			
				<linearGradient id="SVGID_13_" gradientUnits="userSpaceOnUse" x1="204.9085" y1="-73.4775" x2="-120.9546" y2="170.5731" gradientTransform="matrix(1 0 0 1 0 26.28)">
				<stop  offset="0" style="stop-color:#B0F416"/>
				<stop  offset="1" style="stop-color:#25EF25"/>
			</linearGradient>
			<path class="st12" d="M59.1,80.8h-13c-2.6,0-4.7-2.1-4.7-4.7V57.6c0-2.6,2.1-4.7,4.7-4.7h13.1c2.6,0,4.7,2.1,4.7,4.7v18.5
				C63.8,78.8,61.8,80.8,59.1,80.8z M46.1,56.1c-0.9,0-1.6,0.7-1.6,1.6v18.5c0,0.9,0.7,1.6,1.6,1.6h13.1c0.9,0,1.6-0.7,1.6-1.6V57.6
				c0-0.9-0.7-1.6-1.6-1.6L46.1,56.1L46.1,56.1z"/>
			
				<linearGradient id="SVGID_14_" gradientUnits="userSpaceOnUse" x1="208.7587" y1="-68.3031" x2="-117.0513" y2="175.7076" gradientTransform="matrix(1 0 0 1 0 26.28)">
				<stop  offset="0" style="stop-color:#B0F416"/>
				<stop  offset="1" style="stop-color:#25EF25"/>
			</linearGradient>
			<path class="st13" d="M88.8,80.8H75.6c-2.6,0-4.7-2.1-4.7-4.7V29.4c0-2.6,2.1-4.7,4.7-4.7h13.1c2.6,0,4.7,2.1,4.7,4.7v46.9
				C93.5,78.8,91.3,80.8,88.8,80.8z M75.6,27.8c-0.9,0-1.6,0.7-1.6,1.6v46.9c0,0.9,0.7,1.6,1.6,1.6h13.1c0.9,0,1.6-0.7,1.6-1.6V29.4
				c0-0.9-0.7-1.6-1.6-1.6C88.8,27.8,75.6,27.8,75.6,27.8z"/>
			
				<linearGradient id="SVGID_15_" gradientUnits="userSpaceOnUse" x1="239.0229" y1="-27.9574" x2="-86.787" y2="216.0535" gradientTransform="matrix(1 0 0 1 0 26.28)">
				<stop  offset="0" style="stop-color:#B0F416"/>
				<stop  offset="1" style="stop-color:#25EF25"/>
			</linearGradient>
			<path class="st14" d="M172.9,80.8h-13.1c-2.6,0-4.7-2.1-4.7-4.7V29.4c0-2.6,2.1-4.7,4.7-4.7h13.1c2.6,0,4.7,2.1,4.7,4.7v46.9
				C177.6,78.8,175.5,80.8,172.9,80.8z M159.8,27.8c-0.9,0-1.6,0.7-1.6,1.6v46.9c0,0.9,0.7,1.6,1.6,1.6h13.1c0.9,0,1.6-0.7,1.6-1.6
				V29.4c0-0.9-0.7-1.6-1.6-1.6C172.9,27.8,159.8,27.8,159.8,27.8z"/>
			
				<linearGradient id="SVGID_16_" gradientUnits="userSpaceOnUse" x1="222.3713" y1="-50.1649" x2="-103.4581" y2="193.8604" gradientTransform="matrix(1 0 0 1 0 26.28)">
				<stop  offset="0" style="stop-color:#B0F416"/>
				<stop  offset="1" style="stop-color:#25EF25"/>
			</linearGradient>
			<path class="st15" d="M117.7,80.8h-13.1c-2.6,0-4.7-2.1-4.7-4.7V42.7c0-2.6,2.1-4.7,4.7-4.7h13.1c2.6,0,4.7,2.1,4.7,4.7v33.6
				C122.4,78.8,120.3,80.8,117.7,80.8z M104.6,41.2c-0.9,0-1.6,0.7-1.6,1.6v33.6c0,0.9,0.7,1.6,1.6,1.6h13.1c0.9,0,1.6-0.7,1.6-1.6
				V42.7c0-0.9-0.7-1.6-1.6-1.6L104.6,41.2L104.6,41.2z"/>
			
				<linearGradient id="SVGID_17_" gradientUnits="userSpaceOnUse" x1="252.8509" y1="-9.5252" x2="-72.9785" y2="234.5002" gradientTransform="matrix(1 0 0 1 0 26.28)">
				<stop  offset="0" style="stop-color:#B0F416"/>
				<stop  offset="1" style="stop-color:#25EF25"/>
			</linearGradient>
			<path class="st16" d="M202.4,80.8h-13.1c-2.6,0-4.7-2.1-4.7-4.7V42.7c0-2.6,2.1-4.7,4.7-4.7h13.1c2.6,0,4.7,2.1,4.7,4.7v33.6
				C207.1,78.8,205.1,80.8,202.4,80.8z M189.4,41.2c-0.9,0-1.6,0.7-1.6,1.6v33.6c0,0.9,0.7,1.6,1.6,1.6h13.1c0.9,0,1.6-0.7,1.6-1.6
				V42.7c0-0.9-0.7-1.6-1.6-1.6L189.4,41.2L189.4,41.2z"/>
			
				<linearGradient id="SVGID_18_" gradientUnits="userSpaceOnUse" x1="238.5278" y1="-28.6674" x2="-87.3824" y2="215.4185" gradientTransform="matrix(1 0 0 1 0 26.28)">
				<stop  offset="0" style="stop-color:#B0F416"/>
				<stop  offset="1" style="stop-color:#25EF25"/>
			</linearGradient>
			<path class="st17" d="M144.4,80.8h-13.1c-2.6,0-4.7-2.1-4.7-4.7v-6.2c0-2.6,2.1-4.7,4.7-4.7h13.1c2.6,0,4.7,2.1,4.7,4.7v6.2
				C149.1,78.8,147,80.8,144.4,80.8z M131.3,68.5c-0.9,0-1.6,0.7-1.6,1.6v6.2c0,0.9,0.7,1.6,1.6,1.6h13.1c0.9,0,1.6-0.7,1.6-1.6
				v-6.2c0-0.9-0.7-1.6-1.6-1.6H131.3z"/>
			
				<linearGradient id="SVGID_19_" gradientUnits="userSpaceOnUse" x1="279.2266" y1="25.6379" x2="-46.6673" y2="269.7116" gradientTransform="matrix(1 0 0 1 0 26.28)">
				<stop  offset="0" style="stop-color:#B0F416"/>
				<stop  offset="1" style="stop-color:#25EF25"/>
			</linearGradient>
			<path class="st18" d="M124.2,179.3c-6.2,0-11.4-5.1-11.4-11.4s5.1-11.4,11.4-11.4c6.2,0,11.4,5.1,11.4,11.4
				S130.5,179.3,124.2,179.3z M124.2,159.7c-4.5,0-8.3,3.6-8.3,8.2s3.6,8.2,8.3,8.2c4.6,0,8.3-3.6,8.3-8.2S128.8,159.7,124.2,159.7z
				"/>
			<g>
				
					<linearGradient id="SVGID_20_" gradientUnits="userSpaceOnUse" x1="251.8047" y1="-10.9211" x2="-74.0646" y2="233.1342" gradientTransform="matrix(1 0 0 1 0 26.28)">
					<stop  offset="0" style="stop-color:#B0F416"/>
					<stop  offset="1" style="stop-color:#25EF25"/>
				</linearGradient>
				<path class="st19" d="M95.4,132.3c0.5-0.7,1.7-0.8,2.3-0.3c1.4,1.2,3.9,2.6,6.2,2.6c1.7,0,3.1-0.4,4.1-1.2
					c1-0.7,1.4-1.6,1.4-2.3c0-0.4-0.1-0.7-0.4-1c-0.3-0.4-0.4-0.7-1-1c-1-0.7-2.6-1.2-4.4-1.6h-0.1c-1.6-0.4-3-0.7-4.3-1.2
					c-1.2-0.5-2.3-1.4-3-2.6c-0.4-0.8-0.8-1.7-0.8-2.7c0-2,1.2-3.6,2.6-4.8c1.6-1.2,3.6-1.8,5.7-1.8c3.1,0,5.4,1.6,7.1,2.6
					c0.8,0.5,1,1.6,0.4,2.3c-0.4,0.8-1.6,1-2.3,0.4c-1.7-1.2-3.2-2.1-5.2-2.1c-1.4,0-2.8,0.4-3.6,1.2c-0.9,0.7-1.2,1.3-1.2,2
					c0,0.4,0.1,0.7,0.3,0.9c0.1,0.3,0.4,0.5,0.9,0.9c0.9,0.5,2.3,1.2,4.1,1.4h0.1c1.7,0.4,3.2,0.8,4.5,1.3c1.3,0.7,2.6,1.6,3.2,2.7
					c0.4,0.8,0.8,1.8,0.8,2.7c0,2.1-1.2,3.9-2.8,5.1c-1.6,1.2-3.6,1.9-6,1.9c-3.5,0-6.5-1.8-8.3-3.2C95,134,94.9,132.9,95.4,132.3z"
					/>
				
					<linearGradient id="SVGID_21_" gradientUnits="userSpaceOnUse" x1="259.5946" y1="-0.5075" x2="-66.2471" y2="243.5271" gradientTransform="matrix(1 0 0 1 0 26.28)">
					<stop  offset="0" style="stop-color:#B0F416"/>
					<stop  offset="1" style="stop-color:#25EF25"/>
				</linearGradient>
				<path class="st20" d="M118,136.2v-19.2c0-1,0.8-1.8,1.8-1.8l0,0c0,0,0,0,0.1,0h10.6c1,0,1.8,0.8,1.8,1.8c0,1-0.9,1.8-1.8,1.8
					h-8.9v6h7.5c1,0,1.8,0.9,1.8,1.8c0,1-0.8,1.8-1.8,1.8h-7.5v6h8.9c1,0,1.8,0.8,1.8,1.8c0,1-0.9,1.8-1.8,1.8h-10.6
					c-0.1,0-0.1,0-0.1,0l0,0C118.8,137.9,118,137.1,118,136.2z"/>
				
					<linearGradient id="SVGID_22_" gradientUnits="userSpaceOnUse" x1="267.507" y1="10.0075" x2="-58.3814" y2="254.0772" gradientTransform="matrix(1 0 0 1 0 26.28)">
					<stop  offset="0" style="stop-color:#B0F416"/>
					<stop  offset="1" style="stop-color:#25EF25"/>
				</linearGradient>
				<path class="st21" d="M155.4,117.9c2,2.1,3.4,5,3.4,8.2c0,3.3-1.2,6.1-3.4,8.2c-1.9,2.1-4.8,3.5-7.8,3.5c-3.1,0-6-1.3-8-3.5
					c-2-2.1-3.2-5-3.2-8.2c0-3.3,1.2-6.1,3.2-8.2c2-2.1,4.9-3.5,8-3.5C150.6,114.3,153.5,115.7,155.4,117.9z M155,126.1
					c0-2.2-0.9-4.3-2.2-5.7s-3.2-2.3-5.1-2.3c-2.1,0-3.9,0.9-5.3,2.3c-1.3,1.4-2.2,3.5-2.2,5.7c0,2.2,0.9,4.3,2.2,5.7
					c1.3,1.4,3.2,2.3,5.3,2.3c2,0,3.8-0.9,5.1-2.3C154.1,130.5,155,128.3,155,126.1z"/>
			</g>
			<g>
				
					<linearGradient id="SVGID_23_" gradientUnits="userSpaceOnUse" x1="295.0495" y1="46.6802" x2="-30.9062" y2="290.8001" gradientTransform="matrix(1 0 0 1 0 26.28)">
					<stop  offset="0" style="stop-color:#B0F416"/>
					<stop  offset="1" style="stop-color:#25EF25"/>
				</linearGradient>
				<path class="st22" d="M154.8,192.2L154.8,192.2c-1.4,0-2.2,1.6-1.6,2.7l2.8,4.9c1.2,2,0.7,3.6,0,4.7c-1.3,2.2-4.3,3.6-7.5,3.6
					H99.9c-3.2,0-6-1.3-7.4-3.5c-0.7-1-1.2-2.7-0.3-4.5l2.6-5.2c0.5-1.2-0.4-2.6-1.7-2.6l0,0c-0.7,0-1.3,0.4-1.7,1l-2.6,5.2
					c-1.3,2.7-1.2,5.6,0.4,8.2c2,3.2,6,5.2,10.5,5.2h48.5c4.5,0,8.7-2.1,10.6-5.6c1.6-2.7,1.6-5.7,0-8.3l-2.8-4.9
					C156.1,192.5,155.4,192.2,154.8,192.2z"/>
			</g>
		</g>
	</g>
</g>
</svg>
