<?xml version="1.0" encoding="utf-8"?>
<!-- Generator: Adobe Illustrator 19.1.0, SVG Export Plug-In . SVG Version: 6.00 Build 0)  -->
<svg version="1.1" id="Layer_1" xmlns="http://www.w3.org/2000/svg" xmlns:xlink="http://www.w3.org/1999/xlink" x="0px" y="0px"
	 viewBox="0 0 279.5 236" style="enable-background:new 0 0 279.5 236;" xml:space="preserve">
<style type="text/css">
	.st0{fill:url(#SVGID_1_);}
	.st1{fill:url(#SVGID_2_);}
	.st2{fill:url(#SVGID_3_);}
	.st3{fill:none;}
	.st4{fill:url(#SVGID_4_);}
	.st5{fill:url(#SVGID_5_);}
	.st6{fill:url(#SVGID_6_);}
	.st7{fill:url(#SVGID_7_);}
	.st8{fill:url(#SVGID_8_);}
	.st9{fill:url(#SVGID_9_);}
	.st10{fill:url(#SVGID_10_);}
	.st11{fill:url(#SVGID_11_);}
	.st12{fill:url(#SVGID_12_);}
	.st13{fill:url(#SVGID_13_);}
	.st14{fill:url(#SVGID_14_);}
	.st15{fill:url(#SVGID_15_);}
	.st16{fill:url(#SVGID_16_);}
	.st17{fill:url(#SVGID_17_);}
	.st18{fill:url(#SVGID_18_);}
	.st19{fill:url(#SVGID_19_);}
	.st20{fill:url(#SVGID_20_);}
	.st21{fill:url(#SVGID_21_);}
	.st22{fill:url(#SVGID_22_);}
	.st23{fill:url(#SVGID_23_);}
	.st24{fill:url(#SVGID_24_);}
	.st25{fill:url(#SVGID_25_);}
	.st26{fill:url(#SVGID_26_);}
	.st27{fill:url(#SVGID_27_);}
	.st28{fill:url(#SVGID_28_);}
	.st29{fill:url(#SVGID_29_);}
	.st30{fill:url(#SVGID_30_);}
</style>
<g>
	<g>
		<g>
			
				<linearGradient id="SVGID_1_" gradientUnits="userSpaceOnUse" x1="-716.0446" y1="227.3239" x2="-458.312" y2="4.6729" gradientTransform="matrix(-1 0 0 -1 -431.4619 236.11)">
				<stop  offset="0" style="stop-color:#DC1D47"/>
				<stop  offset="1" style="stop-color:#EE2B62"/>
			</linearGradient>
			<path class="st0" d="M161.6,92.8h54.9c0.7,0,1.4-0.6,1.4-1.4c0-0.7-0.6-1.4-1.4-1.4h-54.9c-0.7,0-1.4,0.6-1.4,1.4
				C160.1,92.2,160.9,92.8,161.6,92.8z"/>
			
				<linearGradient id="SVGID_2_" gradientUnits="userSpaceOnUse" x1="-720.888" y1="221.7173" x2="-463.1555" y2="-0.9337" gradientTransform="matrix(-1 0 0 -1 -431.4619 236.11)">
				<stop  offset="0" style="stop-color:#DC1D47"/>
				<stop  offset="1" style="stop-color:#EE2B62"/>
			</linearGradient>
			<path class="st1" d="M129.6,101.8h120.6c0.7,0,1.4-0.6,1.4-1.4c0-0.8-0.6-1.4-1.4-1.4H129.6c-0.7,0-1.4,0.6-1.4,1.4
				C128.2,101.2,128.8,101.8,129.6,101.8z"/>
			
				<linearGradient id="SVGID_3_" gradientUnits="userSpaceOnUse" x1="-727.8746" y1="213.63" x2="-470.142" y2="-9.0211" gradientTransform="matrix(-1 0 0 -1 -431.4619 236.11)">
				<stop  offset="0" style="stop-color:#DC1D47"/>
				<stop  offset="1" style="stop-color:#EE2B62"/>
			</linearGradient>
			<path class="st2" d="M138.4,112.1h111.9c0.7,0,1.4-0.6,1.4-1.4c0-0.8-0.6-1.4-1.4-1.4H138.4c-0.7,0-1.4,0.6-1.4,1.4
				C136.9,111.5,137.6,112.1,138.4,112.1z"/>
			<g>
				<line class="st3" x1="250.3" y1="119.9" x2="138.4" y2="119.9"/>
				
					<linearGradient id="SVGID_4_" gradientUnits="userSpaceOnUse" x1="-732.3924" y1="208.4003" x2="-474.6597" y2="-14.2506" gradientTransform="matrix(-1 0 0 -1 -431.4619 236.11)">
					<stop  offset="0" style="stop-color:#DC1D47"/>
					<stop  offset="1" style="stop-color:#EE2B62"/>
				</linearGradient>
				<path class="st4" d="M138.4,121.2h111.9c0.7,0,1.4-0.6,1.4-1.4c0-0.7-0.6-1.4-1.4-1.4H138.4c-0.7,0-1.4,0.6-1.4,1.4
					C136.9,120.6,137.6,121.2,138.4,121.2z"/>
			</g>
			
				<linearGradient id="SVGID_5_" gradientUnits="userSpaceOnUse" x1="-749.3008" y1="188.8276" x2="-491.5683" y2="-33.8234" gradientTransform="matrix(-1 0 0 -1 -431.4619 236.11)">
				<stop  offset="0" style="stop-color:#DC1D47"/>
				<stop  offset="1" style="stop-color:#EE2B62"/>
			</linearGradient>
			<path class="st5" d="M195,131h55.3c0.7,0,1.4-0.6,1.4-1.4c0-0.7-0.6-1.4-1.4-1.4H195c-0.7,0-1.4,0.6-1.4,1.4
				C193.7,130.4,194.3,131,195,131z"/>
			
				<linearGradient id="SVGID_6_" gradientUnits="userSpaceOnUse" x1="-754.928" y1="182.3139" x2="-497.1954" y2="-40.3371" gradientTransform="matrix(-1 0 0 -1 -431.4619 236.11)">
				<stop  offset="0" style="stop-color:#DC1D47"/>
				<stop  offset="1" style="stop-color:#EE2B62"/>
			</linearGradient>
			<path class="st6" d="M198.2,141h52c0.7,0,1.4-0.6,1.4-1.4c0-0.8-0.6-1.4-1.4-1.4h-52c-0.7,0-1.4,0.6-1.4,1.4
				C196.8,140.4,197.4,141,198.2,141z"/>
			
				<linearGradient id="SVGID_7_" gradientUnits="userSpaceOnUse" x1="-759.8619" y1="176.6026" x2="-502.1292" y2="-46.0484" gradientTransform="matrix(-1 0 0 -1 -431.4619 236.11)">
				<stop  offset="0" style="stop-color:#DC1D47"/>
				<stop  offset="1" style="stop-color:#EE2B62"/>
			</linearGradient>
			<path class="st7" d="M198.2,150.9h52c0.7,0,1.4-0.6,1.4-1.4c0-0.7-0.6-1.4-1.4-1.4h-52c-0.7,0-1.4,0.6-1.4,1.4
				C196.8,150.3,197.4,150.9,198.2,150.9z"/>
			
				<linearGradient id="SVGID_8_" gradientUnits="userSpaceOnUse" x1="-764.6768" y1="171.0291" x2="-506.9443" y2="-51.622" gradientTransform="matrix(-1 0 0 -1 -431.4619 236.11)">
				<stop  offset="0" style="stop-color:#DC1D47"/>
				<stop  offset="1" style="stop-color:#EE2B62"/>
			</linearGradient>
			<path class="st8" d="M198.2,160.7h52c0.7,0,1.4-0.6,1.4-1.4c0-0.7-0.6-1.4-1.4-1.4h-52c-0.7,0-1.4,0.6-1.4,1.4
				C196.8,160.1,197.4,160.7,198.2,160.7z"/>
			
				<linearGradient id="SVGID_9_" gradientUnits="userSpaceOnUse" x1="-797.5102" y1="133.0224" x2="-539.7776" y2="-89.6288" gradientTransform="matrix(-1 0 0 -1 -431.4619 236.11)">
				<stop  offset="0" style="stop-color:#DC1D47"/>
				<stop  offset="1" style="stop-color:#EE2B62"/>
			</linearGradient>
			<path class="st9" d="M220.6,217.4h29.7c0.7,0,1.4-0.6,1.4-1.4c0-0.7-0.6-1.4-1.4-1.4h-29.7c-0.7,0-1.4,0.6-1.4,1.4
				C219.1,216.8,219.7,217.4,220.6,217.4z"/>
			
				<linearGradient id="SVGID_10_" gradientUnits="userSpaceOnUse" x1="-712.7113" y1="231.1823" x2="-454.9788" y2="8.5312" gradientTransform="matrix(-1 0 0 -1 -431.4619 236.11)">
				<stop  offset="0" style="stop-color:#DC1D47"/>
				<stop  offset="1" style="stop-color:#EE2B62"/>
			</linearGradient>
			<path class="st10" d="M16.9,221.3h31c0.7,0,1.4-0.6,1.4-1.4c0-0.7-0.6-1.4-1.4-1.4h-31c-0.7,0-1.4,0.6-1.4,1.4
				C15.5,220.7,16.1,221.3,16.9,221.3z"/>
			
				<linearGradient id="SVGID_11_" gradientUnits="userSpaceOnUse" x1="-709.5014" y1="234.8981" x2="-451.7689" y2="12.247" gradientTransform="matrix(-1 0 0 -1 -431.4619 236.11)">
				<stop  offset="0" style="stop-color:#DC1D47"/>
				<stop  offset="1" style="stop-color:#EE2B62"/>
			</linearGradient>
			<path class="st11" d="M16.9,214.9h31c0.7,0,1.4-0.6,1.4-1.4c0-0.7-0.6-1.4-1.4-1.4h-31c-0.7,0-1.4,0.6-1.4,1.4
				C15.5,214.3,16.1,214.9,16.9,214.9z"/>
			<g>
				
					<linearGradient id="SVGID_12_" gradientUnits="userSpaceOnUse" x1="-729.7839" y1="211.4198" x2="-472.0514" y2="-11.2312" gradientTransform="matrix(-1 0 0 -1 -431.4619 236.11)">
					<stop  offset="0" style="stop-color:#DC1D47"/>
					<stop  offset="1" style="stop-color:#EE2B62"/>
				</linearGradient>
				<path class="st12" d="M117.6,0H263c9.1,0,16.6,6.1,16.6,13.6v208.8c0,7.5-7.5,13.6-16.6,13.6h-65.1c-1.3,0-2.3-1.1-2.3-2.3l0,0
					c0-1.3,1.1-2.3,2.3-2.3H263c6,0,10.8-4,10.8-8.9v-209c0-4.9-4.9-8.9-10.8-8.9H117.6c-6,0-10.8,4-10.8,8.9v37.1
					c0,1.3-1.1,2.3-2.3,2.3h-1.1c-1.3,0-2.3-1.1-2.3-2.3V13.6C101,6.1,108.5,0,117.6,0z"/>
			</g>
			
				<linearGradient id="SVGID_13_" gradientUnits="userSpaceOnUse" x1="-630.7299" y1="326.0811" x2="-372.9973" y2="103.4301" gradientTransform="matrix(-1 0 0 -1 -431.4619 236.11)">
				<stop  offset="0" style="stop-color:#DC1D47"/>
				<stop  offset="1" style="stop-color:#EE2B62"/>
			</linearGradient>
			<path class="st13" d="M35.2,40V13.3c0-7.2,5.9-13.1,13.1-13.1h32.1c7.2,0,13.1,5.9,13.1,13.1v26.6c0,7.2-5.9,13.1-13.1,13.1H48.3
				C41.1,53.1,35.2,47.2,35.2,40z M48.3,4c-5.2,0-9.4,4.2-9.4,9.4v26.6c0,5.2,4.2,9.4,9.4,9.4h32.1c5.2,0,9.4-4.2,9.4-9.4V13.3
				c0-5.2-4.2-9.4-9.4-9.4C80.4,4,48.3,4,48.3,4z"/>
			
				<linearGradient id="SVGID_14_" gradientUnits="userSpaceOnUse" x1="-720.1492" y1="222.0919" x2="-462.4166" y2="-0.5591" gradientTransform="matrix(-1 0 0 -1 -431.4619 236.11)">
				<stop  offset="0" style="stop-color:#DC1D47"/>
				<stop  offset="1" style="stop-color:#EE2B62"/>
			</linearGradient>
			<path class="st14" d="M0.2,222.9v-77.7c0-7.2,5.9-13.1,13.1-13.1h157.2c7.2,0,13.1,5.9,13.1,13.1v77.7c0,7.2-5.9,13.1-13.1,13.1
				H13.3C6,236,0.2,230.1,0.2,222.9z M13.3,135.8c-5.2,0-9.4,4.2-9.4,9.4v77.7c0,5.2,4.2,9.4,9.4,9.4h157.2c5.2,0,9.4-4.2,9.4-9.4
				v-77.7c0-5.2-4.2-9.4-9.4-9.4H13.3z"/>
			<g>
				
					<linearGradient id="SVGID_15_" gradientUnits="userSpaceOnUse" x1="-705.1838" y1="239.8959" x2="-447.4513" y2="17.2448" gradientTransform="matrix(-1 0 0 -1 -431.4619 236.11)">
					<stop  offset="0" style="stop-color:#DC1D47"/>
					<stop  offset="1" style="stop-color:#EE2B62"/>
				</linearGradient>
				<path class="st15" d="M171.1,68.3c-0.5-1.1-0.2-2.4,0.6-3.2l42.4-42.4c0.8-0.8,2.2-1.1,3.2-0.6c1.1,0.5,1.8,1.6,1.8,2.8v42.4
					c0,1.7-1.3,2.9-2.9,2.9h-42.4C172.6,70.1,171.6,69.3,171.1,68.3z M216.1,24.5l-42.4,42.4c0,0-0.1,0.1,0,0.1
					c0,0.1,0.1,0.1,0.1,0.1h42.4c0.1,0,0.1-0.1,0.1-0.1V24.6c0,0,0-0.1-0.1-0.1C216.3,24.5,216.3,24.5,216.1,24.5
					C216.3,24.5,216.1,24.5,216.1,24.5z"/>
				
					<linearGradient id="SVGID_16_" gradientUnits="userSpaceOnUse" x1="-679.4264" y1="269.7118" x2="-421.6938" y2="47.0608" gradientTransform="matrix(-1 0 0 -1 -431.4619 236.11)">
					<stop  offset="0" style="stop-color:#DC1D47"/>
					<stop  offset="1" style="stop-color:#EE2B62"/>
				</linearGradient>
				<path class="st16" d="M163.1,62.6c-1.1-0.5-1.8-1.6-1.8-2.8V17.4c0-1.7,1.3-2.9,2.9-2.9h42.4c1.2,0,2.3,0.7,2.8,1.8
					c0.5,1.1,0.2,2.4-0.6,3.2L166.4,62c-0.6,0.6-1.3,0.8-2,0.8C163.9,62.8,163.5,62.7,163.1,62.6z M164.2,17.3
					c-0.1,0-0.1,0.1-0.1,0.1v42.4c0,0,0,0.1,0.1,0.1c0.1,0,0.1,0,0.1,0l42.4-42.4c0,0,0.1-0.1,0-0.1c0-0.1-0.1-0.1-0.1-0.1H164.2z"
					/>
			</g>
			
				<linearGradient id="SVGID_17_" gradientUnits="userSpaceOnUse" x1="-749.9123" y1="188.1198" x2="-492.1797" y2="-34.5312" gradientTransform="matrix(-1 0 0 -1 -431.4619 236.11)">
				<stop  offset="0" style="stop-color:#DC1D47"/>
				<stop  offset="1" style="stop-color:#EE2B62"/>
			</linearGradient>
			<path class="st17" d="M137.3,216.9c-0.7-0.2-1.1-1-1.1-1.6v-23c0-1,0.8-1.8,1.8-1.8h24c0.7,0,1.4,0.5,1.7,1.1
				c0.2,0.7,0.1,1.4-0.4,1.9l-24,23c-0.4,0.4-0.8,0.5-1.2,0.5C137.8,217,137.6,217,137.3,216.9z M138.2,192.4v22.7l23.7-22.7H138.2z
				"/>
			
				<linearGradient id="SVGID_18_" gradientUnits="userSpaceOnUse" x1="-764.0333" y1="171.7741" x2="-506.3007" y2="-50.877" gradientTransform="matrix(-1 0 0 -1 -431.4619 236.11)">
				<stop  offset="0" style="stop-color:#DC1D47"/>
				<stop  offset="1" style="stop-color:#EE2B62"/>
			</linearGradient>
			<path class="st18" d="M141,219.8c-0.2-0.7-0.1-1.4,0.4-1.9l24-23c0.5-0.5,1.3-0.6,2-0.4c0.7,0.2,1.1,1,1.1,1.6v23
				c0,1-0.8,1.8-1.8,1.8h-24C141.9,221,141.3,220.5,141,219.8z M166.6,196.3L143,219.1h23.7V196.3z"/>
			
				<linearGradient id="SVGID_19_" gradientUnits="userSpaceOnUse" x1="-624.7805" y1="332.9679" x2="-367.0479" y2="110.3169" gradientTransform="matrix(-1 0 0 -1 -431.4619 236.11)">
				<stop  offset="0" style="stop-color:#DC1D47"/>
				<stop  offset="1" style="stop-color:#EE2B62"/>
			</linearGradient>
			<path class="st19" d="M51.9,37.4c-0.6-0.2-1.1-0.8-1.1-1.6v-22c0-1,0.7-1.7,1.7-1.7h22c0.7,0,1.3,0.4,1.6,1.1
				c0.2,0.6,0.1,1.4-0.4,1.9L53.7,37c-0.4,0.4-0.7,0.5-1.2,0.5C52.2,37.5,52,37.5,51.9,37.4z M52.6,13.9v21.5l21.5-21.5H52.6z"/>
			
				<linearGradient id="SVGID_20_" gradientUnits="userSpaceOnUse" x1="-637.8433" y1="317.8469" x2="-380.1106" y2="95.1958" gradientTransform="matrix(-1 0 0 -1 -431.4619 236.11)">
				<stop  offset="0" style="stop-color:#DC1D47"/>
				<stop  offset="1" style="stop-color:#EE2B62"/>
			</linearGradient>
			<path class="st20" d="M55.1,40.3c-0.2-0.6-0.1-1.4,0.4-1.9l22-22c0.5-0.5,1.2-0.6,1.9-0.4c0.6,0.2,1.1,0.8,1.1,1.6v22
				c0,1-0.7,1.7-1.7,1.7H56.7C56,41.2,55.4,40.9,55.1,40.3z M78.6,17.9L57,39.4h21.5V17.9z"/>
			
				<linearGradient id="SVGID_21_" gradientUnits="userSpaceOnUse" x1="-637.8622" y1="317.8248" x2="-380.1297" y2="95.1737" gradientTransform="matrix(-1 0 0 -1 -431.4619 236.11)">
				<stop  offset="0" style="stop-color:#DC1D47"/>
				<stop  offset="1" style="stop-color:#EE2B62"/>
			</linearGradient>
			<path class="st21" d="M11.4,76.8h26.4c0.7,0,1.4-0.6,1.4-1.4c0-0.8-0.6-1.4-1.4-1.4H11.4c-0.7,0-1.4,0.6-1.4,1.4
				C9.9,76.2,10.7,76.8,11.4,76.8z"/>
			
				<linearGradient id="SVGID_22_" gradientUnits="userSpaceOnUse" x1="-652.6403" y1="300.7182" x2="-394.9078" y2="78.0672" gradientTransform="matrix(-1 0 0 -1 -431.4619 236.11)">
				<stop  offset="0" style="stop-color:#DC1D47"/>
				<stop  offset="1" style="stop-color:#EE2B62"/>
			</linearGradient>
			<path class="st22" d="M11.7,110.5h16.7c0.7,0,1.4-0.6,1.4-1.4c0-0.8-0.6-1.4-1.4-1.4H11.7c-0.7,0-1.4,0.6-1.4,1.4
				C10.3,109.9,11,110.5,11.7,110.5z"/>
			
				<linearGradient id="SVGID_23_" gradientUnits="userSpaceOnUse" x1="-646.9477" y1="307.3079" x2="-389.215" y2="84.6569" gradientTransform="matrix(-1 0 0 -1 -431.4619 236.11)">
				<stop  offset="0" style="stop-color:#DC1D47"/>
				<stop  offset="1" style="stop-color:#EE2B62"/>
			</linearGradient>
			<path class="st23" d="M10.8,86.6h47.3c0.7,0,1.4-0.6,1.4-1.4c0-0.7-0.6-1.4-1.4-1.4H10.8c-0.7,0-1.4,0.6-1.4,1.4
				C9.3,86,10.1,86.6,10.8,86.6z"/>
			
				<linearGradient id="SVGID_24_" gradientUnits="userSpaceOnUse" x1="-650.0982" y1="303.661" x2="-392.3655" y2="81.0099" gradientTransform="matrix(-1 0 0 -1 -431.4619 236.11)">
				<stop  offset="0" style="stop-color:#DC1D47"/>
				<stop  offset="1" style="stop-color:#EE2B62"/>
			</linearGradient>
			<path class="st24" d="M10.8,93h47.3c0.7,0,1.4-0.6,1.4-1.4c0-0.8-0.6-1.4-1.4-1.4H10.8c-0.7,0-1.4,0.6-1.4,1.4
				C9.3,92.4,10.1,93,10.8,93z"/>
			
				<linearGradient id="SVGID_25_" gradientUnits="userSpaceOnUse" x1="-651.188" y1="302.3996" x2="-393.4553" y2="79.7486" gradientTransform="matrix(-1 0 0 -1 -431.4619 236.11)">
				<stop  offset="0" style="stop-color:#DC1D47"/>
				<stop  offset="1" style="stop-color:#EE2B62"/>
			</linearGradient>
			<path class="st25" d="M10.8,98.9h38.8c0.7,0,1.4-0.6,1.4-1.4c0-0.8-0.6-1.4-1.4-1.4H10.8c-0.7,0-1.4,0.6-1.4,1.4
				C9.3,98.3,10.1,98.9,10.8,98.9z"/>
			
				<linearGradient id="SVGID_26_" gradientUnits="userSpaceOnUse" x1="-661.7714" y1="290.1485" x2="-404.0389" y2="67.4974" gradientTransform="matrix(-1 0 0 -1 -431.4619 236.11)">
				<stop  offset="0" style="stop-color:#DC1D47"/>
				<stop  offset="1" style="stop-color:#EE2B62"/>
			</linearGradient>
			<path class="st26" d="M0.1,111.4V72.1C0.1,64.9,6,59,13.2,59h96.6c7.2,0,13.1,5.9,13.1,13.1v39.4c0,7.2-5.9,13.1-13.1,13.1H13.2
				C6,124.5,0.1,118.7,0.1,111.4z M13.2,62.7c-5.2,0-9.4,4.2-9.4,9.4v39.4c0,5.2,4.2,9.4,9.4,9.4h96.6c5.2,0,9.4-4.2,9.4-9.4V72.1
				c0-5.2-4.2-9.4-9.4-9.4H13.2z"/>
			<g>
				
					<linearGradient id="SVGID_27_" gradientUnits="userSpaceOnUse" x1="-664.9542" y1="286.4643" x2="-407.2216" y2="63.8132" gradientTransform="matrix(-1 0 0 -1 -431.4619 236.11)">
					<stop  offset="0" style="stop-color:#DC1D47"/>
					<stop  offset="1" style="stop-color:#EE2B62"/>
				</linearGradient>
				<path class="st27" d="M71.5,105.1c-0.7-0.4-1.2-1.1-1.2-1.8V74.6c0-1.1,0.8-1.9,1.9-1.9h28.7c0.8,0,1.6,0.5,1.8,1.2
					c0.4,0.7,0.1,1.6-0.5,2.2l-28.7,28.7c-0.4,0.4-0.8,0.6-1.4,0.6C71.9,105.3,71.7,105.3,71.5,105.1z M72.2,74.5
					C72.1,74.5,72.1,74.5,72.2,74.5l-0.1,28.8c0,0,0,0.1,0.1,0.1c0.1,0,0.1,0,0.1,0l28.6-28.7c0,0,0,0,0-0.1s-0.1-0.1-0.1-0.1H72.2z
					"/>
				
					<linearGradient id="SVGID_28_" gradientUnits="userSpaceOnUse" x1="-681.9531" y1="266.787" x2="-424.2206" y2="44.136" gradientTransform="matrix(-1 0 0 -1 -431.4619 236.11)">
					<stop  offset="0" style="stop-color:#DC1D47"/>
					<stop  offset="1" style="stop-color:#EE2B62"/>
				</linearGradient>
				<path class="st28" d="M75.9,108.9c-0.4-0.7-0.1-1.6,0.5-2.2L105,78.1c0.6-0.6,1.4-0.7,2.2-0.5c0.7,0.4,1.2,1.1,1.2,1.8v28.7
					c0,1.1-0.8,1.9-1.9,1.9H77.7C76.9,110.2,76.1,109.7,75.9,108.9z M106.3,79.4l-28.7,28.7c0,0,0,0,0,0.1s0.1,0.1,0.1,0.1h28.7
					c0,0,0.1,0,0.1-0.1V79.4C106.4,79.4,106.4,79.4,106.3,79.4C106.4,79.4,106.4,79.4,106.3,79.4L106.3,79.4z"/>
			</g>
			<g>
				
					<linearGradient id="SVGID_29_" gradientUnits="userSpaceOnUse" x1="-727.3425" y1="214.2457" x2="-469.61" y2="-8.4052" gradientTransform="matrix(-1 0 0 -1 -431.4619 236.11)">
					<stop  offset="0" style="stop-color:#DC1D47"/>
					<stop  offset="1" style="stop-color:#EE2B62"/>
				</linearGradient>
				<path class="st29" d="M91.6,185.7l79.4-37.5c1.2-0.6,1.7-1.9,1.1-3l0,0c-0.6-1.1-2-1.6-3.1-1l-79.5,37.5c-1.2,0.6-1.7,1.9-1.1,3
					l0,0C89,185.8,90.4,186.3,91.6,185.7z"/>
			</g>
			<g>
				
					<linearGradient id="SVGID_30_" gradientUnits="userSpaceOnUse" x1="-693.1414" y1="253.8358" x2="-435.4088" y2="31.1848" gradientTransform="matrix(-1 0 0 -1 -431.4619 236.11)">
					<stop  offset="0" style="stop-color:#DC1D47"/>
					<stop  offset="1" style="stop-color:#EE2B62"/>
				</linearGradient>
				<path class="st30" d="M88.9,185.7L9.5,148.2c-1.2-0.6-1.7-1.9-1.1-3l0,0c0.6-1.1,2-1.6,3.1-1L91,181.7c1.2,0.6,1.7,1.9,1.1,3
					l0,0C91.5,185.8,90.1,186.3,88.9,185.7z"/>
			</g>
		</g>
	</g>
</g>
</svg>
