<?xml version="1.0" encoding="utf-8"?>
<!-- Generator: Adobe Illustrator 19.1.0, SVG Export Plug-In . SVG Version: 6.00 Build 0)  -->
<svg version="1.1" id="Layer_1" xmlns="http://www.w3.org/2000/svg" xmlns:xlink="http://www.w3.org/1999/xlink" x="0px" y="0px"
	 viewBox="0 0 280 260" style="enable-background:new 0 0 280 260;" xml:space="preserve">
<style type="text/css">
	.st0{fill:url(#SVGID_1_);}
	.st1{fill:url(#SVGID_2_);}
	.st2{fill:url(#SVGID_3_);}
	.st3{fill:url(#SVGID_4_);}
	.st4{fill:url(#SVGID_5_);}
	.st5{fill:url(#SVGID_6_);}
	.st6{fill:url(#SVGID_7_);}
	.st7{fill:url(#SVGID_8_);}
	.st8{fill:url(#SVGID_9_);}
	.st9{fill:url(#SVGID_10_);}
	.st10{fill:url(#SVGID_11_);}
	.st11{fill:url(#SVGID_12_);}
	.st12{fill:url(#SVGID_13_);}
	.st13{fill:url(#SVGID_14_);}
	.st14{fill:url(#SVGID_15_);}
	.st15{fill:url(#SVGID_16_);}
	.st16{fill:url(#SVGID_17_);}
	.st17{fill:url(#SVGID_18_);}
	.st18{fill:url(#SVGID_19_);}
	.st19{fill:url(#SVGID_20_);}
	.st20{fill:url(#SVGID_21_);}
	.st21{fill:url(#SVGID_22_);}
	.st22{fill:url(#SVGID_23_);}
	.st23{fill:url(#SVGID_24_);}
	.st24{fill:url(#SVGID_25_);}
	.st25{fill:url(#SVGID_26_);}
	.st26{fill:url(#SVGID_27_);}
	.st27{fill:url(#SVGID_28_);}
	.st28{fill:url(#SVGID_29_);}
	.st29{fill:url(#SVGID_30_);}
	.st30{fill:url(#SVGID_31_);}
</style>
<g>
	
		<image style="overflow:visible;opacity:0.75;" width="252" height="216" xlink:href="B28223D7715CEB21.png"  transform="matrix(1 0 0 1 16 24)">
	</image>
	<g>
		<g>
			
				<linearGradient id="SVGID_1_" gradientUnits="userSpaceOnUse" x1="-377.9466" y1="39.1394" x2="-163.4607" y2="224.4303" gradientTransform="matrix(-1 0 0 1 -117.4619 0)">
				<stop  offset="0" style="stop-color:#DC1845"/>
				<stop  offset="1" style="stop-color:#F72261"/>
			</linearGradient>
			<path class="st0" d="M158.1,109h45.7c0.6,0,1.2-0.5,1.2-1.2c0-0.6-0.5-1.2-1.2-1.2h-45.7c-0.6,0-1.2,0.5-1.2,1.2
				C156.9,108.5,157.5,109,158.1,109z"/>
			
				<linearGradient id="SVGID_2_" gradientUnits="userSpaceOnUse" x1="-381.9502" y1="43.7738" x2="-167.4643" y2="229.0647" gradientTransform="matrix(-1 0 0 1 -117.4619 0)">
				<stop  offset="0" style="stop-color:#DC1845"/>
				<stop  offset="1" style="stop-color:#F72261"/>
			</linearGradient>
			<path class="st1" d="M131.5,116.5h100.4c0.6,0,1.2-0.5,1.2-1.2s-0.5-1.2-1.2-1.2H131.5c-0.6,0-1.2,0.5-1.2,1.2
				S130.8,116.5,131.5,116.5z"/>
			
				<linearGradient id="SVGID_3_" gradientUnits="userSpaceOnUse" x1="-387.7532" y1="50.4911" x2="-173.2673" y2="235.7821" gradientTransform="matrix(-1 0 0 1 -117.4619 0)">
				<stop  offset="0" style="stop-color:#DC1845"/>
				<stop  offset="1" style="stop-color:#F72261"/>
			</linearGradient>
			<path class="st2" d="M138.8,125.1h93.1c0.6,0,1.2-0.5,1.2-1.2s-0.5-1.2-1.2-1.2h-93.1c-0.6,0-1.2,0.5-1.2,1.2
				S138.1,125.1,138.8,125.1z"/>
			<g>
				
					<linearGradient id="SVGID_4_" gradientUnits="userSpaceOnUse" x1="-391.548" y1="54.8838" x2="-177.062" y2="240.1747" gradientTransform="matrix(-1 0 0 1 -117.4619 0)">
					<stop  offset="0" style="stop-color:#DC1845"/>
					<stop  offset="1" style="stop-color:#F72261"/>
				</linearGradient>
				<line class="st3" x1="231.9" y1="131.6" x2="138.8" y2="131.6"/>
				
					<linearGradient id="SVGID_5_" gradientUnits="userSpaceOnUse" x1="-391.548" y1="54.8838" x2="-177.062" y2="240.1747" gradientTransform="matrix(-1 0 0 1 -117.4619 0)">
					<stop  offset="0" style="stop-color:#DC1845"/>
					<stop  offset="1" style="stop-color:#F72261"/>
				</linearGradient>
				<path class="st4" d="M138.8,132.7h93.1c0.6,0,1.2-0.5,1.2-1.2c0-0.6-0.5-1.2-1.2-1.2h-93.1c-0.6,0-1.2,0.5-1.2,1.2
					C137.6,132.2,138.1,132.7,138.8,132.7z"/>
			</g>
			
				<linearGradient id="SVGID_6_" gradientUnits="userSpaceOnUse" x1="-405.6263" y1="71.1804" x2="-191.1404" y2="256.4713" gradientTransform="matrix(-1 0 0 1 -117.4619 0)">
				<stop  offset="0" style="stop-color:#DC1845"/>
				<stop  offset="1" style="stop-color:#F72261"/>
			</linearGradient>
			<path class="st5" d="M185.9,140.8h46c0.6,0,1.2-0.5,1.2-1.2c0-0.6-0.5-1.2-1.2-1.2h-46c-0.6,0-1.2,0.5-1.2,1.2
				C184.8,140.3,185.3,140.8,185.9,140.8z"/>
			
				<linearGradient id="SVGID_7_" gradientUnits="userSpaceOnUse" x1="-410.2842" y1="76.5722" x2="-195.7983" y2="261.8631" gradientTransform="matrix(-1 0 0 1 -117.4619 0)">
				<stop  offset="0" style="stop-color:#DC1845"/>
				<stop  offset="1" style="stop-color:#F72261"/>
			</linearGradient>
			<path class="st6" d="M188.6,149.1h43.3c0.6,0,1.2-0.5,1.2-1.2s-0.5-1.2-1.2-1.2h-43.3c-0.6,0-1.2,0.5-1.2,1.2
				S187.9,149.1,188.6,149.1z"/>
			
				<linearGradient id="SVGID_8_" gradientUnits="userSpaceOnUse" x1="-414.4083" y1="81.3461" x2="-199.9223" y2="266.637" gradientTransform="matrix(-1 0 0 1 -117.4619 0)">
				<stop  offset="0" style="stop-color:#DC1845"/>
				<stop  offset="1" style="stop-color:#F72261"/>
			</linearGradient>
			<path class="st7" d="M188.6,157.4h43.3c0.6,0,1.2-0.5,1.2-1.2c0-0.6-0.5-1.2-1.2-1.2h-43.3c-0.6,0-1.2,0.5-1.2,1.2
				C187.4,156.9,187.9,157.4,188.6,157.4z"/>
			
				<linearGradient id="SVGID_9_" gradientUnits="userSpaceOnUse" x1="-418.3881" y1="85.9529" x2="-203.9022" y2="271.2439" gradientTransform="matrix(-1 0 0 1 -117.4619 0)">
				<stop  offset="0" style="stop-color:#DC1845"/>
				<stop  offset="1" style="stop-color:#F72261"/>
			</linearGradient>
			<path class="st8" d="M188.6,165.5h43.3c0.6,0,1.2-0.5,1.2-1.2c0-0.6-0.5-1.2-1.2-1.2h-43.3c-0.6,0-1.2,0.5-1.2,1.2
				C187.4,165,187.9,165.5,188.6,165.5z"/>
			
				<linearGradient id="SVGID_10_" gradientUnits="userSpaceOnUse" x1="-445.746" y1="117.6214" x2="-231.2601" y2="302.9124" gradientTransform="matrix(-1 0 0 1 -117.4619 0)">
				<stop  offset="0" style="stop-color:#DC1845"/>
				<stop  offset="1" style="stop-color:#F72261"/>
			</linearGradient>
			<path class="st9" d="M207.2,212.7h24.7c0.6,0,1.2-0.5,1.2-1.2c0-0.6-0.5-1.2-1.2-1.2h-24.7c-0.6,0-1.2,0.5-1.2,1.2
				C206,212.2,206.5,212.7,207.2,212.7z"/>
			
				<linearGradient id="SVGID_11_" gradientUnits="userSpaceOnUse" x1="-375.1732" y1="35.929" x2="-160.6873" y2="221.22" gradientTransform="matrix(-1 0 0 1 -117.4619 0)">
				<stop  offset="0" style="stop-color:#DC1845"/>
				<stop  offset="1" style="stop-color:#F72261"/>
			</linearGradient>
			<path class="st10" d="M37.7,216h25.8c0.6,0,1.2-0.5,1.2-1.2c0-0.6-0.5-1.2-1.2-1.2H37.7c-0.6,0-1.2,0.5-1.2,1.2
				C36.5,215.5,37,216,37.7,216z"/>
			
				<linearGradient id="SVGID_12_" gradientUnits="userSpaceOnUse" x1="-372.4959" y1="32.8298" x2="-158.01" y2="218.1208" gradientTransform="matrix(-1 0 0 1 -117.4619 0)">
				<stop  offset="0" style="stop-color:#DC1845"/>
				<stop  offset="1" style="stop-color:#F72261"/>
			</linearGradient>
			<path class="st11" d="M37.7,210.6h25.8c0.6,0,1.2-0.5,1.2-1.2c0-0.6-0.5-1.2-1.2-1.2H37.7c-0.6,0-1.2,0.5-1.2,1.2
				C36.5,210.1,37,210.6,37.7,210.6z"/>
			<g>
				
					<linearGradient id="SVGID_13_" gradientUnits="userSpaceOnUse" x1="-389.3369" y1="52.3243" x2="-174.851" y2="237.6153" gradientTransform="matrix(-1 0 0 1 -117.4619 0)">
					<stop  offset="0" style="stop-color:#DC1845"/>
					<stop  offset="1" style="stop-color:#F72261"/>
				</linearGradient>
				<path class="st12" d="M121.5,31.8h121c7.6,0,13.8,5.1,13.8,11.3v173.8c0,6.2-6.2,11.3-13.8,11.3h-54.2c-1.1,0-1.9-0.9-1.9-1.9
					l0,0c0-1.1,0.9-1.9,1.9-1.9h54.2c5,0,9-3.3,9-7.4V43.1c0-4.1-4.1-7.4-9-7.4h-121c-5,0-9,3.3-9,7.4V74c0,1.1-0.9,1.9-1.9,1.9
					h-0.9c-1.1,0-1.9-0.9-1.9-1.9V43.1C107.7,36.9,113.9,31.8,121.5,31.8z"/>
			</g>
			
				<linearGradient id="SVGID_14_" gradientUnits="userSpaceOnUse" x1="-306.9414" y1="-43.0536" x2="-92.4555" y2="142.2373" gradientTransform="matrix(-1 0 0 1 -117.4619 0)">
				<stop  offset="0" style="stop-color:#DC1845"/>
				<stop  offset="1" style="stop-color:#F72261"/>
			</linearGradient>
			<path class="st13" d="M52.9,65.1V42.9c0-6,4.9-10.9,10.9-10.9h26.7c6,0,10.9,4.9,10.9,10.9v22.1c0,6-4.9,10.9-10.9,10.9H63.8
				C57.8,76,52.9,71.1,52.9,65.1z M63.8,35.1c-4.3,0-7.8,3.5-7.8,7.8v22.1c0,4.3,3.5,7.8,7.8,7.8h26.7c4.3,0,7.8-3.5,7.8-7.8V42.9
				c0-4.3-3.5-7.8-7.8-7.8H63.8z"/>
			
				<linearGradient id="SVGID_15_" gradientUnits="userSpaceOnUse" x1="-381.3039" y1="43.0256" x2="-166.8179" y2="228.3165" gradientTransform="matrix(-1 0 0 1 -117.4619 0)">
				<stop  offset="0" style="stop-color:#DC1845"/>
				<stop  offset="1" style="stop-color:#F72261"/>
			</linearGradient>
			<path class="st14" d="M23.8,216.9v-64.7c0-6,4.9-10.9,10.9-10.9h130.8c6,0,10.9,4.9,10.9,10.9v64.7c0,6-4.9,10.9-10.9,10.9H34.7
				C28.6,227.8,23.8,222.9,23.8,216.9z M34.7,144.4c-4.3,0-7.8,3.5-7.8,7.8v64.7c0,4.3,3.5,7.8,7.8,7.8h130.8c4.3,0,7.8-3.5,7.8-7.8
				v-64.7c0-4.3-3.5-7.8-7.8-7.8H34.7z"/>
			<g>
				
					<linearGradient id="SVGID_16_" gradientUnits="userSpaceOnUse" x1="-368.8885" y1="28.654" x2="-154.4026" y2="213.945" gradientTransform="matrix(-1 0 0 1 -117.4619 0)">
					<stop  offset="0" style="stop-color:#DC1845"/>
					<stop  offset="1" style="stop-color:#F72261"/>
				</linearGradient>
				<path class="st15" d="M166,88.6c-0.4-0.9-0.2-2,0.5-2.7l35.3-35.3c0.7-0.7,1.8-0.9,2.7-0.5c0.9,0.4,1.5,1.3,1.5,2.3v35.3
					c0,1.4-1.1,2.4-2.4,2.4h-35.3C167.3,90.1,166.4,89.5,166,88.6z M203.5,52.2l-35.3,35.3c0,0-0.1,0.1,0,0.1c0,0.1,0.1,0.1,0.1,0.1
					h35.3c0.1,0,0.1-0.1,0.1-0.1V52.3c0,0,0-0.1-0.1-0.1C203.6,52.2,203.6,52.2,203.5,52.2C203.6,52.2,203.5,52.2,203.5,52.2z"/>
				
					<linearGradient id="SVGID_17_" gradientUnits="userSpaceOnUse" x1="-347.4235" y1="3.8069" x2="-132.9375" y2="189.0978" gradientTransform="matrix(-1 0 0 1 -117.4619 0)">
					<stop  offset="0" style="stop-color:#DC1845"/>
					<stop  offset="1" style="stop-color:#F72261"/>
				</linearGradient>
				<path class="st16" d="M159.4,83.9c-0.9-0.4-1.5-1.3-1.5-2.3V46.3c0-1.4,1.1-2.4,2.4-2.4h35.3c1,0,1.9,0.6,2.3,1.5
					c0.4,0.9,0.2,2-0.5,2.7l-35.3,35.3c-0.5,0.5-1.1,0.7-1.7,0.7C160,84.1,159.7,84,159.4,83.9z M160.3,46.2c-0.1,0-0.1,0.1-0.1,0.1
					v35.3c0,0,0,0.1,0.1,0.1c0.1,0,0.1,0,0.1,0l35.3-35.3c0,0,0.1-0.1,0-0.1c0-0.1-0.1-0.1-0.1-0.1H160.3z"/>
			</g>
			
				<linearGradient id="SVGID_18_" gradientUnits="userSpaceOnUse" x1="-406.0798" y1="71.7054" x2="-191.5939" y2="256.9963" gradientTransform="matrix(-1 0 0 1 -117.4619 0)">
				<stop  offset="0" style="stop-color:#DC1845"/>
				<stop  offset="1" style="stop-color:#F72261"/>
			</linearGradient>
			<path class="st17" d="M137.9,212.3c-0.6-0.2-0.9-0.8-0.9-1.3v-19.1c0-0.8,0.7-1.5,1.5-1.5h20c0.6,0,1.2,0.4,1.4,0.9
				c0.2,0.6,0.1,1.2-0.3,1.6l-20,19.1c-0.3,0.3-0.7,0.4-1,0.4C138.3,212.4,138.1,212.4,137.9,212.3z M138.6,191.9v18.9l19.7-18.9
				H138.6z"/>
			
				<linearGradient id="SVGID_19_" gradientUnits="userSpaceOnUse" x1="-417.8519" y1="85.3322" x2="-203.366" y2="270.6232" gradientTransform="matrix(-1 0 0 1 -117.4619 0)">
				<stop  offset="0" style="stop-color:#DC1845"/>
				<stop  offset="1" style="stop-color:#F72261"/>
			</linearGradient>
			<path class="st18" d="M141,214.7c-0.2-0.6-0.1-1.2,0.3-1.6l20-19.1c0.4-0.4,1.1-0.5,1.7-0.3c0.6,0.2,0.9,0.8,0.9,1.3v19.1
				c0,0.8-0.7,1.5-1.5,1.5h-20C141.7,215.7,141.2,215.3,141,214.7z M162.3,195.2l-19.7,18.9h19.7V195.2z"/>
			
				<linearGradient id="SVGID_20_" gradientUnits="userSpaceOnUse" x1="-301.9637" y1="-48.8156" x2="-87.4778" y2="136.4753" gradientTransform="matrix(-1 0 0 1 -117.4619 0)">
				<stop  offset="0" style="stop-color:#DC1845"/>
				<stop  offset="1" style="stop-color:#F72261"/>
			</linearGradient>
			<path class="st19" d="M66.8,62.9c-0.5-0.2-0.9-0.7-0.9-1.3V43.3c0-0.8,0.6-1.4,1.4-1.4h18.3c0.6,0,1.1,0.3,1.3,0.9
				c0.2,0.5,0.1,1.2-0.3,1.6L68.3,62.6c-0.3,0.3-0.6,0.4-1,0.4C67.1,63,66.9,63,66.8,62.9z M67.4,43.4v17.9l17.9-17.9H67.4z"/>
			
				<linearGradient id="SVGID_21_" gradientUnits="userSpaceOnUse" x1="-312.8382" y1="-36.2278" x2="-98.3522" y2="149.0632" gradientTransform="matrix(-1 0 0 1 -117.4619 0)">
				<stop  offset="0" style="stop-color:#DC1845"/>
				<stop  offset="1" style="stop-color:#F72261"/>
			</linearGradient>
			<path class="st20" d="M69.5,65.3c-0.2-0.5-0.1-1.2,0.3-1.6l18.3-18.3c0.4-0.4,1-0.5,1.6-0.3c0.5,0.2,0.9,0.7,0.9,1.3v18.3
				c0,0.8-0.6,1.4-1.4,1.4H70.8C70.2,66.1,69.7,65.8,69.5,65.3z M89,46.7L71.1,64.6H89V46.7z"/>
			
				<linearGradient id="SVGID_22_" gradientUnits="userSpaceOnUse" x1="-312.9091" y1="-36.1456" x2="-98.4232" y2="149.1454" gradientTransform="matrix(-1 0 0 1 -117.4619 0)">
				<stop  offset="0" style="stop-color:#DC1845"/>
				<stop  offset="1" style="stop-color:#F72261"/>
			</linearGradient>
			<path class="st21" d="M33.1,95.7h22c0.6,0,1.2-0.5,1.2-1.2s-0.5-1.2-1.2-1.2h-22c-0.6,0-1.2,0.5-1.2,1.2S32.5,95.7,33.1,95.7z"/>
			
				<linearGradient id="SVGID_23_" gradientUnits="userSpaceOnUse" x1="-325.2024" y1="-21.9153" x2="-110.7165" y2="163.3756" gradientTransform="matrix(-1 0 0 1 -117.4619 0)">
				<stop  offset="0" style="stop-color:#DC1845"/>
				<stop  offset="1" style="stop-color:#F72261"/>
			</linearGradient>
			<path class="st22" d="M33.4,123.8h13.9c0.6,0,1.2-0.5,1.2-1.2s-0.5-1.2-1.2-1.2H33.4c-0.6,0-1.2,0.5-1.2,1.2
				S32.8,123.8,33.4,123.8z"/>
			
				<linearGradient id="SVGID_24_" gradientUnits="userSpaceOnUse" x1="-320.4673" y1="-27.3966" x2="-105.9813" y2="157.8943" gradientTransform="matrix(-1 0 0 1 -117.4619 0)">
				<stop  offset="0" style="stop-color:#DC1845"/>
				<stop  offset="1" style="stop-color:#F72261"/>
			</linearGradient>
			<path class="st23" d="M32.6,103.9H72c0.6,0,1.2-0.5,1.2-1.2c0-0.6-0.5-1.2-1.2-1.2H32.6c-0.6,0-1.2,0.5-1.2,1.2
				C31.4,103.4,32,103.9,32.6,103.9z"/>
			
				<linearGradient id="SVGID_25_" gradientUnits="userSpaceOnUse" x1="-323.0886" y1="-24.3623" x2="-108.6026" y2="160.9287" gradientTransform="matrix(-1 0 0 1 -117.4619 0)">
				<stop  offset="0" style="stop-color:#DC1845"/>
				<stop  offset="1" style="stop-color:#F72261"/>
			</linearGradient>
			<path class="st24" d="M32.6,109.2H72c0.6,0,1.2-0.5,1.2-1.2s-0.5-1.2-1.2-1.2H32.6c-0.6,0-1.2,0.5-1.2,1.2S32,109.2,32.6,109.2z"
				/>
			
				<linearGradient id="SVGID_26_" gradientUnits="userSpaceOnUse" x1="-323.9935" y1="-23.3148" x2="-109.5075" y2="161.9761" gradientTransform="matrix(-1 0 0 1 -117.4619 0)">
				<stop  offset="0" style="stop-color:#DC1845"/>
				<stop  offset="1" style="stop-color:#F72261"/>
			</linearGradient>
			<path class="st25" d="M32.6,114.1h32.3c0.6,0,1.2-0.5,1.2-1.2s-0.5-1.2-1.2-1.2H32.6c-0.6,0-1.2,0.5-1.2,1.2S32,114.1,32.6,114.1
				z"/>
			
				<linearGradient id="SVGID_27_" gradientUnits="userSpaceOnUse" x1="-332.7429" y1="-13.1868" x2="-118.257" y2="172.1042" gradientTransform="matrix(-1 0 0 1 -117.4619 0)">
				<stop  offset="0" style="stop-color:#DC1845"/>
				<stop  offset="1" style="stop-color:#F72261"/>
			</linearGradient>
			<path class="st26" d="M23.7,124.5V91.8c0-6,4.9-10.9,10.9-10.9H115c6,0,10.9,4.9,10.9,10.9v32.8c0,6-4.9,10.9-10.9,10.9H34.6
				C28.6,135.4,23.7,130.6,23.7,124.5z M34.6,84c-4.3,0-7.8,3.5-7.8,7.8v32.8c0,4.3,3.5,7.8,7.8,7.8H115c4.3,0,7.8-3.5,7.8-7.8V91.8
				c0-4.3-3.5-7.8-7.8-7.8H34.6z"/>
			<g>
				
					<linearGradient id="SVGID_28_" gradientUnits="userSpaceOnUse" x1="-335.3853" y1="-10.128" x2="-120.8994" y2="175.1629" gradientTransform="matrix(-1 0 0 1 -117.4619 0)">
					<stop  offset="0" style="stop-color:#DC1845"/>
					<stop  offset="1" style="stop-color:#F72261"/>
				</linearGradient>
				<path class="st27" d="M83.1,119.3c-0.6-0.3-1-0.9-1-1.5V93.9c0-0.9,0.7-1.6,1.6-1.6h23.9c0.7,0,1.3,0.4,1.5,1
					c0.3,0.6,0.1,1.3-0.4,1.8l-23.9,23.9c-0.3,0.3-0.7,0.5-1.2,0.5C83.5,119.4,83.3,119.4,83.1,119.3z M83.7,93.8
					C83.6,93.8,83.6,93.8,83.7,93.8l-0.1,24c0,0,0,0.1,0.1,0.1c0.1,0,0.1,0,0.1,0L107.6,94c0,0,0,0,0-0.1c0-0.1-0.1-0.1-0.1-0.1
					H83.7z"/>
				
					<linearGradient id="SVGID_29_" gradientUnits="userSpaceOnUse" x1="-349.5526" y1="6.2715" x2="-135.0667" y2="191.5624" gradientTransform="matrix(-1 0 0 1 -117.4619 0)">
					<stop  offset="0" style="stop-color:#DC1845"/>
					<stop  offset="1" style="stop-color:#F72261"/>
				</linearGradient>
				<path class="st28" d="M86.8,122.4c-0.3-0.6-0.1-1.3,0.4-1.8L111,96.8c0.5-0.5,1.2-0.6,1.8-0.4c0.6,0.3,1,0.9,1,1.5v23.9
					c0,0.9-0.7,1.6-1.6,1.6H88.3C87.6,123.5,87,123.1,86.8,122.4z M112.1,97.9l-23.9,23.9c0,0,0,0,0,0.1c0,0.1,0.1,0.1,0.1,0.1h23.9
					c0,0,0.1,0,0.1-0.1V97.9C112.2,97.9,112.2,97.9,112.1,97.9C112.2,97.9,112.2,97.9,112.1,97.9C112.1,97.9,112.1,97.9,112.1,97.9z
					"/>
			</g>
			<g>
				
					<linearGradient id="SVGID_30_" gradientUnits="userSpaceOnUse" x1="-387.2908" y1="49.9559" x2="-172.8049" y2="235.2468" gradientTransform="matrix(-1 0 0 1 -117.4619 0)">
					<stop  offset="0" style="stop-color:#DC1845"/>
					<stop  offset="1" style="stop-color:#F72261"/>
				</linearGradient>
				<path class="st29" d="M99.9,186.3l66.1-31.2c1-0.5,1.4-1.6,0.9-2.5l0,0c-0.5-0.9-1.7-1.3-2.6-0.8L98.1,183
					c-1,0.5-1.4,1.6-0.9,2.5h0C97.7,186.4,98.9,186.8,99.9,186.3z"/>
			</g>
			<g>
				
					<linearGradient id="SVGID_31_" gradientUnits="userSpaceOnUse" x1="-358.8446" y1="17.0276" x2="-144.3586" y2="202.3185" gradientTransform="matrix(-1 0 0 1 -117.4619 0)">
					<stop  offset="0" style="stop-color:#DC1845"/>
					<stop  offset="1" style="stop-color:#F72261"/>
				</linearGradient>
				<path class="st30" d="M97.6,186.3l-66.1-31.2c-1-0.5-1.4-1.6-0.9-2.5l0,0c0.5-0.9,1.7-1.3,2.6-0.8L99.4,183
					c1,0.5,1.4,1.6,0.9,2.5l0,0C99.8,186.4,98.6,186.8,97.6,186.3z"/>
			</g>
		</g>
	</g>
</g>
</svg>
