<?xml version="1.0" encoding="utf-8"?>
<!-- Generator: Adobe Illustrator 19.1.0, SVG Export Plug-In . SVG Version: 6.00 Build 0)  -->
<svg version="1.1" id="Layer_1" xmlns="http://www.w3.org/2000/svg" xmlns:xlink="http://www.w3.org/1999/xlink" x="0px" y="0px"
	 viewBox="373 -37 805 155" style="enable-background:new 373 -37 805 155;" xml:space="preserve">
<style type="text/css">
	.st0{fill:#00CC33;}
	.st1{fill:#FFFFFF;}
	.st2{fill:#33CC33;}
</style>
<g>
	<path class="st0" d="M618-31.9c13.5,0,25,4.8,34.5,14.4c9.6,9.5,14.4,21,14.4,34.5c0,13.4-4.8,24.9-14.4,34.5
		c-9.5,9.6-21,14.4-34.5,14.4h-61.8v47.4h-6.7V-31.9H618z M618,59.1c11.7,0,21.6-4.1,29.8-12.4c8.2-8.2,12.3-18.1,12.3-29.7
		c0-11.7-4.1-21.6-12.3-29.8c-8.2-8.2-18.2-12.3-29.8-12.3h-61.8v84.3L618,59.1L618,59.1z"/>
	<path class="st0" d="M558.2,115.3h-10.7V-33.9H618c14,0,26.1,5,35.9,15c9.9,9.8,15,21.9,15,35.9c0,13.9-5,26-15,35.9
		c-9.8,9.9-21.9,15-35.9,15h-59.8V115.3z M551.5,111.3h2.7V63.9H618c12.9,0,24-4.6,33.1-13.8c9.2-9.2,13.8-20.3,13.8-33.1
		c0-12.9-4.6-24-13.8-33.1c-9.1-9.2-20.2-13.8-33.1-13.8h-66.5V111.3z M620,61.2h-65.8v-88.3H618c12.2,0,22.7,4.3,31.2,12.9
		c8.6,8.6,12.9,19.1,12.9,31.2c0,12.1-4.3,22.6-12.9,31.1c-8,8.1-17.9,12.5-29.2,12.9V61.2z M558.2,57.2H616v-0.1h2
		c11.2,0,20.5-3.9,28.4-11.8c7.8-7.8,11.7-17.3,11.7-28.3c0-11.2-3.8-20.5-11.7-28.4c-7.8-7.8-17.3-11.7-28.4-11.7h-59.8V57.2z"/>
</g>
<g>
	<rect x="683.6" y="11.6" class="st0" width="6.7" height="101.6"/>
	<path class="st0" d="M692.3,115.2h-10.7V9.6h10.7V115.2z M685.6,111.2h2.7V13.6h-2.7V111.2z"/>
</g>
<g>
	<path class="st0" d="M779.2,11.6l-31.3,47.8l35.3,53.8h-8l-31.3-47.7l-31.3,47.7h-8l35.3-53.8l-31.3-47.8h8l27.3,41.8l27.4-41.8
		C771.3,11.6,779.2,11.6,779.2,11.6z"/>
	<path class="st0" d="M786.9,115.2h-12.8l-30.2-46.1l-30.2,46.1h-12.8l36.6-55.8L704.9,9.6h12.8l26.2,40.1l26.3-40.1h12.7
		l-32.6,49.8L786.9,115.2z M776.3,111.2h3.2l-34-51.8l30-45.8h-3.1l-28.5,43.5l-28.4-43.5h-3.2l30,45.8l-34,51.8h3.2l32.4-49.3
		L776.3,111.2z"/>
</g>
<path class="st1" d="M795.9,101.2l4.9-4.6c5.2,5.5,11.6,9.2,19.2,10.9c3.9,1,7.3,1.3,9.9,0.9c6.7-0.4,12.1-2.4,16.2-5.9
	c4.8-4.2,7.1-10.1,6.6-17.6c-0.4-5.7-2.7-10-6.7-13.2c-4.2-3.2-10.9-5.7-20.2-7.4c-18.9-3.6-28.9-12.6-29.7-27
	c-0.5-8,1.8-15,7.2-20.9c5.3-5.9,11.9-9.2,19.8-9.7c3.5-0.3,7.6,0.1,12.3,1.1c9.1,2,16.7,6.3,23,12.9l-4.9,4.7
	c-8.5-9-18.5-13-29.8-12c-6.1,0.4-11.2,2.9-15.2,7.5c-4.1,4.6-6,9.9-5.6,15.9c0.7,11,8.8,17.9,24.3,20.8c9.5,1.8,16.7,4.3,21.6,7.6
	c6.7,4.5,10.4,10.9,10.9,19.2c0.5,9.3-2.2,16.8-8.4,22.5c-5.4,5-12.3,7.7-20.7,8.2c-0.5,0.1-1.2,0.1-2,0.1
	C815.7,115.3,804.9,110.6,795.9,101.2z"/>
<path class="st1" d="M981.5,64.3H879.3c0.9,12.4,5.9,22.9,15,31.5c9.2,8.6,20.1,12.9,32.6,12.9c13.2,0,24.5-4.7,33.8-14l4.7,4.8
	c-10.6,10.6-23.5,15.9-38.5,15.9s-27.8-5.3-38.5-15.9C877.8,88.8,872.5,76,872.5,61c0-15.1,5.3-27.9,15.9-38.5
	c10.7-10.7,23.5-16,38.5-16c15.1,0,27.9,5.3,38.5,16c10.7,10.6,16,23.5,16,38.5L981.5,64.3L981.5,64.3z M974.6,57.5
	c-0.8-12.5-5.8-23-15-31.5c-9.1-8.7-20-13-32.6-13c-12.5,0-23.4,4.3-32.6,13c-9.1,8.5-14.1,19-15,31.5H974.6z"/>
<path class="st1" d="M1036.5,7.2c11.7,0,21.7,4.2,30,12.5c8.3,8.3,12.5,18.3,12.5,29.9v63.6h-6.7V49.6c0-9.8-3.5-18.2-10.5-25.2
	c-7.1-7-15.5-10.4-25.3-10.4c-9.8,0-18.2,3.5-25.2,10.4c-6.9,7-10.4,15.4-10.4,25.2v63.6h-6.7V10.4h6.7v16.3
	C1009.2,13.7,1021.1,7.2,1036.5,7.2z"/>
<path class="st1" d="M1091.7,99.2l4.9-4.6c5.2,5.5,11.6,9.2,19.2,10.9c3.9,1,7.3,1.3,9.9,0.9c6.7-0.4,12.1-2.4,16.2-5.9
	c4.8-4.2,7.1-10.1,6.6-17.6c-0.4-5.7-2.7-10-6.7-13.2c-4.2-3.2-10.9-5.7-20.2-7.4c-18.9-3.6-28.9-12.6-29.7-27
	c-0.5-8,1.8-15,7.2-20.9c5.3-5.9,11.9-9.2,19.8-9.7c3.5-0.3,7.6,0.1,12.3,1.1c9.1,2,16.7,6.3,23,12.9l-4.9,4.7
	c-8.5-9-18.5-13-29.8-12c-6.1,0.4-11.2,2.9-15.2,7.5c-4.1,4.6-6,9.9-5.6,15.9c0.7,11,8.8,17.9,24.3,20.8c9.5,1.8,16.7,4.3,21.6,7.6
	c6.7,4.5,10.4,10.9,10.9,19.2c0.5,9.3-2.2,16.8-8.4,22.5c-5.4,5-12.3,7.7-20.7,8.2c-0.5,0.1-1.2,0.1-2,0.1
	C1111.4,113.3,1100.6,108.6,1091.7,99.2z"/>
<path class="st2" d="M444.4,53.1l-46.7,46.7c-4.8,4.8-1.4,13,5.4,13h93.5c6.8,0,10.2-8.2,5.4-13l-46.8-46.7
	C452.2,50.2,447.4,50.2,444.4,53.1z"/>
<path class="st2" d="M496.5-35.3h-93.4c-6.8,0-10.2,8.2-5.4,13l46.7,46.7c3,3,7.8,3,10.7,0l46.7-46.7
	C506.7-27.1,503.3-35.3,496.5-35.3z"/>
<path class="st2" d="M375.5-7.8v93.7c0,6.8,8.2,10.2,13,5.4l46.9-46.9c3-3,3-7.8,0-10.7l-46.9-46.9C383.7-18,375.5-14.6,375.5-7.8z"
	/>
<path class="st1" d="M523.6,85.9V-7.8c0-6.8-8.2-10.2-13-5.4l-46.8,46.9c-3,3-3,7.8,0,10.7l46.9,46.9
	C515.4,96.1,523.6,92.7,523.6,85.9z"/>
</svg>
