<?xml version="1.0" encoding="utf-8"?>
<!-- Generator: Adobe Illustrator 19.1.0, SVG Export Plug-In . SVG Version: 6.00 Build 0)  -->
<svg version="1.1" id="Layer_1" xmlns="http://www.w3.org/2000/svg" xmlns:xlink="http://www.w3.org/1999/xlink" x="0px" y="0px"
	 viewBox="0 0 280 238.6" style="enable-background:new 0 0 280 238.6;" xml:space="preserve">
<style type="text/css">
	.st0{fill:url(#SVGID_1_);}
	.st1{fill:url(#SVGID_2_);}
	.st2{fill:url(#SVGID_3_);}
	.st3{fill:url(#SVGID_4_);}
	.st4{fill:url(#SVGID_5_);}
	.st5{fill:url(#SVGID_6_);}
	.st6{fill:url(#SVGID_7_);}
	.st7{fill:url(#SVGID_8_);}
	.st8{fill:url(#SVGID_9_);}
	.st9{fill:url(#SVGID_10_);}
	.st10{fill:url(#SVGID_11_);}
	.st11{fill:url(#SVGID_12_);}
	.st12{fill:url(#SVGID_13_);}
	.st13{fill:url(#SVGID_14_);}
	.st14{fill:url(#SVGID_15_);}
	.st15{fill:url(#SVGID_16_);}
	.st16{fill:url(#SVGID_17_);}
	.st17{fill:url(#SVGID_18_);}
	.st18{fill:url(#SVGID_19_);}
	.st19{fill:url(#SVGID_20_);}
	.st20{fill:url(#SVGID_21_);}
	.st21{fill:url(#SVGID_22_);}
	.st22{fill:url(#SVGID_23_);}
</style>
<g>
	<g>
		<g>
			<g>
				
					<linearGradient id="SVGID_1_" gradientUnits="userSpaceOnUse" x1="274.329" y1="233.6027" x2="-92.9892" y2="-41.4951" gradientTransform="matrix(1 0 0 -1 0 238.11)">
					<stop  offset="0" style="stop-color:#B0F416"/>
					<stop  offset="1" style="stop-color:#25EF25"/>
				</linearGradient>
				<path class="st0" d="M264.4,210.2H15.6c-8.5,0-15.6-7-15.6-15.6V15.5C0,7,7,0,15.6,0h248.9C273,0,280,7,280,15.5v179.1
					C280,203.2,273,210.2,264.4,210.2z M15.6,5.4C9.9,5.4,5.4,9.9,5.4,15.5v179.1c0,5.6,4.5,10.2,10.2,10.2h248.9
					c5.6,0,10.2-4.5,10.2-10.2V15.5c0-5.6-4.5-10.2-10.2-10.2C264.4,5.4,15.6,5.4,15.6,5.4z"/>
			</g>
			<g>
				
					<linearGradient id="SVGID_2_" gradientUnits="userSpaceOnUse" x1="274.329" y1="233.6027" x2="-92.9892" y2="-41.4951" gradientTransform="matrix(1 0 0 -1 0 238.11)">
					<stop  offset="0" style="stop-color:#B0F416"/>
					<stop  offset="1" style="stop-color:#25EF25"/>
				</linearGradient>
				<path class="st1" d="M264.4,210.2H15.6c-8.5,0-15.6-7-15.6-15.6V15.5C0,7,7,0,15.6,0h248.9C273,0,280,7,280,15.5v179.1
					C280,203.2,273,210.2,264.4,210.2z M15.6,5.4C9.9,5.4,5.4,9.9,5.4,15.5v179.1c0,5.6,4.5,10.2,10.2,10.2h248.9
					c5.6,0,10.2-4.5,10.2-10.2V15.5c0-5.6-4.5-10.2-10.2-10.2C264.4,5.4,15.6,5.4,15.6,5.4z"/>
			</g>
			<g>
				
					<linearGradient id="SVGID_3_" gradientUnits="userSpaceOnUse" x1="269.4556" y1="240.1101" x2="-97.8627" y2="-34.9879" gradientTransform="matrix(1 0 0 -1 0 238.11)">
					<stop  offset="0" style="stop-color:#B0F416"/>
					<stop  offset="1" style="stop-color:#25EF25"/>
				</linearGradient>
				<path class="st2" d="M252.3,12.5H27.7c-7.8,0-14.1,6.3-14.1,13.9v122.9c0,1.4,1.1,2.4,2.4,2.4l0,0c1.4,0,2.4-1.1,2.4-2.4V26.5
					c0-5,4.1-9,9.2-9h224.6c5,0,9.2,4,9.2,9v142.9c0,1.4,1.3,2.5,2.6,2.4l0,0c1.3-0.1,2.1-1.1,2.1-2.4v-143
					C266.3,18.7,260.1,12.5,252.3,12.5z"/>
			</g>
			<g>
				
					<linearGradient id="SVGID_4_" gradientUnits="userSpaceOnUse" x1="308.91" y1="187.4295" x2="-58.4083" y2="-87.6684" gradientTransform="matrix(1 0 0 -1 0 238.11)">
					<stop  offset="0" style="stop-color:#B0F416"/>
					<stop  offset="1" style="stop-color:#25EF25"/>
				</linearGradient>
				<path class="st3" d="M263.6,166.8H37c-1.5,0-2.6,1.3-2.6,2.6l0,0c0,1.5,1.3,2.6,2.6,2.6h226.6c1.9,0,3.3-1.9,2.4-3.8
					C265.7,167.3,264.7,166.8,263.6,166.8z"/>
			</g>
			<g>
				
					<linearGradient id="SVGID_5_" gradientUnits="userSpaceOnUse" x1="275.1718" y1="232.4776" x2="-92.1465" y2="-42.6202" gradientTransform="matrix(1 0 0 -1 0 238.11)">
					<stop  offset="0" style="stop-color:#B0F416"/>
					<stop  offset="1" style="stop-color:#25EF25"/>
				</linearGradient>
				<path class="st4" d="M252.5,108.6H27.5c-1,0-1.8-0.8-1.8-1.8c0-1,0.8-1.8,1.8-1.8h225.1c1,0,1.8,0.8,1.8,1.8
					C254.3,107.9,253.5,108.6,252.5,108.6z"/>
				
					<linearGradient id="SVGID_6_" gradientUnits="userSpaceOnUse" x1="238.9107" y1="280.8943" x2="-128.4075" y2="5.7964" gradientTransform="matrix(1 0 0 -1 0 238.11)">
					<stop  offset="0" style="stop-color:#B0F416"/>
					<stop  offset="1" style="stop-color:#25EF25"/>
				</linearGradient>
				<path class="st5" d="M43.5,108.6c-1,0-1.8-0.8-1.8-1.8v-6.6c0-1,0.8-1.8,1.8-1.8c1,0,1.8,0.8,1.8,1.8v6.6
					C45.3,107.9,44.5,108.6,43.5,108.6z"/>
				
					<linearGradient id="SVGID_7_" gradientUnits="userSpaceOnUse" x1="308.3232" y1="188.2129" x2="-58.9951" y2="-86.885" gradientTransform="matrix(1 0 0 -1 0 238.11)">
					<stop  offset="0" style="stop-color:#B0F416"/>
					<stop  offset="1" style="stop-color:#25EF25"/>
				</linearGradient>
				<path class="st6" d="M236.7,108.6c-1,0-1.8-0.8-1.8-1.8v-6.6c0-1,0.8-1.8,1.8-1.8s1.8,0.8,1.8,1.8v6.6
					C238.5,107.9,237.6,108.6,236.7,108.6z"/>
				
					<linearGradient id="SVGID_8_" gradientUnits="userSpaceOnUse" x1="296.7543" y1="203.66" x2="-70.5638" y2="-71.438" gradientTransform="matrix(1 0 0 -1 0 238.11)">
					<stop  offset="0" style="stop-color:#B0F416"/>
					<stop  offset="1" style="stop-color:#25EF25"/>
				</linearGradient>
				<path class="st7" d="M204.5,108.6c-1,0-1.8-0.8-1.8-1.8v-6.6c0-1,0.8-1.8,1.8-1.8s1.8,0.8,1.8,1.8v6.6
					C206.4,107.9,205.5,108.6,204.5,108.6z"/>
				
					<linearGradient id="SVGID_9_" gradientUnits="userSpaceOnUse" x1="285.162" y1="219.1382" x2="-82.1562" y2="-55.9596" gradientTransform="matrix(1 0 0 -1 0 238.11)">
					<stop  offset="0" style="stop-color:#B0F416"/>
					<stop  offset="1" style="stop-color:#25EF25"/>
				</linearGradient>
				<path class="st8" d="M172.2,108.6c-1,0-1.8-0.8-1.8-1.8v-6.6c0-1,0.8-1.8,1.8-1.8s1.8,0.8,1.8,1.8v6.6
					C174,107.9,173.2,108.6,172.2,108.6z"/>
				
					<linearGradient id="SVGID_10_" gradientUnits="userSpaceOnUse" x1="273.6218" y1="234.5471" x2="-93.6965" y2="-40.5507" gradientTransform="matrix(1 0 0 -1 0 238.11)">
					<stop  offset="0" style="stop-color:#B0F416"/>
					<stop  offset="1" style="stop-color:#25EF25"/>
				</linearGradient>
				<path class="st9" d="M140.1,108.6c-1,0-1.8-0.8-1.8-1.8v-6.6c0-1,0.8-1.8,1.8-1.8s1.8,0.8,1.8,1.8v6.6
					C141.9,107.9,141.1,108.6,140.1,108.6z"/>
				
					<linearGradient id="SVGID_11_" gradientUnits="userSpaceOnUse" x1="262.0718" y1="249.9689" x2="-105.2464" y2="-25.129" gradientTransform="matrix(1 0 0 -1 0 238.11)">
					<stop  offset="0" style="stop-color:#B0F416"/>
					<stop  offset="1" style="stop-color:#25EF25"/>
				</linearGradient>
				<path class="st10" d="M108,108.6c-1,0-1.8-0.8-1.8-1.8v-6.6c0-1,0.8-1.8,1.8-1.8c1,0,1.8,0.8,1.8,1.8v6.6
					C109.8,107.9,108.9,108.6,108,108.6z"/>
				
					<linearGradient id="SVGID_12_" gradientUnits="userSpaceOnUse" x1="250.4961" y1="265.4252" x2="-116.8222" y2="-9.6727" gradientTransform="matrix(1 0 0 -1 0 238.11)">
					<stop  offset="0" style="stop-color:#B0F416"/>
					<stop  offset="1" style="stop-color:#25EF25"/>
				</linearGradient>
				<path class="st11" d="M75.8,108.6c-1,0-1.8-0.8-1.8-1.8v-6.6c0-1,0.8-1.8,1.8-1.8c1,0,1.8,0.8,1.8,1.8v6.6
					C77.5,107.9,76.8,108.6,75.8,108.6z"/>
			</g>
			
				<linearGradient id="SVGID_13_" gradientUnits="userSpaceOnUse" x1="230.9762" y1="291.4886" x2="-136.3421" y2="16.3908" gradientTransform="matrix(1 0 0 -1 0 238.11)">
				<stop  offset="0" style="stop-color:#B0F416"/>
				<stop  offset="1" style="stop-color:#25EF25"/>
			</linearGradient>
			<path class="st12" d="M66.6,90.9H51.9c-2.9,0-5.3-2.4-5.3-5.3V64.7c0-2.9,2.4-5.3,5.3-5.3h14.8c2.9,0,5.3,2.4,5.3,5.3v20.9
				C71.9,88.6,69.6,90.9,66.6,90.9z M51.9,63c-1,0-1.8,0.8-1.8,1.8v20.9c0,1,0.8,1.8,1.8,1.8h14.8c1,0,1.8-0.8,1.8-1.8V64.7
				c0-1-0.8-1.8-1.8-1.8H51.9z"/>
			
				<linearGradient id="SVGID_14_" gradientUnits="userSpaceOnUse" x1="235.2913" y1="285.727" x2="-132.027" y2="10.6292" gradientTransform="matrix(1 0 0 -1 0 238.11)">
				<stop  offset="0" style="stop-color:#B0F416"/>
				<stop  offset="1" style="stop-color:#25EF25"/>
			</linearGradient>
			<path class="st13" d="M100,90.9H85.2c-2.9,0-5.3-2.4-5.3-5.3V32.9c0-2.9,2.4-5.3,5.3-5.3H100c2.9,0,5.3,2.4,5.3,5.3v52.9
				C105.3,88.6,102.9,90.9,100,90.9z M85.2,31.1c-1,0-1.8,0.8-1.8,1.8v52.9c0,1,0.8,1.8,1.8,1.8H100c1,0,1.8-0.8,1.8-1.8V32.9
				c0-1-0.8-1.8-1.8-1.8C100,31.1,85.2,31.1,85.2,31.1z"/>
			
				<linearGradient id="SVGID_15_" gradientUnits="userSpaceOnUse" x1="269.3713" y1="240.2227" x2="-97.947" y2="-34.8753" gradientTransform="matrix(1 0 0 -1 0 238.11)">
				<stop  offset="0" style="stop-color:#B0F416"/>
				<stop  offset="1" style="stop-color:#25EF25"/>
			</linearGradient>
			<path class="st14" d="M194.8,90.9H180c-2.9,0-5.3-2.4-5.3-5.3V32.9c0-2.9,2.4-5.3,5.3-5.3h14.8c2.9,0,5.3,2.4,5.3,5.3v52.9
				C200.1,88.6,197.7,90.9,194.8,90.9z M180,31.1c-1,0-1.8,0.8-1.8,1.8v52.9c0,1,0.8,1.8,1.8,1.8h14.8c1,0,1.8-0.8,1.8-1.8V32.9
				c0-1-0.8-1.8-1.8-1.8C194.8,31.1,180,31.1,180,31.1z"/>
			
				<linearGradient id="SVGID_16_" gradientUnits="userSpaceOnUse" x1="250.6331" y1="265.2423" x2="-116.6852" y2="-9.8555" gradientTransform="matrix(1 0 0 -1 0 238.11)">
				<stop  offset="0" style="stop-color:#B0F416"/>
				<stop  offset="1" style="stop-color:#25EF25"/>
			</linearGradient>
			<path class="st15" d="M132.6,90.9h-14.8c-2.9,0-5.3-2.4-5.3-5.3V47.9c0-2.9,2.4-5.3,5.3-5.3h14.8c2.9,0,5.3,2.4,5.3,5.3v37.9
				C137.9,88.6,135.6,90.9,132.6,90.9z M117.9,46.2c-1,0-1.8,0.8-1.8,1.8v37.9c0,1,0.8,1.8,1.8,1.8h14.8c1,0,1.8-0.8,1.8-1.8V47.9
				c0-1-0.8-1.8-1.8-1.8H117.9z"/>
			
				<linearGradient id="SVGID_17_" gradientUnits="userSpaceOnUse" x1="284.9384" y1="219.4369" x2="-82.3799" y2="-55.661" gradientTransform="matrix(1 0 0 -1 0 238.11)">
				<stop  offset="0" style="stop-color:#B0F416"/>
				<stop  offset="1" style="stop-color:#25EF25"/>
			</linearGradient>
			<path class="st16" d="M228.1,90.9h-14.8c-2.9,0-5.3-2.4-5.3-5.3V47.9c0-2.9,2.4-5.3,5.3-5.3h14.8c2.9,0,5.3,2.4,5.3,5.3v37.9
				C233.3,88.6,231.1,90.9,228.1,90.9z M213.4,46.2c-1,0-1.8,0.8-1.8,1.8v37.9c0,1,0.8,1.8,1.8,1.8h14.8c1,0,1.8-0.8,1.8-1.8V47.9
				c0-1-0.8-1.8-1.8-1.8H213.4z"/>
			
				<linearGradient id="SVGID_18_" gradientUnits="userSpaceOnUse" x1="268.8138" y1="240.9669" x2="-98.5045" y2="-34.1309" gradientTransform="matrix(1 0 0 -1 0 238.11)">
				<stop  offset="0" style="stop-color:#B0F416"/>
				<stop  offset="1" style="stop-color:#25EF25"/>
			</linearGradient>
			<path class="st17" d="M162.7,90.9h-14.8c-2.9,0-5.3-2.4-5.3-5.3v-7c0-2.9,2.4-5.3,5.3-5.3h14.8c2.9,0,5.3,2.4,5.3,5.3v7
				C168,88.6,165.6,90.9,162.7,90.9z M147.9,77c-1,0-1.8,0.8-1.8,1.8v7c0,1,0.8,1.8,1.8,1.8h14.8c1,0,1.8-0.8,1.8-1.8v-7
				c0-1-0.8-1.8-1.8-1.8H147.9z"/>
			
				<linearGradient id="SVGID_19_" gradientUnits="userSpaceOnUse" x1="314.6571" y1="179.7557" x2="-52.6611" y2="-95.3422" gradientTransform="matrix(1 0 0 -1 0 238.11)">
				<stop  offset="0" style="stop-color:#B0F416"/>
				<stop  offset="1" style="stop-color:#25EF25"/>
			</linearGradient>
			<path class="st18" d="M140,202c-7,0-12.8-5.8-12.8-12.8c0-7,5.8-12.8,12.8-12.8c7,0,12.8,5.8,12.8,12.8
				C152.8,196.2,147,202,140,202z M140,179.9c-5.1,0-9.3,4.1-9.3,9.3s4.1,9.3,9.3,9.3s9.3-4.1,9.3-9.3S145.1,179.9,140,179.9z"/>
			<g>
				
					<linearGradient id="SVGID_20_" gradientUnits="userSpaceOnUse" x1="283.859" y1="220.8781" x2="-83.4592" y2="-54.2198" gradientTransform="matrix(1 0 0 -1 0 238.11)">
					<stop  offset="0" style="stop-color:#B0F416"/>
					<stop  offset="1" style="stop-color:#25EF25"/>
				</linearGradient>
				<path class="st19" d="M107.5,148.9c0.6-0.8,1.9-0.9,2.6-0.3c1.6,1.4,4.4,2.9,7,2.9c1.9,0,3.5-0.5,4.6-1.4
					c1.1-0.8,1.6-1.8,1.6-2.6c0-0.5-0.1-0.8-0.4-1.1c-0.3-0.4-0.5-0.8-1.1-1.1c-1.1-0.8-2.9-1.4-5-1.8h-0.1
					c-1.8-0.4-3.4-0.8-4.8-1.4c-1.4-0.6-2.6-1.6-3.4-2.9c-0.5-0.9-0.9-1.9-0.9-3c0-2.3,1.3-4.1,2.9-5.4c1.8-1.3,4-2,6.4-2
					c3.5,0,6.1,1.8,8,2.9c0.9,0.6,1.1,1.8,0.5,2.6c-0.5,0.9-1.8,1.1-2.6,0.5c-1.9-1.3-3.6-2.4-5.9-2.4c-1.6,0-3.1,0.5-4.1,1.3
					c-1,0.8-1.4,1.5-1.4,2.3c0,0.5,0.1,0.8,0.3,1c0.1,0.3,0.5,0.6,1,1c1,0.6,2.6,1.3,4.6,1.6h0.1c1.9,0.4,3.6,0.9,5.1,1.5
					c1.5,0.8,2.9,1.8,3.6,3c0.5,0.9,0.9,2,0.9,3.1c0,2.4-1.4,4.4-3.1,5.8c-1.8,1.4-4.1,2.1-6.8,2.1c-4,0-7.3-2-9.4-3.6
					C107,150.9,106.9,149.6,107.5,148.9z"/>
				
					<linearGradient id="SVGID_21_" gradientUnits="userSpaceOnUse" x1="292.5568" y1="209.2645" x2="-74.7615" y2="-65.8333" gradientTransform="matrix(1 0 0 -1 0 238.11)">
					<stop  offset="0" style="stop-color:#B0F416"/>
					<stop  offset="1" style="stop-color:#25EF25"/>
				</linearGradient>
				<path class="st20" d="M133,153.3v-21.7c0-1.1,0.9-2,2-2l0,0c0,0,0,0,0.1,0H147c1.1,0,2,0.9,2,2c0,1.1-1,2-2,2h-10v6.8h8.5
					c1.1,0,2,1,2,2c0,1.1-0.9,2-2,2H137v6.8h10c1.1,0,2,0.9,2,2c0,1.1-1,2-2,2h-11.9c-0.1,0-0.1,0-0.1,0l0,0
					C133.9,155.3,133,154.4,133,153.3z"/>
				
					<linearGradient id="SVGID_22_" gradientUnits="userSpaceOnUse" x1="301.4589" y1="197.3782" x2="-65.8593" y2="-77.7197" gradientTransform="matrix(1 0 0 -1 0 238.11)">
					<stop  offset="0" style="stop-color:#B0F416"/>
					<stop  offset="1" style="stop-color:#25EF25"/>
				</linearGradient>
				<path class="st21" d="M175.1,132.7c2.3,2.4,3.8,5.6,3.8,9.3s-1.4,6.9-3.8,9.3c-2.1,2.4-5.4,3.9-8.8,3.9c-3.5,0-6.8-1.5-9-3.9
					c-2.3-2.4-3.6-5.6-3.6-9.3s1.4-6.9,3.6-9.3c2.3-2.4,5.5-3.9,9-3.9C169.7,128.7,173,130.2,175.1,132.7z M174.6,142
					c0-2.5-1-4.8-2.5-6.4s-3.6-2.6-5.8-2.6c-2.4,0-4.4,1-6,2.6c-1.5,1.6-2.5,3.9-2.5,6.4c0,2.5,1,4.8,2.5,6.4c1.5,1.6,3.6,2.6,6,2.6
					c2.3,0,4.3-1,5.8-2.6C173.6,146.9,174.6,144.5,174.6,142z"/>
			</g>
			<g>
				
					<linearGradient id="SVGID_23_" gradientUnits="userSpaceOnUse" x1="332.533" y1="155.8874" x2="-34.7853" y2="-119.2105" gradientTransform="matrix(1 0 0 -1 0 238.11)">
					<stop  offset="0" style="stop-color:#B0F416"/>
					<stop  offset="1" style="stop-color:#25EF25"/>
				</linearGradient>
				<path class="st22" d="M174.4,216.5L174.4,216.5c-1.6,0-2.5,1.8-1.8,3l3.1,5.5c1.3,2.3,0.8,4.1,0,5.3c-1.5,2.5-4.8,4.1-8.4,4.1
					h-54.7c-3.6,0-6.8-1.5-8.3-4c-0.8-1.1-1.4-3-0.3-5.1l2.9-5.9c0.6-1.4-0.4-2.9-1.9-2.9l0,0c-0.8,0-1.5,0.5-1.9,1.1l-2.9,5.9
					c-1.5,3-1.3,6.3,0.5,9.2c2.3,3.6,6.8,5.9,11.8,5.9h54.7c5.1,0,9.8-2.4,12-6.3c1.8-3,1.8-6.4,0-9.4l-3.1-5.5
					C175.9,216.9,175.1,216.5,174.4,216.5z"/>
			</g>
		</g>
	</g>
</g>
</svg>
